<mxfile host="Electron" modified="2024-03-06T14:24:58.355Z" agent="Mozilla/5.0 (Windows NT 10.0; Win64; x64) AppleWebKit/537.36 (KHTML, like Gecko) draw.io/23.1.5 Chrome/120.0.6099.109 Electron/28.1.0 Safari/537.36" etag="kN2EAATfRcXkcgI5sWhC" version="23.1.5" type="device">
  <diagram name="Page-1" id="F-sVO5j8bRGD9wPV7_A4">
    <mxGraphModel dx="3105" dy="862" grid="0" gridSize="10" guides="1" tooltips="1" connect="1" arrows="1" fold="1" page="0" pageScale="1" pageWidth="4681" pageHeight="3300" math="0" shadow="0">
      <root>
        <mxCell id="0" />
        <mxCell id="1" parent="0" />
        <mxCell id="ERBlmVheBcgW23YvOZkG-76" value="REDIS" style="whiteSpace=wrap;html=1;sketch=1;hachureGap=4;jiggle=2;curveFitting=1;fontFamily=Architects Daughter;fontSource=https%3A%2F%2Ffonts.googleapis.com%2Fcss%3Ffamily%3DArchitects%2BDaughter;" vertex="1" parent="1">
          <mxGeometry x="-78" y="11859" width="435" height="264" as="geometry" />
        </mxCell>
        <mxCell id="ERBlmVheBcgW23YvOZkG-28" value="" style="whiteSpace=wrap;html=1;sketch=1;hachureGap=4;jiggle=2;curveFitting=1;fontFamily=Architects Daughter;fontSource=https%3A%2F%2Ffonts.googleapis.com%2Fcss%3Ffamily%3DArchitects%2BDaughter;" vertex="1" parent="1">
          <mxGeometry x="-530" y="9533" width="521" height="99" as="geometry" />
        </mxCell>
        <mxCell id="ERBlmVheBcgW23YvOZkG-19" value="" style="whiteSpace=wrap;html=1;sketch=1;hachureGap=4;jiggle=2;curveFitting=1;fontFamily=Architects Daughter;fontSource=https%3A%2F%2Ffonts.googleapis.com%2Fcss%3Ffamily%3DArchitects%2BDaughter;" vertex="1" parent="1">
          <mxGeometry x="-530" y="9430" width="521" height="99" as="geometry" />
        </mxCell>
        <mxCell id="ERBlmVheBcgW23YvOZkG-18" value="" style="whiteSpace=wrap;html=1;sketch=1;hachureGap=4;jiggle=2;curveFitting=1;fontFamily=Architects Daughter;fontSource=https%3A%2F%2Ffonts.googleapis.com%2Fcss%3Ffamily%3DArchitects%2BDaughter;" vertex="1" parent="1">
          <mxGeometry x="-530" y="9327" width="521" height="99" as="geometry" />
        </mxCell>
        <mxCell id="ERBlmVheBcgW23YvOZkG-17" value="" style="whiteSpace=wrap;html=1;sketch=1;hachureGap=4;jiggle=2;curveFitting=1;fontFamily=Architects Daughter;fontSource=https%3A%2F%2Ffonts.googleapis.com%2Fcss%3Ffamily%3DArchitects%2BDaughter;" vertex="1" parent="1">
          <mxGeometry x="-530" y="9218" width="520" height="104" as="geometry" />
        </mxCell>
        <mxCell id="5B_pEfnTFyZf6bQihWn--1" value="APP" style="whiteSpace=wrap;html=1;sketch=1;hachureGap=4;jiggle=2;curveFitting=1;fontFamily=Verdana;" parent="1" vertex="1">
          <mxGeometry x="-99" y="87" width="217" height="259" as="geometry" />
        </mxCell>
        <mxCell id="5B_pEfnTFyZf6bQihWn--2" value="" style="whiteSpace=wrap;html=1;sketch=1;hachureGap=4;jiggle=2;curveFitting=1;fontFamily=Architects Daughter;fontSource=https%3A%2F%2Ffonts.googleapis.com%2Fcss%3Ffamily%3DArchitects%2BDaughter;" parent="1" vertex="1">
          <mxGeometry x="-351" y="135" width="120" height="126" as="geometry" />
        </mxCell>
        <mxCell id="5B_pEfnTFyZf6bQihWn--3" style="edgeStyle=none;curved=1;rounded=0;sketch=1;hachureGap=4;jiggle=2;curveFitting=1;orthogonalLoop=1;jettySize=auto;html=1;exitX=1;exitY=0.25;exitDx=0;exitDy=0;entryX=0.002;entryY=0.316;entryDx=0;entryDy=0;entryPerimeter=0;fontFamily=Architects Daughter;fontSource=https%3A%2F%2Ffonts.googleapis.com%2Fcss%3Ffamily%3DArchitects%2BDaughter;fontSize=16;startSize=14;endArrow=open;endSize=14;sourcePerimeterSpacing=8;targetPerimeterSpacing=8;" parent="1" source="5B_pEfnTFyZf6bQihWn--2" target="5B_pEfnTFyZf6bQihWn--1" edge="1">
          <mxGeometry relative="1" as="geometry" />
        </mxCell>
        <mxCell id="5B_pEfnTFyZf6bQihWn--4" style="edgeStyle=none;curved=1;rounded=0;sketch=1;hachureGap=4;jiggle=2;curveFitting=1;orthogonalLoop=1;jettySize=auto;html=1;exitX=0;exitY=0.5;exitDx=0;exitDy=0;entryX=1.006;entryY=0.616;entryDx=0;entryDy=0;entryPerimeter=0;fontFamily=Architects Daughter;fontSource=https%3A%2F%2Ffonts.googleapis.com%2Fcss%3Ffamily%3DArchitects%2BDaughter;fontSize=16;startSize=14;endArrow=open;endSize=14;sourcePerimeterSpacing=8;targetPerimeterSpacing=8;" parent="1" source="5B_pEfnTFyZf6bQihWn--1" target="5B_pEfnTFyZf6bQihWn--2" edge="1">
          <mxGeometry relative="1" as="geometry" />
        </mxCell>
        <mxCell id="5B_pEfnTFyZf6bQihWn--5" value="Request" style="text;html=1;align=center;verticalAlign=middle;resizable=0;points=[];autosize=1;strokeColor=none;fillColor=none;fontSize=20;fontFamily=Architects Daughter;fontSource=https%3A%2F%2Ffonts.googleapis.com%2Fcss%3Ffamily%3DArchitects%2BDaughter;" parent="1" vertex="1">
          <mxGeometry x="-219.5" y="115" width="92" height="36" as="geometry" />
        </mxCell>
        <mxCell id="5B_pEfnTFyZf6bQihWn--6" value="Response" style="text;html=1;align=center;verticalAlign=middle;resizable=0;points=[];autosize=1;strokeColor=none;fillColor=none;fontSize=20;fontFamily=Architects Daughter;fontSource=https%3A%2F%2Ffonts.googleapis.com%2Fcss%3Ffamily%3DArchitects%2BDaughter;" parent="1" vertex="1">
          <mxGeometry x="-235.5" y="175" width="106" height="36" as="geometry" />
        </mxCell>
        <mxCell id="5B_pEfnTFyZf6bQihWn--7" value="1- Throughput&lt;br&gt;2-Latency" style="text;html=1;align=center;verticalAlign=middle;resizable=0;points=[];autosize=1;strokeColor=none;fillColor=none;fontSize=20;fontFamily=Verdana;" parent="1" vertex="1">
          <mxGeometry x="291" y="109" width="163" height="60" as="geometry" />
        </mxCell>
        <mxCell id="5B_pEfnTFyZf6bQihWn--8" value="APP" style="whiteSpace=wrap;html=1;sketch=1;hachureGap=4;jiggle=2;curveFitting=1;fontFamily=Verdana;" parent="1" vertex="1">
          <mxGeometry x="-27" y="507" width="120" height="60" as="geometry" />
        </mxCell>
        <mxCell id="5B_pEfnTFyZf6bQihWn--9" value="100TPS&lt;br&gt;10ms" style="text;html=1;align=center;verticalAlign=middle;resizable=0;points=[];autosize=1;strokeColor=none;fillColor=none;fontSize=20;fontFamily=Architects Daughter;fontSource=https%3A%2F%2Ffonts.googleapis.com%2Fcss%3Ffamily%3DArchitects%2BDaughter;" parent="1" vertex="1">
          <mxGeometry x="-28.5" y="425" width="84" height="60" as="geometry" />
        </mxCell>
        <mxCell id="5B_pEfnTFyZf6bQihWn--10" value="APP" style="whiteSpace=wrap;html=1;sketch=1;hachureGap=4;jiggle=2;curveFitting=1;fontFamily=Verdana;" parent="1" vertex="1">
          <mxGeometry x="136" y="507" width="120" height="60" as="geometry" />
        </mxCell>
        <mxCell id="5B_pEfnTFyZf6bQihWn--11" value="APP" style="whiteSpace=wrap;html=1;sketch=1;hachureGap=4;jiggle=2;curveFitting=1;fontFamily=Verdana;" parent="1" vertex="1">
          <mxGeometry x="291" y="507" width="120" height="60" as="geometry" />
        </mxCell>
        <mxCell id="5B_pEfnTFyZf6bQihWn--12" value="100TPS&lt;br&gt;10ms" style="text;html=1;align=center;verticalAlign=middle;resizable=0;points=[];autosize=1;strokeColor=none;fillColor=none;fontSize=20;fontFamily=Architects Daughter;fontSource=https%3A%2F%2Ffonts.googleapis.com%2Fcss%3Ffamily%3DArchitects%2BDaughter;" parent="1" vertex="1">
          <mxGeometry x="144" y="425" width="84" height="60" as="geometry" />
        </mxCell>
        <mxCell id="5B_pEfnTFyZf6bQihWn--13" value="100TPS&lt;br&gt;10ms" style="text;html=1;align=center;verticalAlign=middle;resizable=0;points=[];autosize=1;strokeColor=none;fillColor=none;fontSize=20;fontFamily=Architects Daughter;fontSource=https%3A%2F%2Ffonts.googleapis.com%2Fcss%3Ffamily%3DArchitects%2BDaughter;" parent="1" vertex="1">
          <mxGeometry x="307" y="425" width="84" height="60" as="geometry" />
        </mxCell>
        <mxCell id="5B_pEfnTFyZf6bQihWn--14" value="N+1" style="text;html=1;align=center;verticalAlign=middle;resizable=0;points=[];autosize=1;strokeColor=none;fillColor=none;fontSize=20;fontFamily=Verdana;" parent="1" vertex="1">
          <mxGeometry x="163" y="372" width="62" height="36" as="geometry" />
        </mxCell>
        <mxCell id="5B_pEfnTFyZf6bQihWn--15" value="SOA" style="text;html=1;align=center;verticalAlign=middle;resizable=0;points=[];autosize=1;strokeColor=none;fillColor=none;fontSize=20;fontFamily=Verdana;" parent="1" vertex="1">
          <mxGeometry x="137" y="604" width="61" height="36" as="geometry" />
        </mxCell>
        <mxCell id="5B_pEfnTFyZf6bQihWn--16" value="ServiceA" style="whiteSpace=wrap;html=1;sketch=1;hachureGap=4;jiggle=2;curveFitting=1;fontFamily=Verdana;" parent="1" vertex="1">
          <mxGeometry x="-28.5" y="665" width="120" height="60" as="geometry" />
        </mxCell>
        <mxCell id="5B_pEfnTFyZf6bQihWn--17" value="ServiceB" style="whiteSpace=wrap;html=1;sketch=1;hachureGap=4;jiggle=2;curveFitting=1;fontFamily=Verdana;" parent="1" vertex="1">
          <mxGeometry x="134" y="665" width="120" height="60" as="geometry" />
        </mxCell>
        <mxCell id="5B_pEfnTFyZf6bQihWn--18" value="ServiceC" style="whiteSpace=wrap;html=1;sketch=1;hachureGap=4;jiggle=2;curveFitting=1;fontFamily=Verdana;" parent="1" vertex="1">
          <mxGeometry x="299" y="665" width="120" height="60" as="geometry" />
        </mxCell>
        <mxCell id="5B_pEfnTFyZf6bQihWn--19" value="ServiceD" style="whiteSpace=wrap;html=1;sketch=1;hachureGap=4;jiggle=2;curveFitting=1;fontFamily=Verdana;" parent="1" vertex="1">
          <mxGeometry x="448" y="663" width="120" height="60" as="geometry" />
        </mxCell>
        <mxCell id="5B_pEfnTFyZf6bQihWn--20" value="ESB" style="whiteSpace=wrap;html=1;sketch=1;hachureGap=4;jiggle=2;curveFitting=1;fontFamily=Verdana;" parent="1" vertex="1">
          <mxGeometry x="-21" y="776" width="593" height="60" as="geometry" />
        </mxCell>
        <mxCell id="5B_pEfnTFyZf6bQihWn--21" value="ServiceA" style="whiteSpace=wrap;html=1;sketch=1;hachureGap=4;jiggle=2;curveFitting=1;fontFamily=Verdana;" parent="1" vertex="1">
          <mxGeometry x="-18.5" y="675" width="120" height="60" as="geometry" />
        </mxCell>
        <mxCell id="5B_pEfnTFyZf6bQihWn--22" value="ServiceB" style="whiteSpace=wrap;html=1;sketch=1;hachureGap=4;jiggle=2;curveFitting=1;fontFamily=Verdana;" parent="1" vertex="1">
          <mxGeometry x="144" y="675" width="120" height="60" as="geometry" />
        </mxCell>
        <mxCell id="5B_pEfnTFyZf6bQihWn--23" value="ServiceC" style="whiteSpace=wrap;html=1;sketch=1;hachureGap=4;jiggle=2;curveFitting=1;fontFamily=Verdana;" parent="1" vertex="1">
          <mxGeometry x="309" y="675" width="120" height="60" as="geometry" />
        </mxCell>
        <mxCell id="5B_pEfnTFyZf6bQihWn--24" value="ServiceD" style="whiteSpace=wrap;html=1;sketch=1;hachureGap=4;jiggle=2;curveFitting=1;fontFamily=Verdana;" parent="1" vertex="1">
          <mxGeometry x="458" y="673" width="120" height="60" as="geometry" />
        </mxCell>
        <mxCell id="5B_pEfnTFyZf6bQihWn--25" style="edgeStyle=none;curved=1;rounded=0;sketch=1;hachureGap=4;jiggle=2;curveFitting=1;orthogonalLoop=1;jettySize=auto;html=1;exitX=0.5;exitY=1;exitDx=0;exitDy=0;entryX=0.112;entryY=-0.03;entryDx=0;entryDy=0;entryPerimeter=0;fontFamily=Architects Daughter;fontSource=https%3A%2F%2Ffonts.googleapis.com%2Fcss%3Ffamily%3DArchitects%2BDaughter;fontSize=16;startSize=14;endArrow=open;endSize=14;sourcePerimeterSpacing=8;targetPerimeterSpacing=8;" parent="1" source="5B_pEfnTFyZf6bQihWn--21" target="5B_pEfnTFyZf6bQihWn--20" edge="1">
          <mxGeometry relative="1" as="geometry" />
        </mxCell>
        <mxCell id="5B_pEfnTFyZf6bQihWn--26" style="edgeStyle=none;curved=1;rounded=0;sketch=1;hachureGap=4;jiggle=2;curveFitting=1;orthogonalLoop=1;jettySize=auto;html=1;exitX=0.5;exitY=1;exitDx=0;exitDy=0;entryX=0.38;entryY=-0.047;entryDx=0;entryDy=0;entryPerimeter=0;fontFamily=Architects Daughter;fontSource=https%3A%2F%2Ffonts.googleapis.com%2Fcss%3Ffamily%3DArchitects%2BDaughter;fontSize=16;startSize=14;endArrow=open;endSize=14;sourcePerimeterSpacing=8;targetPerimeterSpacing=8;" parent="1" source="5B_pEfnTFyZf6bQihWn--22" target="5B_pEfnTFyZf6bQihWn--20" edge="1">
          <mxGeometry relative="1" as="geometry" />
        </mxCell>
        <mxCell id="5B_pEfnTFyZf6bQihWn--27" style="edgeStyle=none;curved=1;rounded=0;sketch=1;hachureGap=4;jiggle=2;curveFitting=1;orthogonalLoop=1;jettySize=auto;html=1;entryX=0.655;entryY=-0.073;entryDx=0;entryDy=0;entryPerimeter=0;fontFamily=Architects Daughter;fontSource=https%3A%2F%2Ffonts.googleapis.com%2Fcss%3Ffamily%3DArchitects%2BDaughter;fontSize=16;startSize=14;endArrow=open;endSize=14;sourcePerimeterSpacing=8;targetPerimeterSpacing=8;" parent="1" source="5B_pEfnTFyZf6bQihWn--23" target="5B_pEfnTFyZf6bQihWn--20" edge="1">
          <mxGeometry relative="1" as="geometry" />
        </mxCell>
        <mxCell id="5B_pEfnTFyZf6bQihWn--28" style="edgeStyle=none;curved=1;rounded=0;sketch=1;hachureGap=4;jiggle=2;curveFitting=1;orthogonalLoop=1;jettySize=auto;html=1;exitX=0.5;exitY=1;exitDx=0;exitDy=0;entryX=0.907;entryY=0.021;entryDx=0;entryDy=0;entryPerimeter=0;fontFamily=Architects Daughter;fontSource=https%3A%2F%2Ffonts.googleapis.com%2Fcss%3Ffamily%3DArchitects%2BDaughter;fontSize=16;startSize=14;endArrow=open;endSize=14;sourcePerimeterSpacing=8;targetPerimeterSpacing=8;" parent="1" source="5B_pEfnTFyZf6bQihWn--24" target="5B_pEfnTFyZf6bQihWn--20" edge="1">
          <mxGeometry relative="1" as="geometry" />
        </mxCell>
        <mxCell id="5B_pEfnTFyZf6bQihWn--29" value="MICROSERVICE" style="text;html=1;align=center;verticalAlign=middle;resizable=0;points=[];autosize=1;strokeColor=none;fillColor=none;fontSize=20;fontFamily=Verdana;" parent="1" vertex="1">
          <mxGeometry x="83" y="875" width="176" height="36" as="geometry" />
        </mxCell>
        <mxCell id="5B_pEfnTFyZf6bQihWn--30" value="ServiceA" style="whiteSpace=wrap;html=1;sketch=1;hachureGap=4;jiggle=2;curveFitting=1;fontFamily=Verdana;" parent="1" vertex="1">
          <mxGeometry x="-27" y="947" width="120" height="60" as="geometry" />
        </mxCell>
        <mxCell id="5B_pEfnTFyZf6bQihWn--31" value="ServiceA" style="whiteSpace=wrap;html=1;sketch=1;hachureGap=4;jiggle=2;curveFitting=1;fontFamily=Verdana;" parent="1" vertex="1">
          <mxGeometry x="-17" y="957" width="120" height="60" as="geometry" />
        </mxCell>
        <mxCell id="5B_pEfnTFyZf6bQihWn--32" value="ServiceA" style="whiteSpace=wrap;html=1;sketch=1;hachureGap=4;jiggle=2;curveFitting=1;fontFamily=Verdana;" parent="1" vertex="1">
          <mxGeometry x="-7" y="967" width="120" height="60" as="geometry" />
        </mxCell>
        <mxCell id="5B_pEfnTFyZf6bQihWn--38" style="edgeStyle=none;curved=1;rounded=0;sketch=1;hachureGap=4;jiggle=2;curveFitting=1;orthogonalLoop=1;jettySize=auto;html=1;exitX=1;exitY=0.5;exitDx=0;exitDy=0;entryX=0.25;entryY=1;entryDx=0;entryDy=0;fontFamily=Architects Daughter;fontSource=https%3A%2F%2Ffonts.googleapis.com%2Fcss%3Ffamily%3DArchitects%2BDaughter;fontSize=16;startSize=14;endArrow=open;endSize=14;sourcePerimeterSpacing=8;targetPerimeterSpacing=8;" parent="1" source="5B_pEfnTFyZf6bQihWn--33" target="5B_pEfnTFyZf6bQihWn--34" edge="1">
          <mxGeometry relative="1" as="geometry" />
        </mxCell>
        <mxCell id="5B_pEfnTFyZf6bQihWn--44" style="edgeStyle=none;curved=1;rounded=0;sketch=1;hachureGap=4;jiggle=2;curveFitting=1;orthogonalLoop=1;jettySize=auto;html=1;exitX=1;exitY=0.5;exitDx=0;exitDy=0;entryX=0;entryY=0.5;entryDx=0;entryDy=0;fontFamily=Architects Daughter;fontSource=https%3A%2F%2Ffonts.googleapis.com%2Fcss%3Ffamily%3DArchitects%2BDaughter;fontSize=16;startSize=14;endArrow=open;endSize=14;sourcePerimeterSpacing=8;targetPerimeterSpacing=8;" parent="1" source="5B_pEfnTFyZf6bQihWn--33" target="5B_pEfnTFyZf6bQihWn--43" edge="1">
          <mxGeometry relative="1" as="geometry" />
        </mxCell>
        <mxCell id="5B_pEfnTFyZf6bQihWn--33" value="ServiceA" style="whiteSpace=wrap;html=1;sketch=1;hachureGap=4;jiggle=2;curveFitting=1;fontFamily=Verdana;" parent="1" vertex="1">
          <mxGeometry x="3" y="977" width="120" height="60" as="geometry" />
        </mxCell>
        <mxCell id="5B_pEfnTFyZf6bQihWn--34" value="ServiceB" style="whiteSpace=wrap;html=1;sketch=1;hachureGap=4;jiggle=2;curveFitting=1;fontFamily=Verdana;" parent="1" vertex="1">
          <mxGeometry x="210" y="942" width="120" height="60" as="geometry" />
        </mxCell>
        <mxCell id="5B_pEfnTFyZf6bQihWn--35" value="ServiceB" style="whiteSpace=wrap;html=1;sketch=1;hachureGap=4;jiggle=2;curveFitting=1;fontFamily=Verdana;" parent="1" vertex="1">
          <mxGeometry x="220" y="952" width="120" height="60" as="geometry" />
        </mxCell>
        <mxCell id="5B_pEfnTFyZf6bQihWn--36" value="ServiceB" style="whiteSpace=wrap;html=1;sketch=1;hachureGap=4;jiggle=2;curveFitting=1;fontFamily=Verdana;" parent="1" vertex="1">
          <mxGeometry x="230" y="962" width="120" height="60" as="geometry" />
        </mxCell>
        <mxCell id="5B_pEfnTFyZf6bQihWn--37" value="ServiceB1" style="whiteSpace=wrap;html=1;sketch=1;hachureGap=4;jiggle=2;curveFitting=1;fontFamily=Verdana;" parent="1" vertex="1">
          <mxGeometry x="240" y="972" width="120" height="60" as="geometry" />
        </mxCell>
        <mxCell id="5B_pEfnTFyZf6bQihWn--39" value="SERVICE REGISTRY" style="whiteSpace=wrap;html=1;sketch=1;hachureGap=4;jiggle=2;curveFitting=1;fontFamily=Verdana;verticalAlign=middle;horizontal=0;" parent="1" vertex="1">
          <mxGeometry x="-267" y="942" width="76" height="257" as="geometry" />
        </mxCell>
        <mxCell id="5B_pEfnTFyZf6bQihWn--40" value="ServiceB2" style="whiteSpace=wrap;html=1;sketch=1;hachureGap=4;jiggle=2;curveFitting=1;fontFamily=Verdana;" parent="1" vertex="1">
          <mxGeometry x="253" y="1089" width="120" height="60" as="geometry" />
        </mxCell>
        <mxCell id="5B_pEfnTFyZf6bQihWn--41" value="ServiceB2" style="whiteSpace=wrap;html=1;sketch=1;hachureGap=4;jiggle=2;curveFitting=1;fontFamily=Verdana;" parent="1" vertex="1">
          <mxGeometry x="263" y="1099" width="120" height="60" as="geometry" />
        </mxCell>
        <mxCell id="5B_pEfnTFyZf6bQihWn--42" value="ServiceB2" style="whiteSpace=wrap;html=1;sketch=1;hachureGap=4;jiggle=2;curveFitting=1;fontFamily=Verdana;" parent="1" vertex="1">
          <mxGeometry x="273" y="1109" width="120" height="60" as="geometry" />
        </mxCell>
        <mxCell id="5B_pEfnTFyZf6bQihWn--43" value="ServiceB2" style="whiteSpace=wrap;html=1;sketch=1;hachureGap=4;jiggle=2;curveFitting=1;fontFamily=Verdana;" parent="1" vertex="1">
          <mxGeometry x="283" y="1119" width="120" height="60" as="geometry" />
        </mxCell>
        <mxCell id="5B_pEfnTFyZf6bQihWn--45" value="ServiceA" style="whiteSpace=wrap;html=1;sketch=1;hachureGap=4;jiggle=2;curveFitting=1;fontFamily=Verdana;" parent="1" vertex="1">
          <mxGeometry x="8" y="1251" width="120" height="60" as="geometry" />
        </mxCell>
        <mxCell id="5B_pEfnTFyZf6bQihWn--46" value="ServiceA" style="whiteSpace=wrap;html=1;sketch=1;hachureGap=4;jiggle=2;curveFitting=1;fontFamily=Verdana;" parent="1" vertex="1">
          <mxGeometry x="18" y="1261" width="120" height="60" as="geometry" />
        </mxCell>
        <mxCell id="5B_pEfnTFyZf6bQihWn--47" value="ServiceA" style="whiteSpace=wrap;html=1;sketch=1;hachureGap=4;jiggle=2;curveFitting=1;fontFamily=Verdana;" parent="1" vertex="1">
          <mxGeometry x="28" y="1271" width="120" height="60" as="geometry" />
        </mxCell>
        <mxCell id="5B_pEfnTFyZf6bQihWn--48" style="edgeStyle=none;curved=1;rounded=0;sketch=1;hachureGap=4;jiggle=2;curveFitting=1;orthogonalLoop=1;jettySize=auto;html=1;exitX=1;exitY=0.5;exitDx=0;exitDy=0;entryX=0.25;entryY=1;entryDx=0;entryDy=0;fontFamily=Architects Daughter;fontSource=https%3A%2F%2Ffonts.googleapis.com%2Fcss%3Ffamily%3DArchitects%2BDaughter;fontSize=16;startSize=14;endArrow=open;endSize=14;sourcePerimeterSpacing=8;targetPerimeterSpacing=8;" parent="1" source="5B_pEfnTFyZf6bQihWn--50" target="5B_pEfnTFyZf6bQihWn--51" edge="1">
          <mxGeometry relative="1" as="geometry" />
        </mxCell>
        <mxCell id="5B_pEfnTFyZf6bQihWn--49" style="edgeStyle=none;curved=1;rounded=0;sketch=1;hachureGap=4;jiggle=2;curveFitting=1;orthogonalLoop=1;jettySize=auto;html=1;exitX=1;exitY=0.5;exitDx=0;exitDy=0;entryX=0;entryY=0.5;entryDx=0;entryDy=0;fontFamily=Architects Daughter;fontSource=https%3A%2F%2Ffonts.googleapis.com%2Fcss%3Ffamily%3DArchitects%2BDaughter;fontSize=16;startSize=14;endArrow=open;endSize=14;sourcePerimeterSpacing=8;targetPerimeterSpacing=8;" parent="1" source="5B_pEfnTFyZf6bQihWn--50" target="5B_pEfnTFyZf6bQihWn--58" edge="1">
          <mxGeometry relative="1" as="geometry" />
        </mxCell>
        <mxCell id="5B_pEfnTFyZf6bQihWn--50" value="ServiceA" style="whiteSpace=wrap;html=1;sketch=1;hachureGap=4;jiggle=2;curveFitting=1;fontFamily=Verdana;" parent="1" vertex="1">
          <mxGeometry x="38" y="1281" width="120" height="60" as="geometry" />
        </mxCell>
        <mxCell id="5B_pEfnTFyZf6bQihWn--51" value="ServiceB" style="whiteSpace=wrap;html=1;sketch=1;hachureGap=4;jiggle=2;curveFitting=1;fontFamily=Verdana;" parent="1" vertex="1">
          <mxGeometry x="245" y="1246" width="120" height="60" as="geometry" />
        </mxCell>
        <mxCell id="5B_pEfnTFyZf6bQihWn--52" value="ServiceB" style="whiteSpace=wrap;html=1;sketch=1;hachureGap=4;jiggle=2;curveFitting=1;fontFamily=Verdana;" parent="1" vertex="1">
          <mxGeometry x="255" y="1256" width="120" height="60" as="geometry" />
        </mxCell>
        <mxCell id="5B_pEfnTFyZf6bQihWn--53" value="ServiceB" style="whiteSpace=wrap;html=1;sketch=1;hachureGap=4;jiggle=2;curveFitting=1;fontFamily=Verdana;" parent="1" vertex="1">
          <mxGeometry x="265" y="1266" width="120" height="60" as="geometry" />
        </mxCell>
        <mxCell id="5B_pEfnTFyZf6bQihWn--54" value="ServiceB1" style="whiteSpace=wrap;html=1;sketch=1;hachureGap=4;jiggle=2;curveFitting=1;fontFamily=Verdana;" parent="1" vertex="1">
          <mxGeometry x="275" y="1276" width="120" height="60" as="geometry" />
        </mxCell>
        <mxCell id="5B_pEfnTFyZf6bQihWn--55" value="ServiceB2" style="whiteSpace=wrap;html=1;sketch=1;hachureGap=4;jiggle=2;curveFitting=1;fontFamily=Verdana;" parent="1" vertex="1">
          <mxGeometry x="288" y="1393" width="120" height="60" as="geometry" />
        </mxCell>
        <mxCell id="5B_pEfnTFyZf6bQihWn--56" value="ServiceB2" style="whiteSpace=wrap;html=1;sketch=1;hachureGap=4;jiggle=2;curveFitting=1;fontFamily=Verdana;" parent="1" vertex="1">
          <mxGeometry x="298" y="1403" width="120" height="60" as="geometry" />
        </mxCell>
        <mxCell id="5B_pEfnTFyZf6bQihWn--57" value="ServiceB2" style="whiteSpace=wrap;html=1;sketch=1;hachureGap=4;jiggle=2;curveFitting=1;fontFamily=Verdana;" parent="1" vertex="1">
          <mxGeometry x="308" y="1413" width="120" height="60" as="geometry" />
        </mxCell>
        <mxCell id="5B_pEfnTFyZf6bQihWn--58" value="ServiceB2" style="whiteSpace=wrap;html=1;sketch=1;hachureGap=4;jiggle=2;curveFitting=1;fontFamily=Verdana;" parent="1" vertex="1">
          <mxGeometry x="318" y="1423" width="120" height="60" as="geometry" />
        </mxCell>
        <mxCell id="5B_pEfnTFyZf6bQihWn--59" value="ServiceB1" style="whiteSpace=wrap;html=1;sketch=1;hachureGap=4;jiggle=2;curveFitting=1;fontFamily=Verdana;" parent="1" vertex="1">
          <mxGeometry x="250" y="982" width="120" height="60" as="geometry" />
        </mxCell>
        <mxCell id="5B_pEfnTFyZf6bQihWn--60" value="15ms" style="text;html=1;align=center;verticalAlign=middle;resizable=0;points=[];autosize=1;strokeColor=none;fillColor=none;fontSize=20;fontFamily=Architects Daughter;fontSource=https%3A%2F%2Ffonts.googleapis.com%2Fcss%3Ffamily%3DArchitects%2BDaughter;" parent="1" vertex="1">
          <mxGeometry x="-140.5" y="956" width="60" height="36" as="geometry" />
        </mxCell>
        <mxCell id="5B_pEfnTFyZf6bQihWn--61" value="99,9" style="text;html=1;align=center;verticalAlign=middle;resizable=0;points=[];autosize=1;strokeColor=none;fillColor=none;fontSize=20;fontFamily=Architects Daughter;fontSource=https%3A%2F%2Ffonts.googleapis.com%2Fcss%3Ffamily%3DArchitects%2BDaughter;" parent="1" vertex="1">
          <mxGeometry x="485.5" y="433" width="56" height="36" as="geometry" />
        </mxCell>
        <mxCell id="5B_pEfnTFyZf6bQihWn--62" value="99,99" style="text;html=1;align=center;verticalAlign=middle;resizable=0;points=[];autosize=1;strokeColor=none;fillColor=none;fontSize=20;fontFamily=Architects Daughter;fontSource=https%3A%2F%2Ffonts.googleapis.com%2Fcss%3Ffamily%3DArchitects%2BDaughter;" parent="1" vertex="1">
          <mxGeometry x="595" y="665" width="67" height="36" as="geometry" />
        </mxCell>
        <mxCell id="5B_pEfnTFyZf6bQihWn--63" value="99,9999" style="text;html=1;align=center;verticalAlign=middle;resizable=0;points=[];autosize=1;strokeColor=none;fillColor=none;fontSize=20;fontFamily=Architects Daughter;fontSource=https%3A%2F%2Ffonts.googleapis.com%2Fcss%3Ffamily%3DArchitects%2BDaughter;" parent="1" vertex="1">
          <mxGeometry x="478" y="962" width="90" height="36" as="geometry" />
        </mxCell>
        <mxCell id="5B_pEfnTFyZf6bQihWn--64" value="1" style="text;html=1;align=center;verticalAlign=middle;resizable=0;points=[];autosize=1;strokeColor=none;fillColor=none;fontSize=20;fontFamily=Verdana;" parent="1" vertex="1">
          <mxGeometry x="-224.5" y="1567" width="31" height="36" as="geometry" />
        </mxCell>
        <mxCell id="5B_pEfnTFyZf6bQihWn--65" value="APP&lt;br&gt;FUNCTION1&lt;br&gt;FUNCTION2" style="whiteSpace=wrap;html=1;sketch=1;hachureGap=4;jiggle=2;curveFitting=1;fontFamily=Architects Daughter;fontSource=https%3A%2F%2Ffonts.googleapis.com%2Fcss%3Ffamily%3DArchitects%2BDaughter;" parent="1" vertex="1">
          <mxGeometry x="-225" y="1623" width="99" height="72" as="geometry" />
        </mxCell>
        <mxCell id="5B_pEfnTFyZf6bQihWn--66" value="APP" style="whiteSpace=wrap;html=1;sketch=1;hachureGap=4;jiggle=2;curveFitting=1;fontFamily=Architects Daughter;fontSource=https%3A%2F%2Ffonts.googleapis.com%2Fcss%3Ffamily%3DArchitects%2BDaughter;" parent="1" vertex="1">
          <mxGeometry x="-76" y="1623" width="99" height="72" as="geometry" />
        </mxCell>
        <mxCell id="5B_pEfnTFyZf6bQihWn--67" value="APP" style="whiteSpace=wrap;html=1;sketch=1;hachureGap=4;jiggle=2;curveFitting=1;fontFamily=Architects Daughter;fontSource=https%3A%2F%2Ffonts.googleapis.com%2Fcss%3Ffamily%3DArchitects%2BDaughter;" parent="1" vertex="1">
          <mxGeometry x="64" y="1623" width="99" height="72" as="geometry" />
        </mxCell>
        <mxCell id="5B_pEfnTFyZf6bQihWn--68" value="2" style="text;html=1;align=center;verticalAlign=middle;resizable=0;points=[];autosize=1;strokeColor=none;fillColor=none;fontSize=20;fontFamily=Verdana;" parent="1" vertex="1">
          <mxGeometry x="-231" y="1719" width="31" height="36" as="geometry" />
        </mxCell>
        <mxCell id="5B_pEfnTFyZf6bQihWn--69" value="FUNCTION1&lt;div&gt;&lt;br/&gt;&lt;/div&gt;" style="whiteSpace=wrap;html=1;sketch=1;hachureGap=4;jiggle=2;curveFitting=1;fontFamily=Architects Daughter;fontSource=https%3A%2F%2Ffonts.googleapis.com%2Fcss%3Ffamily%3DArchitects%2BDaughter;" parent="1" vertex="1">
          <mxGeometry x="-232" y="1763" width="99" height="72" as="geometry" />
        </mxCell>
        <mxCell id="5B_pEfnTFyZf6bQihWn--70" value="FUNCTION2" style="whiteSpace=wrap;html=1;sketch=1;hachureGap=4;jiggle=2;curveFitting=1;fontFamily=Architects Daughter;fontSource=https%3A%2F%2Ffonts.googleapis.com%2Fcss%3Ffamily%3DArchitects%2BDaughter;" parent="1" vertex="1">
          <mxGeometry x="-232" y="1867" width="99" height="72" as="geometry" />
        </mxCell>
        <mxCell id="5B_pEfnTFyZf6bQihWn--72" value="FUNCTION1&lt;div&gt;&lt;br/&gt;&lt;/div&gt;" style="whiteSpace=wrap;html=1;sketch=1;hachureGap=4;jiggle=2;curveFitting=1;fontFamily=Architects Daughter;fontSource=https%3A%2F%2Ffonts.googleapis.com%2Fcss%3Ffamily%3DArchitects%2BDaughter;" parent="1" vertex="1">
          <mxGeometry x="-88" y="1771" width="99" height="72" as="geometry" />
        </mxCell>
        <mxCell id="5B_pEfnTFyZf6bQihWn--73" value="FUNCTION1&lt;div&gt;&lt;br/&gt;&lt;/div&gt;" style="whiteSpace=wrap;html=1;sketch=1;hachureGap=4;jiggle=2;curveFitting=1;fontFamily=Architects Daughter;fontSource=https%3A%2F%2Ffonts.googleapis.com%2Fcss%3Ffamily%3DArchitects%2BDaughter;" parent="1" vertex="1">
          <mxGeometry x="66" y="1773" width="99" height="72" as="geometry" />
        </mxCell>
        <mxCell id="5B_pEfnTFyZf6bQihWn--74" value="FUNCTION2" style="whiteSpace=wrap;html=1;sketch=1;hachureGap=4;jiggle=2;curveFitting=1;fontFamily=Architects Daughter;fontSource=https%3A%2F%2Ffonts.googleapis.com%2Fcss%3Ffamily%3DArchitects%2BDaughter;" parent="1" vertex="1">
          <mxGeometry x="-88" y="1867" width="99" height="72" as="geometry" />
        </mxCell>
        <mxCell id="5B_pEfnTFyZf6bQihWn--75" value="FUNCTION2" style="whiteSpace=wrap;html=1;sketch=1;hachureGap=4;jiggle=2;curveFitting=1;fontFamily=Architects Daughter;fontSource=https%3A%2F%2Ffonts.googleapis.com%2Fcss%3Ffamily%3DArchitects%2BDaughter;" parent="1" vertex="1">
          <mxGeometry x="70" y="1876" width="99" height="72" as="geometry" />
        </mxCell>
        <mxCell id="5B_pEfnTFyZf6bQihWn--76" value="DB" style="shape=cylinder3;whiteSpace=wrap;html=1;boundedLbl=1;backgroundOutline=1;size=15;sketch=1;hachureGap=4;jiggle=2;curveFitting=1;fontFamily=Architects Daughter;fontSource=https%3A%2F%2Ffonts.googleapis.com%2Fcss%3Ffamily%3DArchitects%2BDaughter;" parent="1" vertex="1">
          <mxGeometry x="294" y="1792" width="150" height="124" as="geometry" />
        </mxCell>
        <mxCell id="5B_pEfnTFyZf6bQihWn--77" value="3" style="text;html=1;align=center;verticalAlign=middle;resizable=0;points=[];autosize=1;strokeColor=none;fillColor=none;fontSize=20;fontFamily=Verdana;" parent="1" vertex="1">
          <mxGeometry x="-231" y="1965" width="31" height="36" as="geometry" />
        </mxCell>
        <mxCell id="5B_pEfnTFyZf6bQihWn--78" value="FUNCTION1&lt;div&gt;&lt;br/&gt;&lt;/div&gt;" style="whiteSpace=wrap;html=1;sketch=1;hachureGap=4;jiggle=2;curveFitting=1;fontFamily=Architects Daughter;fontSource=https%3A%2F%2Ffonts.googleapis.com%2Fcss%3Ffamily%3DArchitects%2BDaughter;" parent="1" vertex="1">
          <mxGeometry x="-232" y="2021" width="99" height="72" as="geometry" />
        </mxCell>
        <mxCell id="5B_pEfnTFyZf6bQihWn--79" value="FUNCTION2" style="whiteSpace=wrap;html=1;sketch=1;hachureGap=4;jiggle=2;curveFitting=1;fontFamily=Architects Daughter;fontSource=https%3A%2F%2Ffonts.googleapis.com%2Fcss%3Ffamily%3DArchitects%2BDaughter;" parent="1" vertex="1">
          <mxGeometry x="-232" y="2113" width="99" height="72" as="geometry" />
        </mxCell>
        <mxCell id="5B_pEfnTFyZf6bQihWn--80" value="FUNCTION1&lt;div&gt;&lt;br/&gt;&lt;/div&gt;" style="whiteSpace=wrap;html=1;sketch=1;hachureGap=4;jiggle=2;curveFitting=1;fontFamily=Architects Daughter;fontSource=https%3A%2F%2Ffonts.googleapis.com%2Fcss%3Ffamily%3DArchitects%2BDaughter;" parent="1" vertex="1">
          <mxGeometry x="-88" y="2017" width="99" height="72" as="geometry" />
        </mxCell>
        <mxCell id="5B_pEfnTFyZf6bQihWn--81" value="FUNCTION1&lt;div&gt;&lt;br/&gt;&lt;/div&gt;" style="whiteSpace=wrap;html=1;sketch=1;hachureGap=4;jiggle=2;curveFitting=1;fontFamily=Architects Daughter;fontSource=https%3A%2F%2Ffonts.googleapis.com%2Fcss%3Ffamily%3DArchitects%2BDaughter;" parent="1" vertex="1">
          <mxGeometry x="66" y="2019" width="99" height="72" as="geometry" />
        </mxCell>
        <mxCell id="5B_pEfnTFyZf6bQihWn--82" value="FUNCTION2" style="whiteSpace=wrap;html=1;sketch=1;hachureGap=4;jiggle=2;curveFitting=1;fontFamily=Architects Daughter;fontSource=https%3A%2F%2Ffonts.googleapis.com%2Fcss%3Ffamily%3DArchitects%2BDaughter;" parent="1" vertex="1">
          <mxGeometry x="-88" y="2113" width="99" height="72" as="geometry" />
        </mxCell>
        <mxCell id="5B_pEfnTFyZf6bQihWn--83" value="FUNCTION2" style="whiteSpace=wrap;html=1;sketch=1;hachureGap=4;jiggle=2;curveFitting=1;fontFamily=Architects Daughter;fontSource=https%3A%2F%2Ffonts.googleapis.com%2Fcss%3Ffamily%3DArchitects%2BDaughter;" parent="1" vertex="1">
          <mxGeometry x="64" y="2113" width="99" height="72" as="geometry" />
        </mxCell>
        <mxCell id="5B_pEfnTFyZf6bQihWn--84" value="DB" style="shape=cylinder3;whiteSpace=wrap;html=1;boundedLbl=1;backgroundOutline=1;size=15;sketch=1;hachureGap=4;jiggle=2;curveFitting=1;fontFamily=Architects Daughter;fontSource=https%3A%2F%2Ffonts.googleapis.com%2Fcss%3Ffamily%3DArchitects%2BDaughter;" parent="1" vertex="1">
          <mxGeometry x="239" y="2012" width="73" height="79" as="geometry" />
        </mxCell>
        <mxCell id="5B_pEfnTFyZf6bQihWn--85" value="DB" style="shape=cylinder3;whiteSpace=wrap;html=1;boundedLbl=1;backgroundOutline=1;size=15;sketch=1;hachureGap=4;jiggle=2;curveFitting=1;fontFamily=Architects Daughter;fontSource=https%3A%2F%2Ffonts.googleapis.com%2Fcss%3Ffamily%3DArchitects%2BDaughter;" parent="1" vertex="1">
          <mxGeometry x="245" y="2113" width="73" height="79" as="geometry" />
        </mxCell>
        <mxCell id="5B_pEfnTFyZf6bQihWn--86" value="FUNCTION1&lt;div&gt;&lt;br&gt;&lt;/div&gt;" style="whiteSpace=wrap;html=1;sketch=1;hachureGap=4;jiggle=2;curveFitting=1;fontFamily=Verdana;" parent="1" vertex="1">
          <mxGeometry x="-231" y="2284" width="99" height="72" as="geometry" />
        </mxCell>
        <mxCell id="5B_pEfnTFyZf6bQihWn--87" value="FUNCTION2" style="whiteSpace=wrap;html=1;sketch=1;hachureGap=4;jiggle=2;curveFitting=1;fontFamily=Verdana;" parent="1" vertex="1">
          <mxGeometry x="-231" y="2376" width="99" height="72" as="geometry" />
        </mxCell>
        <mxCell id="5B_pEfnTFyZf6bQihWn--88" value="FUNCTION1&lt;div&gt;&lt;br&gt;&lt;/div&gt;" style="whiteSpace=wrap;html=1;sketch=1;hachureGap=4;jiggle=2;curveFitting=1;fontFamily=Verdana;" parent="1" vertex="1">
          <mxGeometry x="-87" y="2280" width="99" height="72" as="geometry" />
        </mxCell>
        <mxCell id="5B_pEfnTFyZf6bQihWn--89" value="FUNCTION1&lt;div&gt;&lt;br&gt;&lt;/div&gt;" style="whiteSpace=wrap;html=1;sketch=1;hachureGap=4;jiggle=2;curveFitting=1;fontFamily=Verdana;" parent="1" vertex="1">
          <mxGeometry x="67" y="2282" width="99" height="72" as="geometry" />
        </mxCell>
        <mxCell id="5B_pEfnTFyZf6bQihWn--90" value="FUNCTION2" style="whiteSpace=wrap;html=1;sketch=1;hachureGap=4;jiggle=2;curveFitting=1;fontFamily=Verdana;" parent="1" vertex="1">
          <mxGeometry x="-87" y="2376" width="99" height="72" as="geometry" />
        </mxCell>
        <mxCell id="5B_pEfnTFyZf6bQihWn--91" value="FUNCTION2" style="whiteSpace=wrap;html=1;sketch=1;hachureGap=4;jiggle=2;curveFitting=1;fontFamily=Verdana;" parent="1" vertex="1">
          <mxGeometry x="65" y="2376" width="99" height="72" as="geometry" />
        </mxCell>
        <mxCell id="5B_pEfnTFyZf6bQihWn--92" value="DB" style="shape=cylinder3;whiteSpace=wrap;html=1;boundedLbl=1;backgroundOutline=1;size=15;sketch=1;hachureGap=4;jiggle=2;curveFitting=1;fontFamily=Architects Daughter;fontSource=https%3A%2F%2Ffonts.googleapis.com%2Fcss%3Ffamily%3DArchitects%2BDaughter;" parent="1" vertex="1">
          <mxGeometry x="240" y="2275" width="73" height="79" as="geometry" />
        </mxCell>
        <mxCell id="5B_pEfnTFyZf6bQihWn--93" value="DB" style="shape=cylinder3;whiteSpace=wrap;html=1;boundedLbl=1;backgroundOutline=1;size=15;sketch=1;hachureGap=4;jiggle=2;curveFitting=1;fontFamily=Architects Daughter;fontSource=https%3A%2F%2Ffonts.googleapis.com%2Fcss%3Ffamily%3DArchitects%2BDaughter;" parent="1" vertex="1">
          <mxGeometry x="246" y="2376" width="73" height="79" as="geometry" />
        </mxCell>
        <mxCell id="5B_pEfnTFyZf6bQihWn--94" value="4" style="text;html=1;align=center;verticalAlign=middle;resizable=0;points=[];autosize=1;strokeColor=none;fillColor=none;fontSize=20;fontFamily=Verdana;" parent="1" vertex="1">
          <mxGeometry x="-228" y="2225" width="31" height="36" as="geometry" />
        </mxCell>
        <mxCell id="5B_pEfnTFyZf6bQihWn--95" value="FUNCTION1&lt;div&gt;&lt;br&gt;&lt;/div&gt;" style="whiteSpace=wrap;html=1;sketch=1;hachureGap=4;jiggle=2;curveFitting=1;fontFamily=Verdana;" parent="1" vertex="1">
          <mxGeometry x="-232" y="2518" width="99" height="72" as="geometry" />
        </mxCell>
        <mxCell id="5B_pEfnTFyZf6bQihWn--96" value="FUNCTION2" style="whiteSpace=wrap;html=1;sketch=1;hachureGap=4;jiggle=2;curveFitting=1;fontFamily=Verdana;" parent="1" vertex="1">
          <mxGeometry x="-232" y="2610" width="99" height="72" as="geometry" />
        </mxCell>
        <mxCell id="5B_pEfnTFyZf6bQihWn--97" value="FUNCTION1&lt;div&gt;&lt;br&gt;&lt;/div&gt;" style="whiteSpace=wrap;html=1;sketch=1;hachureGap=4;jiggle=2;curveFitting=1;fontFamily=Verdana;" parent="1" vertex="1">
          <mxGeometry x="-88" y="2514" width="99" height="72" as="geometry" />
        </mxCell>
        <mxCell id="5B_pEfnTFyZf6bQihWn--98" value="FUNCTION1&lt;div&gt;&lt;br&gt;&lt;/div&gt;" style="whiteSpace=wrap;html=1;sketch=1;hachureGap=4;jiggle=2;curveFitting=1;fontFamily=Verdana;" parent="1" vertex="1">
          <mxGeometry x="66" y="2516" width="99" height="72" as="geometry" />
        </mxCell>
        <mxCell id="5B_pEfnTFyZf6bQihWn--99" value="FUNCTION2" style="whiteSpace=wrap;html=1;sketch=1;hachureGap=4;jiggle=2;curveFitting=1;fontFamily=Verdana;" parent="1" vertex="1">
          <mxGeometry x="-88" y="2610" width="99" height="72" as="geometry" />
        </mxCell>
        <mxCell id="5B_pEfnTFyZf6bQihWn--100" value="FUNCTION2" style="whiteSpace=wrap;html=1;sketch=1;hachureGap=4;jiggle=2;curveFitting=1;fontFamily=Verdana;" parent="1" vertex="1">
          <mxGeometry x="64" y="2610" width="99" height="72" as="geometry" />
        </mxCell>
        <mxCell id="5B_pEfnTFyZf6bQihWn--101" value="DB" style="shape=cylinder3;whiteSpace=wrap;html=1;boundedLbl=1;backgroundOutline=1;size=15;sketch=1;hachureGap=4;jiggle=2;curveFitting=1;fontFamily=Verdana;" parent="1" vertex="1">
          <mxGeometry x="239" y="2509" width="73" height="79" as="geometry" />
        </mxCell>
        <mxCell id="5B_pEfnTFyZf6bQihWn--102" value="DB" style="shape=cylinder3;whiteSpace=wrap;html=1;boundedLbl=1;backgroundOutline=1;size=15;sketch=1;hachureGap=4;jiggle=2;curveFitting=1;fontFamily=Verdana;" parent="1" vertex="1">
          <mxGeometry x="245" y="2610" width="73" height="79" as="geometry" />
        </mxCell>
        <mxCell id="5B_pEfnTFyZf6bQihWn--103" value="JVM" style="text;html=1;align=center;verticalAlign=middle;resizable=0;points=[];autosize=1;strokeColor=none;fillColor=none;fontSize=20;fontFamily=Verdana;" parent="1" vertex="1">
          <mxGeometry x="-77" y="2745" width="58" height="36" as="geometry" />
        </mxCell>
        <mxCell id="5B_pEfnTFyZf6bQihWn--104" value="YOUNG" style="rounded=0;whiteSpace=wrap;html=1;sketch=1;hachureGap=4;jiggle=2;curveFitting=1;fontFamily=Verdana;" parent="1" vertex="1">
          <mxGeometry x="-225" y="2817" width="647" height="288" as="geometry" />
        </mxCell>
        <mxCell id="5B_pEfnTFyZf6bQihWn--105" value="OLD" style="rounded=0;whiteSpace=wrap;html=1;sketch=1;hachureGap=4;jiggle=2;curveFitting=1;fontFamily=Verdana;" parent="1" vertex="1">
          <mxGeometry x="441" y="2817" width="350" height="285" as="geometry" />
        </mxCell>
        <mxCell id="5B_pEfnTFyZf6bQihWn--106" value="OS" style="whiteSpace=wrap;html=1;sketch=1;hachureGap=4;jiggle=2;curveFitting=1;fontFamily=Verdana;" parent="1" vertex="1">
          <mxGeometry x="852" y="2663" width="51" height="269" as="geometry" />
        </mxCell>
        <mxCell id="5B_pEfnTFyZf6bQihWn--107" value="PY MEMORY" style="whiteSpace=wrap;html=1;sketch=1;hachureGap=4;jiggle=2;curveFitting=1;fontFamily=Verdana;" parent="1" vertex="1">
          <mxGeometry x="987" y="2662" width="65" height="177" as="geometry" />
        </mxCell>
        <mxCell id="5B_pEfnTFyZf6bQihWn--108" value="SWAP" style="whiteSpace=wrap;html=1;sketch=1;hachureGap=4;jiggle=2;curveFitting=1;fontFamily=Verdana;" parent="1" vertex="1">
          <mxGeometry x="987" y="2847" width="65" height="88" as="geometry" />
        </mxCell>
        <mxCell id="5B_pEfnTFyZf6bQihWn--109" value="Virtual Memory" style="whiteSpace=wrap;html=1;sketch=1;hachureGap=4;jiggle=2;curveFitting=1;fontFamily=Verdana;" parent="1" vertex="1">
          <mxGeometry x="915" y="2662" width="51" height="269" as="geometry" />
        </mxCell>
        <mxCell id="5B_pEfnTFyZf6bQihWn--110" style="edgeStyle=none;curved=1;rounded=0;sketch=1;hachureGap=4;jiggle=2;curveFitting=1;orthogonalLoop=1;jettySize=auto;html=1;exitX=0;exitY=0.25;exitDx=0;exitDy=0;entryX=0.991;entryY=0.483;entryDx=0;entryDy=0;entryPerimeter=0;fontFamily=Architects Daughter;fontSource=https%3A%2F%2Ffonts.googleapis.com%2Fcss%3Ffamily%3DArchitects%2BDaughter;fontSize=16;startSize=14;endArrow=open;endSize=14;sourcePerimeterSpacing=8;targetPerimeterSpacing=8;" parent="1" source="5B_pEfnTFyZf6bQihWn--106" target="5B_pEfnTFyZf6bQihWn--103" edge="1">
          <mxGeometry relative="1" as="geometry" />
        </mxCell>
        <mxCell id="5B_pEfnTFyZf6bQihWn--111" value="HEAP" style="text;html=1;align=center;verticalAlign=middle;resizable=0;points=[];autosize=1;strokeColor=none;fillColor=none;fontSize=20;fontFamily=Verdana;" parent="1" vertex="1">
          <mxGeometry x="85.5" y="2779.5" width="71" height="36" as="geometry" />
        </mxCell>
        <mxCell id="5B_pEfnTFyZf6bQihWn--112" value="STACK" style="rounded=0;whiteSpace=wrap;html=1;sketch=1;hachureGap=4;jiggle=2;curveFitting=1;fontFamily=Verdana;horizontal=1;verticalAlign=top;" parent="1" vertex="1">
          <mxGeometry x="-599" y="2701" width="265" height="472" as="geometry" />
        </mxCell>
        <mxCell id="5B_pEfnTFyZf6bQihWn--113" value="Customer" style="whiteSpace=wrap;html=1;sketch=1;hachureGap=4;jiggle=2;curveFitting=1;fontFamily=Verdana;verticalAlign=top;" parent="1" vertex="1">
          <mxGeometry x="-219" y="2822" width="112" height="250" as="geometry" />
        </mxCell>
        <mxCell id="5B_pEfnTFyZf6bQihWn--114" value="customerLoc" style="text;html=1;align=center;verticalAlign=middle;resizable=0;points=[];autosize=1;strokeColor=none;fillColor=none;fontSize=20;fontFamily=Architects Daughter;fontSource=https%3A%2F%2Ffonts.googleapis.com%2Fcss%3Ffamily%3DArchitects%2BDaughter;" parent="1" vertex="1">
          <mxGeometry x="-597" y="2749" width="145" height="36" as="geometry" />
        </mxCell>
        <mxCell id="5B_pEfnTFyZf6bQihWn--115" style="edgeStyle=none;curved=1;rounded=0;sketch=1;hachureGap=4;jiggle=2;curveFitting=1;orthogonalLoop=1;jettySize=auto;html=1;exitX=0;exitY=0.5;exitDx=0;exitDy=0;entryX=1.021;entryY=0.482;entryDx=0;entryDy=0;entryPerimeter=0;fontFamily=Architects Daughter;fontSource=https%3A%2F%2Ffonts.googleapis.com%2Fcss%3Ffamily%3DArchitects%2BDaughter;fontSize=16;startSize=14;endArrow=open;endSize=14;sourcePerimeterSpacing=8;targetPerimeterSpacing=8;" parent="1" source="5B_pEfnTFyZf6bQihWn--113" target="5B_pEfnTFyZf6bQihWn--114" edge="1">
          <mxGeometry relative="1" as="geometry" />
        </mxCell>
        <mxCell id="5B_pEfnTFyZf6bQihWn--116" value="name" style="text;html=1;align=center;verticalAlign=middle;resizable=0;points=[];autosize=1;strokeColor=none;fillColor=none;fontSize=20;fontFamily=Verdana;" parent="1" vertex="1">
          <mxGeometry x="-207" y="2854" width="74" height="36" as="geometry" />
        </mxCell>
        <mxCell id="5B_pEfnTFyZf6bQihWn--117" value="surname" style="text;html=1;align=center;verticalAlign=middle;resizable=0;points=[];autosize=1;strokeColor=none;fillColor=none;fontSize=20;fontFamily=Verdana;" parent="1" vertex="1">
          <mxGeometry x="-216.5" y="2895" width="106" height="36" as="geometry" />
        </mxCell>
        <mxCell id="5B_pEfnTFyZf6bQihWn--118" value="String&lt;br&gt;&quot;osman&quot;" style="whiteSpace=wrap;html=1;sketch=1;hachureGap=4;jiggle=2;curveFitting=1;fontFamily=Verdana;verticalAlign=top;" parent="1" vertex="1">
          <mxGeometry x="-87" y="2822" width="111" height="55" as="geometry" />
        </mxCell>
        <mxCell id="5B_pEfnTFyZf6bQihWn--119" style="edgeStyle=none;curved=1;rounded=0;sketch=1;hachureGap=4;jiggle=2;curveFitting=1;orthogonalLoop=1;jettySize=auto;html=1;exitX=0;exitY=0.5;exitDx=0;exitDy=0;entryX=1.022;entryY=0.526;entryDx=0;entryDy=0;entryPerimeter=0;fontFamily=Architects Daughter;fontSource=https%3A%2F%2Ffonts.googleapis.com%2Fcss%3Ffamily%3DArchitects%2BDaughter;fontSize=16;startSize=14;endArrow=open;endSize=14;sourcePerimeterSpacing=8;targetPerimeterSpacing=8;" parent="1" source="5B_pEfnTFyZf6bQihWn--118" target="5B_pEfnTFyZf6bQihWn--116" edge="1">
          <mxGeometry relative="1" as="geometry" />
        </mxCell>
        <mxCell id="5B_pEfnTFyZf6bQihWn--120" value="String&lt;br&gt;&quot;yaycıoğlu&quot;" style="whiteSpace=wrap;html=1;sketch=1;hachureGap=4;jiggle=2;curveFitting=1;fontFamily=Verdana;verticalAlign=top;" parent="1" vertex="1">
          <mxGeometry x="-83" y="2885.5" width="111" height="55" as="geometry" />
        </mxCell>
        <mxCell id="5B_pEfnTFyZf6bQihWn--121" style="edgeStyle=none;curved=1;rounded=0;sketch=1;hachureGap=4;jiggle=2;curveFitting=1;orthogonalLoop=1;jettySize=auto;html=1;exitX=0;exitY=0.5;exitDx=0;exitDy=0;entryX=0.988;entryY=0.613;entryDx=0;entryDy=0;entryPerimeter=0;fontFamily=Architects Daughter;fontSource=https%3A%2F%2Ffonts.googleapis.com%2Fcss%3Ffamily%3DArchitects%2BDaughter;fontSize=16;startSize=14;endArrow=open;endSize=14;sourcePerimeterSpacing=8;targetPerimeterSpacing=8;" parent="1" source="5B_pEfnTFyZf6bQihWn--120" target="5B_pEfnTFyZf6bQihWn--117" edge="1">
          <mxGeometry relative="1" as="geometry" />
        </mxCell>
        <mxCell id="5B_pEfnTFyZf6bQihWn--122" value="age" style="text;html=1;align=center;verticalAlign=middle;resizable=0;points=[];autosize=1;strokeColor=none;fillColor=none;fontSize=20;fontFamily=Verdana;" parent="1" vertex="1">
          <mxGeometry x="-190.5" y="2948" width="54" height="36" as="geometry" />
        </mxCell>
        <mxCell id="5B_pEfnTFyZf6bQihWn--123" value="Integer&lt;br&gt;54" style="whiteSpace=wrap;html=1;sketch=1;hachureGap=4;jiggle=2;curveFitting=1;fontFamily=Verdana;verticalAlign=top;" parent="1" vertex="1">
          <mxGeometry x="-83" y="2967" width="111" height="55" as="geometry" />
        </mxCell>
        <mxCell id="5B_pEfnTFyZf6bQihWn--124" style="edgeStyle=none;curved=1;rounded=0;sketch=1;hachureGap=4;jiggle=2;curveFitting=1;orthogonalLoop=1;jettySize=auto;html=1;exitX=0;exitY=0.5;exitDx=0;exitDy=0;entryX=1.028;entryY=0.454;entryDx=0;entryDy=0;entryPerimeter=0;fontFamily=Architects Daughter;fontSource=https%3A%2F%2Ffonts.googleapis.com%2Fcss%3Ffamily%3DArchitects%2BDaughter;fontSize=16;startSize=14;endArrow=open;endSize=14;sourcePerimeterSpacing=8;targetPerimeterSpacing=8;" parent="1" source="5B_pEfnTFyZf6bQihWn--123" target="5B_pEfnTFyZf6bQihWn--122" edge="1">
          <mxGeometry relative="1" as="geometry" />
        </mxCell>
        <mxCell id="5B_pEfnTFyZf6bQihWn--125" value="200" style="text;html=1;align=center;verticalAlign=middle;resizable=0;points=[];autosize=1;strokeColor=none;fillColor=none;fontSize=20;fontFamily=Verdana;" parent="1" vertex="1">
          <mxGeometry x="-192" y="2992" width="56" height="36" as="geometry" />
        </mxCell>
        <mxCell id="5B_pEfnTFyZf6bQihWn--126" value="refCount" style="text;html=1;align=center;verticalAlign=middle;resizable=0;points=[];autosize=1;strokeColor=none;fillColor=none;fontSize=20;fontFamily=Verdana;" parent="1" vertex="1">
          <mxGeometry x="-217.5" y="3031" width="105" height="36" as="geometry" />
        </mxCell>
        <mxCell id="5B_pEfnTFyZf6bQihWn--127" value="minor GC" style="text;html=1;align=center;verticalAlign=middle;resizable=0;points=[];autosize=1;strokeColor=none;fillColor=none;fontSize=20;fontFamily=Verdana;" parent="1" vertex="1">
          <mxGeometry x="-104.5" y="3105" width="113" height="36" as="geometry" />
        </mxCell>
        <mxCell id="5B_pEfnTFyZf6bQihWn--128" value="customerLoc2" style="text;html=1;align=center;verticalAlign=middle;resizable=0;points=[];autosize=1;strokeColor=none;fillColor=none;fontSize=20;fontFamily=Architects Daughter;fontSource=https%3A%2F%2Ffonts.googleapis.com%2Fcss%3Ffamily%3DArchitects%2BDaughter;" parent="1" vertex="1">
          <mxGeometry x="-592" y="2815.5" width="157" height="36" as="geometry" />
        </mxCell>
        <mxCell id="5B_pEfnTFyZf6bQihWn--129" style="edgeStyle=none;curved=1;rounded=0;sketch=1;hachureGap=4;jiggle=2;curveFitting=1;orthogonalLoop=1;jettySize=auto;html=1;exitX=0;exitY=0.5;exitDx=0;exitDy=0;entryX=1;entryY=0.468;entryDx=0;entryDy=0;entryPerimeter=0;fontFamily=Architects Daughter;fontSource=https%3A%2F%2Ffonts.googleapis.com%2Fcss%3Ffamily%3DArchitects%2BDaughter;fontSize=16;startSize=14;endArrow=open;endSize=14;sourcePerimeterSpacing=8;targetPerimeterSpacing=8;" parent="1" source="5B_pEfnTFyZf6bQihWn--113" target="5B_pEfnTFyZf6bQihWn--128" edge="1">
          <mxGeometry relative="1" as="geometry" />
        </mxCell>
        <mxCell id="5B_pEfnTFyZf6bQihWn--130" value="STACK" style="rounded=0;whiteSpace=wrap;html=1;sketch=1;hachureGap=4;jiggle=2;curveFitting=1;fontFamily=Verdana;horizontal=1;verticalAlign=top;" parent="1" vertex="1">
          <mxGeometry x="-566" y="2882" width="215" height="229" as="geometry" />
        </mxCell>
        <mxCell id="5B_pEfnTFyZf6bQihWn--131" value="customerLoc" style="text;html=1;align=center;verticalAlign=middle;resizable=0;points=[];autosize=1;strokeColor=none;fillColor=none;fontSize=20;fontFamily=Architects Daughter;fontSource=https%3A%2F%2Ffonts.googleapis.com%2Fcss%3Ffamily%3DArchitects%2BDaughter;" parent="1" vertex="1">
          <mxGeometry x="-562" y="2916" width="145" height="36" as="geometry" />
        </mxCell>
        <mxCell id="5B_pEfnTFyZf6bQihWn--132" value="Customer" style="whiteSpace=wrap;html=1;sketch=1;hachureGap=4;jiggle=2;curveFitting=1;fontFamily=Verdana;verticalAlign=top;" parent="1" vertex="1">
          <mxGeometry x="144" y="2822" width="112" height="250" as="geometry" />
        </mxCell>
        <mxCell id="5B_pEfnTFyZf6bQihWn--133" value="name" style="text;html=1;align=center;verticalAlign=middle;resizable=0;points=[];autosize=1;strokeColor=none;fillColor=none;fontSize=20;fontFamily=Verdana;" parent="1" vertex="1">
          <mxGeometry x="156" y="2854" width="74" height="36" as="geometry" />
        </mxCell>
        <mxCell id="5B_pEfnTFyZf6bQihWn--134" value="surname" style="text;html=1;align=center;verticalAlign=middle;resizable=0;points=[];autosize=1;strokeColor=none;fillColor=none;fontSize=20;fontFamily=Verdana;" parent="1" vertex="1">
          <mxGeometry x="146.5" y="2895" width="106" height="36" as="geometry" />
        </mxCell>
        <mxCell id="5B_pEfnTFyZf6bQihWn--135" value="String&lt;br&gt;&quot;ali&quot;" style="whiteSpace=wrap;html=1;sketch=1;hachureGap=4;jiggle=2;curveFitting=1;fontFamily=Verdana;verticalAlign=top;" parent="1" vertex="1">
          <mxGeometry x="276" y="2822" width="111" height="55" as="geometry" />
        </mxCell>
        <mxCell id="5B_pEfnTFyZf6bQihWn--137" value="String&lt;br&gt;&quot;veli&quot;" style="whiteSpace=wrap;html=1;sketch=1;hachureGap=4;jiggle=2;curveFitting=1;fontFamily=Verdana;verticalAlign=top;" parent="1" vertex="1">
          <mxGeometry x="280" y="2885.5" width="111" height="55" as="geometry" />
        </mxCell>
        <mxCell id="5B_pEfnTFyZf6bQihWn--138" style="edgeStyle=none;curved=1;rounded=0;sketch=1;hachureGap=4;jiggle=2;curveFitting=1;orthogonalLoop=1;jettySize=auto;html=1;exitX=0;exitY=0.5;exitDx=0;exitDy=0;entryX=0.988;entryY=0.613;entryDx=0;entryDy=0;entryPerimeter=0;fontFamily=Architects Daughter;fontSource=https%3A%2F%2Ffonts.googleapis.com%2Fcss%3Ffamily%3DArchitects%2BDaughter;fontSize=16;startSize=14;endArrow=open;endSize=14;sourcePerimeterSpacing=8;targetPerimeterSpacing=8;" parent="1" source="5B_pEfnTFyZf6bQihWn--137" target="5B_pEfnTFyZf6bQihWn--134" edge="1">
          <mxGeometry relative="1" as="geometry" />
        </mxCell>
        <mxCell id="5B_pEfnTFyZf6bQihWn--139" value="age" style="text;html=1;align=center;verticalAlign=middle;resizable=0;points=[];autosize=1;strokeColor=none;fillColor=none;fontSize=20;fontFamily=Verdana;" parent="1" vertex="1">
          <mxGeometry x="172.5" y="2948" width="54" height="36" as="geometry" />
        </mxCell>
        <mxCell id="5B_pEfnTFyZf6bQihWn--140" value="Integer&lt;br&gt;30" style="whiteSpace=wrap;html=1;sketch=1;hachureGap=4;jiggle=2;curveFitting=1;fontFamily=Verdana;verticalAlign=top;" parent="1" vertex="1">
          <mxGeometry x="280" y="2967" width="111" height="55" as="geometry" />
        </mxCell>
        <mxCell id="5B_pEfnTFyZf6bQihWn--141" style="edgeStyle=none;curved=1;rounded=0;sketch=1;hachureGap=4;jiggle=2;curveFitting=1;orthogonalLoop=1;jettySize=auto;html=1;exitX=0;exitY=0.5;exitDx=0;exitDy=0;entryX=1.028;entryY=0.454;entryDx=0;entryDy=0;entryPerimeter=0;fontFamily=Architects Daughter;fontSource=https%3A%2F%2Ffonts.googleapis.com%2Fcss%3Ffamily%3DArchitects%2BDaughter;fontSize=16;startSize=14;endArrow=open;endSize=14;sourcePerimeterSpacing=8;targetPerimeterSpacing=8;" parent="1" source="5B_pEfnTFyZf6bQihWn--140" target="5B_pEfnTFyZf6bQihWn--139" edge="1">
          <mxGeometry relative="1" as="geometry" />
        </mxCell>
        <mxCell id="5B_pEfnTFyZf6bQihWn--142" value="170" style="text;html=1;align=center;verticalAlign=middle;resizable=0;points=[];autosize=1;strokeColor=none;fillColor=none;fontSize=20;fontFamily=Verdana;" parent="1" vertex="1">
          <mxGeometry x="171" y="2992" width="56" height="36" as="geometry" />
        </mxCell>
        <mxCell id="5B_pEfnTFyZf6bQihWn--143" value="refCount" style="text;html=1;align=center;verticalAlign=middle;resizable=0;points=[];autosize=1;strokeColor=none;fillColor=none;fontSize=20;fontFamily=Verdana;" parent="1" vertex="1">
          <mxGeometry x="145.5" y="3031" width="105" height="36" as="geometry" />
        </mxCell>
        <mxCell id="5B_pEfnTFyZf6bQihWn--145" style="edgeStyle=none;curved=1;rounded=0;sketch=1;hachureGap=4;jiggle=2;curveFitting=1;orthogonalLoop=1;jettySize=auto;html=1;exitX=0;exitY=0.5;exitDx=0;exitDy=0;entryX=1.023;entryY=0.513;entryDx=0;entryDy=0;entryPerimeter=0;fontFamily=Architects Daughter;fontSource=https%3A%2F%2Ffonts.googleapis.com%2Fcss%3Ffamily%3DArchitects%2BDaughter;fontSize=16;startSize=14;endArrow=open;endSize=14;sourcePerimeterSpacing=8;targetPerimeterSpacing=8;" parent="1" source="5B_pEfnTFyZf6bQihWn--132" target="5B_pEfnTFyZf6bQihWn--131" edge="1">
          <mxGeometry relative="1" as="geometry" />
        </mxCell>
        <mxCell id="5B_pEfnTFyZf6bQihWn--146" value="STACK" style="rounded=0;whiteSpace=wrap;html=1;sketch=1;hachureGap=4;jiggle=2;curveFitting=1;fontFamily=Verdana;horizontal=1;verticalAlign=top;" parent="1" vertex="1">
          <mxGeometry x="-555.5" y="2967" width="178" height="131" as="geometry" />
        </mxCell>
        <mxCell id="5B_pEfnTFyZf6bQihWn--147" value="customerLoc" style="text;html=1;align=center;verticalAlign=middle;resizable=0;points=[];autosize=1;strokeColor=none;fillColor=none;fontSize=20;fontFamily=Architects Daughter;fontSource=https%3A%2F%2Ffonts.googleapis.com%2Fcss%3Ffamily%3DArchitects%2BDaughter;" parent="1" vertex="1">
          <mxGeometry x="-546" y="2992" width="145" height="36" as="geometry" />
        </mxCell>
        <mxCell id="5B_pEfnTFyZf6bQihWn--148" style="edgeStyle=none;curved=1;rounded=0;sketch=1;hachureGap=4;jiggle=2;curveFitting=1;orthogonalLoop=1;jettySize=auto;html=1;exitX=0;exitY=0.5;exitDx=0;exitDy=0;fontFamily=Architects Daughter;fontSource=https%3A%2F%2Ffonts.googleapis.com%2Fcss%3Ffamily%3DArchitects%2BDaughter;fontSize=16;startSize=14;endArrow=open;endSize=14;sourcePerimeterSpacing=8;targetPerimeterSpacing=8;" parent="1" source="5B_pEfnTFyZf6bQihWn--132" target="5B_pEfnTFyZf6bQihWn--147" edge="1">
          <mxGeometry relative="1" as="geometry" />
        </mxCell>
        <mxCell id="5B_pEfnTFyZf6bQihWn--149" value="String&lt;br&gt;&quot;test&quot;" style="whiteSpace=wrap;html=1;sketch=1;hachureGap=4;jiggle=2;curveFitting=1;fontFamily=Verdana;verticalAlign=top;" parent="1" vertex="1">
          <mxGeometry x="283" y="3036" width="111" height="55" as="geometry" />
        </mxCell>
        <mxCell id="5B_pEfnTFyZf6bQihWn--150" style="edgeStyle=none;curved=1;rounded=0;sketch=1;hachureGap=4;jiggle=2;curveFitting=1;orthogonalLoop=1;jettySize=auto;html=1;exitX=0;exitY=0.5;exitDx=0;exitDy=0;entryX=1.047;entryY=0.597;entryDx=0;entryDy=0;entryPerimeter=0;fontFamily=Architects Daughter;fontSource=https%3A%2F%2Ffonts.googleapis.com%2Fcss%3Ffamily%3DArchitects%2BDaughter;fontSize=16;startSize=14;endArrow=open;endSize=14;sourcePerimeterSpacing=8;targetPerimeterSpacing=8;" parent="1" source="5B_pEfnTFyZf6bQihWn--149" target="5B_pEfnTFyZf6bQihWn--133" edge="1">
          <mxGeometry relative="1" as="geometry" />
        </mxCell>
        <mxCell id="5B_pEfnTFyZf6bQihWn--151" value="EDEN" style="rounded=0;whiteSpace=wrap;html=1;sketch=1;hachureGap=4;jiggle=2;curveFitting=1;fontFamily=Verdana;" parent="1" vertex="1">
          <mxGeometry x="-654" y="3297" width="498" height="288" as="geometry" />
        </mxCell>
        <mxCell id="5B_pEfnTFyZf6bQihWn--152" value="OLD" style="rounded=0;whiteSpace=wrap;html=1;sketch=1;hachureGap=4;jiggle=2;curveFitting=1;fontFamily=Verdana;" parent="1" vertex="1">
          <mxGeometry x="88" y="3297" width="647" height="288" as="geometry" />
        </mxCell>
        <mxCell id="5B_pEfnTFyZf6bQihWn--153" value="S0" style="rounded=0;whiteSpace=wrap;html=1;sketch=1;hachureGap=4;jiggle=2;curveFitting=1;fontFamily=Verdana;" parent="1" vertex="1">
          <mxGeometry x="-140.5" y="3297" width="92" height="288" as="geometry" />
        </mxCell>
        <mxCell id="5B_pEfnTFyZf6bQihWn--154" value="S1" style="rounded=0;whiteSpace=wrap;html=1;sketch=1;hachureGap=4;jiggle=2;curveFitting=1;fontFamily=Verdana;" parent="1" vertex="1">
          <mxGeometry x="-22" y="3297" width="92" height="288" as="geometry" />
        </mxCell>
        <mxCell id="5B_pEfnTFyZf6bQihWn--158" value="&lt;font face=&quot;Verdana&quot;&gt;Customer&lt;br&gt;8&lt;br&gt;&lt;/font&gt;" style="whiteSpace=wrap;html=1;sketch=1;hachureGap=4;jiggle=2;curveFitting=1;fontFamily=Architects Daughter;fontSource=https%3A%2F%2Ffonts.googleapis.com%2Fcss%3Ffamily%3DArchitects%2BDaughter;fillColor=#60a917;fontColor=#ffffff;strokeColor=#2D7600;" parent="1" vertex="1">
          <mxGeometry x="96" y="3303" width="79" height="60" as="geometry" />
        </mxCell>
        <mxCell id="5B_pEfnTFyZf6bQihWn--163" value="&lt;font face=&quot;Verdana&quot;&gt;Customer&lt;br&gt;4&lt;br&gt;&lt;/font&gt;" style="whiteSpace=wrap;html=1;sketch=1;hachureGap=4;jiggle=2;curveFitting=1;fontFamily=Architects Daughter;fontSource=https%3A%2F%2Ffonts.googleapis.com%2Fcss%3Ffamily%3DArchitects%2BDaughter;fillColor=#60a917;fontColor=#ffffff;strokeColor=#2D7600;" parent="1" vertex="1">
          <mxGeometry x="-133" y="3308" width="79" height="60" as="geometry" />
        </mxCell>
        <mxCell id="5B_pEfnTFyZf6bQihWn--164" value="&lt;font face=&quot;Verdana&quot;&gt;Customer&lt;br&gt;4&lt;br&gt;&lt;/font&gt;" style="whiteSpace=wrap;html=1;sketch=1;hachureGap=4;jiggle=2;curveFitting=1;fontFamily=Architects Daughter;fontSource=https%3A%2F%2Ffonts.googleapis.com%2Fcss%3Ffamily%3DArchitects%2BDaughter;fillColor=#60a917;fontColor=#ffffff;strokeColor=#2D7600;" parent="1" vertex="1">
          <mxGeometry x="-134" y="3374" width="79" height="60" as="geometry" />
        </mxCell>
        <mxCell id="5B_pEfnTFyZf6bQihWn--166" value="TH1" style="ellipse;whiteSpace=wrap;html=1;sketch=1;hachureGap=4;jiggle=2;curveFitting=1;fontFamily=Verdana;" parent="1" vertex="1">
          <mxGeometry x="-651" y="3188" width="80" height="80" as="geometry" />
        </mxCell>
        <mxCell id="5B_pEfnTFyZf6bQihWn--167" value="TH2" style="ellipse;whiteSpace=wrap;html=1;sketch=1;hachureGap=4;jiggle=2;curveFitting=1;fontFamily=Verdana;" parent="1" vertex="1">
          <mxGeometry x="-539" y="3188" width="80" height="80" as="geometry" />
        </mxCell>
        <mxCell id="5B_pEfnTFyZf6bQihWn--168" value="&lt;font face=&quot;Verdana&quot;&gt;CPU&lt;/font&gt;" style="whiteSpace=wrap;html=1;sketch=1;hachureGap=4;jiggle=2;curveFitting=1;fontFamily=Architects Daughter;fontSource=https%3A%2F%2Ffonts.googleapis.com%2Fcss%3Ffamily%3DArchitects%2BDaughter;" parent="1" vertex="1">
          <mxGeometry x="-1273" y="3349" width="284" height="196" as="geometry" />
        </mxCell>
        <mxCell id="5B_pEfnTFyZf6bQihWn--169" value="CORE" style="whiteSpace=wrap;html=1;sketch=1;hachureGap=4;jiggle=2;curveFitting=1;fontFamily=Verdana;" parent="1" vertex="1">
          <mxGeometry x="-1259" y="3368" width="120" height="60" as="geometry" />
        </mxCell>
        <mxCell id="5B_pEfnTFyZf6bQihWn--170" value="CORE" style="whiteSpace=wrap;html=1;sketch=1;hachureGap=4;jiggle=2;curveFitting=1;fontFamily=Verdana;" parent="1" vertex="1">
          <mxGeometry x="-1118" y="3370" width="120" height="60" as="geometry" />
        </mxCell>
        <mxCell id="5B_pEfnTFyZf6bQihWn--171" value="CORE" style="whiteSpace=wrap;html=1;sketch=1;hachureGap=4;jiggle=2;curveFitting=1;fontFamily=Verdana;" parent="1" vertex="1">
          <mxGeometry x="-1259" y="3465" width="120" height="60" as="geometry" />
        </mxCell>
        <mxCell id="5B_pEfnTFyZf6bQihWn--172" value="CORE" style="whiteSpace=wrap;html=1;sketch=1;hachureGap=4;jiggle=2;curveFitting=1;fontFamily=Verdana;" parent="1" vertex="1">
          <mxGeometry x="-1118" y="3467" width="120" height="60" as="geometry" />
        </mxCell>
        <mxCell id="5B_pEfnTFyZf6bQihWn--174" value="TH1" style="ellipse;whiteSpace=wrap;html=1;sketch=1;hachureGap=4;jiggle=2;curveFitting=1;fontFamily=Verdana;" parent="1" vertex="1">
          <mxGeometry x="-1377" y="3139" width="80" height="80" as="geometry" />
        </mxCell>
        <mxCell id="5B_pEfnTFyZf6bQihWn--175" value="CODE" style="whiteSpace=wrap;html=1;sketch=1;hachureGap=4;jiggle=2;curveFitting=1;fontFamily=Architects Daughter;fontSource=https%3A%2F%2Ffonts.googleapis.com%2Fcss%3Ffamily%3DArchitects%2BDaughter;" parent="1" vertex="1">
          <mxGeometry x="-1393" y="3067" width="120" height="60" as="geometry" />
        </mxCell>
        <mxCell id="5B_pEfnTFyZf6bQihWn--176" value="OS" style="whiteSpace=wrap;html=1;sketch=1;hachureGap=4;jiggle=2;curveFitting=1;fontFamily=Architects Daughter;fontSource=https%3A%2F%2Ffonts.googleapis.com%2Fcss%3Ffamily%3DArchitects%2BDaughter;" parent="1" vertex="1">
          <mxGeometry x="-1393" y="3235" width="552" height="84" as="geometry" />
        </mxCell>
        <mxCell id="5B_pEfnTFyZf6bQihWn--177" value="TH1" style="ellipse;whiteSpace=wrap;html=1;sketch=1;hachureGap=4;jiggle=2;curveFitting=1;fontFamily=Verdana;" parent="1" vertex="1">
          <mxGeometry x="-1234" y="3139" width="80" height="80" as="geometry" />
        </mxCell>
        <mxCell id="5B_pEfnTFyZf6bQihWn--178" value="CODE" style="whiteSpace=wrap;html=1;sketch=1;hachureGap=4;jiggle=2;curveFitting=1;fontFamily=Architects Daughter;fontSource=https%3A%2F%2Ffonts.googleapis.com%2Fcss%3Ffamily%3DArchitects%2BDaughter;" parent="1" vertex="1">
          <mxGeometry x="-1250" y="3067" width="120" height="60" as="geometry" />
        </mxCell>
        <mxCell id="5B_pEfnTFyZf6bQihWn--179" value="TH1" style="ellipse;whiteSpace=wrap;html=1;sketch=1;hachureGap=4;jiggle=2;curveFitting=1;fontFamily=Verdana;" parent="1" vertex="1">
          <mxGeometry x="-1090" y="3139" width="80" height="80" as="geometry" />
        </mxCell>
        <mxCell id="5B_pEfnTFyZf6bQihWn--180" value="CODE" style="whiteSpace=wrap;html=1;sketch=1;hachureGap=4;jiggle=2;curveFitting=1;fontFamily=Architects Daughter;fontSource=https%3A%2F%2Ffonts.googleapis.com%2Fcss%3Ffamily%3DArchitects%2BDaughter;" parent="1" vertex="1">
          <mxGeometry x="-1106" y="3067" width="120" height="60" as="geometry" />
        </mxCell>
        <mxCell id="5B_pEfnTFyZf6bQihWn--181" value="TH1" style="ellipse;whiteSpace=wrap;html=1;sketch=1;hachureGap=4;jiggle=2;curveFitting=1;fontFamily=Verdana;" parent="1" vertex="1">
          <mxGeometry x="-961" y="3141" width="80" height="80" as="geometry" />
        </mxCell>
        <mxCell id="5B_pEfnTFyZf6bQihWn--182" value="CODE" style="whiteSpace=wrap;html=1;sketch=1;hachureGap=4;jiggle=2;curveFitting=1;fontFamily=Architects Daughter;fontSource=https%3A%2F%2Ffonts.googleapis.com%2Fcss%3Ffamily%3DArchitects%2BDaughter;" parent="1" vertex="1">
          <mxGeometry x="-977" y="3069" width="120" height="60" as="geometry" />
        </mxCell>
        <mxCell id="5B_pEfnTFyZf6bQihWn--183" value="TH1" style="ellipse;whiteSpace=wrap;html=1;sketch=1;hachureGap=4;jiggle=2;curveFitting=1;fontFamily=Verdana;" parent="1" vertex="1">
          <mxGeometry x="-1377" y="2971" width="80" height="80" as="geometry" />
        </mxCell>
        <mxCell id="5B_pEfnTFyZf6bQihWn--184" value="CODE" style="whiteSpace=wrap;html=1;sketch=1;hachureGap=4;jiggle=2;curveFitting=1;fontFamily=Architects Daughter;fontSource=https%3A%2F%2Ffonts.googleapis.com%2Fcss%3Ffamily%3DArchitects%2BDaughter;" parent="1" vertex="1">
          <mxGeometry x="-1393" y="2899" width="120" height="60" as="geometry" />
        </mxCell>
        <mxCell id="5B_pEfnTFyZf6bQihWn--185" value="TH1" style="ellipse;whiteSpace=wrap;html=1;sketch=1;hachureGap=4;jiggle=2;curveFitting=1;fontFamily=Verdana;" parent="1" vertex="1">
          <mxGeometry x="-1234" y="2971" width="80" height="80" as="geometry" />
        </mxCell>
        <mxCell id="5B_pEfnTFyZf6bQihWn--186" value="CODE" style="whiteSpace=wrap;html=1;sketch=1;hachureGap=4;jiggle=2;curveFitting=1;fontFamily=Architects Daughter;fontSource=https%3A%2F%2Ffonts.googleapis.com%2Fcss%3Ffamily%3DArchitects%2BDaughter;" parent="1" vertex="1">
          <mxGeometry x="-1250" y="2899" width="120" height="60" as="geometry" />
        </mxCell>
        <mxCell id="5B_pEfnTFyZf6bQihWn--187" value="TH1" style="ellipse;whiteSpace=wrap;html=1;sketch=1;hachureGap=4;jiggle=2;curveFitting=1;fontFamily=Verdana;" parent="1" vertex="1">
          <mxGeometry x="-1090" y="2971" width="80" height="80" as="geometry" />
        </mxCell>
        <mxCell id="5B_pEfnTFyZf6bQihWn--188" value="CODE" style="whiteSpace=wrap;html=1;sketch=1;hachureGap=4;jiggle=2;curveFitting=1;fontFamily=Architects Daughter;fontSource=https%3A%2F%2Ffonts.googleapis.com%2Fcss%3Ffamily%3DArchitects%2BDaughter;" parent="1" vertex="1">
          <mxGeometry x="-1106" y="2899" width="120" height="60" as="geometry" />
        </mxCell>
        <mxCell id="5B_pEfnTFyZf6bQihWn--189" value="TH1" style="ellipse;whiteSpace=wrap;html=1;sketch=1;hachureGap=4;jiggle=2;curveFitting=1;fontFamily=Verdana;" parent="1" vertex="1">
          <mxGeometry x="-961" y="2973" width="80" height="80" as="geometry" />
        </mxCell>
        <mxCell id="5B_pEfnTFyZf6bQihWn--190" value="CODE" style="whiteSpace=wrap;html=1;sketch=1;hachureGap=4;jiggle=2;curveFitting=1;fontFamily=Architects Daughter;fontSource=https%3A%2F%2Ffonts.googleapis.com%2Fcss%3Ffamily%3DArchitects%2BDaughter;" parent="1" vertex="1">
          <mxGeometry x="-977" y="2901" width="120" height="60" as="geometry" />
        </mxCell>
        <mxCell id="5B_pEfnTFyZf6bQihWn--191" value="TH3" style="ellipse;whiteSpace=wrap;html=1;sketch=1;hachureGap=4;jiggle=2;curveFitting=1;fontFamily=Verdana;" parent="1" vertex="1">
          <mxGeometry x="-435" y="3188" width="80" height="80" as="geometry" />
        </mxCell>
        <mxCell id="5B_pEfnTFyZf6bQihWn--192" value="TH4" style="ellipse;whiteSpace=wrap;html=1;sketch=1;hachureGap=4;jiggle=2;curveFitting=1;fontFamily=Verdana;" parent="1" vertex="1">
          <mxGeometry x="-322" y="3190" width="80" height="80" as="geometry" />
        </mxCell>
        <mxCell id="5B_pEfnTFyZf6bQihWn--193" value="TLAB" style="text;html=1;align=center;verticalAlign=middle;resizable=0;points=[];autosize=1;strokeColor=none;fillColor=none;fontSize=20;fontFamily=Architects Daughter;fontSource=https%3A%2F%2Ffonts.googleapis.com%2Fcss%3Ffamily%3DArchitects%2BDaughter;" parent="1" vertex="1">
          <mxGeometry x="-729" y="3320" width="71" height="36" as="geometry" />
        </mxCell>
        <mxCell id="5B_pEfnTFyZf6bQihWn--194" value="TH1 MEM" style="whiteSpace=wrap;html=1;sketch=1;hachureGap=4;jiggle=2;curveFitting=1;fontFamily=Verdana;" parent="1" vertex="1">
          <mxGeometry x="-646" y="3310" width="70" height="120" as="geometry" />
        </mxCell>
        <mxCell id="5B_pEfnTFyZf6bQihWn--195" value="TH2 MEM" style="whiteSpace=wrap;html=1;sketch=1;hachureGap=4;jiggle=2;curveFitting=1;fontFamily=Verdana;" parent="1" vertex="1">
          <mxGeometry x="-534" y="3310" width="70" height="120" as="geometry" />
        </mxCell>
        <mxCell id="5B_pEfnTFyZf6bQihWn--196" value="TH3 MEM" style="whiteSpace=wrap;html=1;sketch=1;hachureGap=4;jiggle=2;curveFitting=1;fontFamily=Verdana;" parent="1" vertex="1">
          <mxGeometry x="-425" y="3308" width="70" height="120" as="geometry" />
        </mxCell>
        <mxCell id="5B_pEfnTFyZf6bQihWn--197" value="TH4 MEM" style="whiteSpace=wrap;html=1;sketch=1;hachureGap=4;jiggle=2;curveFitting=1;fontFamily=Verdana;" parent="1" vertex="1">
          <mxGeometry x="-308" y="3310" width="70" height="120" as="geometry" />
        </mxCell>
        <mxCell id="5B_pEfnTFyZf6bQihWn--198" value="-Xms4g = min 4gb al&lt;br&gt;-Xmx4g = max 4gb al&lt;div&gt;-Xmn2g&amp;nbsp; = young 2gb al&lt;/div&gt;" style="text;html=1;align=center;verticalAlign=middle;resizable=0;points=[];autosize=1;strokeColor=none;fillColor=none;fontSize=20;fontFamily=Verdana;" parent="1" vertex="1">
          <mxGeometry x="-338" y="3656" width="266" height="84" as="geometry" />
        </mxCell>
        <mxCell id="5B_pEfnTFyZf6bQihWn--199" value="" style="rounded=0;whiteSpace=wrap;html=1;sketch=1;hachureGap=4;jiggle=2;curveFitting=1;fontFamily=Verdana;" parent="1" vertex="1">
          <mxGeometry x="-729" y="3774" width="724" height="409" as="geometry" />
        </mxCell>
        <mxCell id="5B_pEfnTFyZf6bQihWn--200" value="" style="whiteSpace=wrap;html=1;sketch=1;hachureGap=4;jiggle=2;curveFitting=1;fontFamily=Architects Daughter;fontSource=https%3A%2F%2Ffonts.googleapis.com%2Fcss%3Ffamily%3DArchitects%2BDaughter;fillColor=#f0a30a;fontColor=#000000;strokeColor=#BD7000;" parent="1" vertex="1">
          <mxGeometry x="-708" y="3798" width="120" height="107" as="geometry" />
        </mxCell>
        <mxCell id="5B_pEfnTFyZf6bQihWn--201" value="" style="whiteSpace=wrap;html=1;sketch=1;hachureGap=4;jiggle=2;curveFitting=1;fontFamily=Architects Daughter;fontSource=https%3A%2F%2Ffonts.googleapis.com%2Fcss%3Ffamily%3DArchitects%2BDaughter;fillColor=#f0a30a;fontColor=#000000;strokeColor=#BD7000;" parent="1" vertex="1">
          <mxGeometry x="-562" y="3798" width="120" height="107" as="geometry" />
        </mxCell>
        <mxCell id="5B_pEfnTFyZf6bQihWn--202" value="" style="whiteSpace=wrap;html=1;sketch=1;hachureGap=4;jiggle=2;curveFitting=1;fontFamily=Architects Daughter;fontSource=https%3A%2F%2Ffonts.googleapis.com%2Fcss%3Ffamily%3DArchitects%2BDaughter;" parent="1" vertex="1">
          <mxGeometry x="-412" y="3798" width="120" height="107" as="geometry" />
        </mxCell>
        <mxCell id="5B_pEfnTFyZf6bQihWn--203" value="" style="whiteSpace=wrap;html=1;sketch=1;hachureGap=4;jiggle=2;curveFitting=1;fontFamily=Architects Daughter;fontSource=https%3A%2F%2Ffonts.googleapis.com%2Fcss%3Ffamily%3DArchitects%2BDaughter;" parent="1" vertex="1">
          <mxGeometry x="-269" y="3798" width="120" height="107" as="geometry" />
        </mxCell>
        <mxCell id="5B_pEfnTFyZf6bQihWn--204" value="" style="whiteSpace=wrap;html=1;sketch=1;hachureGap=4;jiggle=2;curveFitting=1;fontFamily=Architects Daughter;fontSource=https%3A%2F%2Ffonts.googleapis.com%2Fcss%3Ffamily%3DArchitects%2BDaughter;" parent="1" vertex="1">
          <mxGeometry x="-132" y="3795" width="120" height="107" as="geometry" />
        </mxCell>
        <mxCell id="5B_pEfnTFyZf6bQihWn--205" value="" style="whiteSpace=wrap;html=1;sketch=1;hachureGap=4;jiggle=2;curveFitting=1;fontFamily=Architects Daughter;fontSource=https%3A%2F%2Ffonts.googleapis.com%2Fcss%3Ffamily%3DArchitects%2BDaughter;fillColor=#f0a30a;fontColor=#000000;strokeColor=#BD7000;" parent="1" vertex="1">
          <mxGeometry x="-708" y="3920" width="120" height="107" as="geometry" />
        </mxCell>
        <mxCell id="5B_pEfnTFyZf6bQihWn--206" value="" style="whiteSpace=wrap;html=1;sketch=1;hachureGap=4;jiggle=2;curveFitting=1;fontFamily=Architects Daughter;fontSource=https%3A%2F%2Ffonts.googleapis.com%2Fcss%3Ffamily%3DArchitects%2BDaughter;fillColor=#1ba1e2;fontColor=#ffffff;strokeColor=#006EAF;" parent="1" vertex="1">
          <mxGeometry x="-562" y="3920" width="120" height="107" as="geometry" />
        </mxCell>
        <mxCell id="5B_pEfnTFyZf6bQihWn--207" value="" style="whiteSpace=wrap;html=1;sketch=1;hachureGap=4;jiggle=2;curveFitting=1;fontFamily=Architects Daughter;fontSource=https%3A%2F%2Ffonts.googleapis.com%2Fcss%3Ffamily%3DArchitects%2BDaughter;" parent="1" vertex="1">
          <mxGeometry x="-407" y="3920" width="120" height="107" as="geometry" />
        </mxCell>
        <mxCell id="5B_pEfnTFyZf6bQihWn--208" value="" style="whiteSpace=wrap;html=1;sketch=1;hachureGap=4;jiggle=2;curveFitting=1;fontFamily=Architects Daughter;fontSource=https%3A%2F%2Ffonts.googleapis.com%2Fcss%3Ffamily%3DArchitects%2BDaughter;" parent="1" vertex="1">
          <mxGeometry x="-269" y="3920" width="120" height="107" as="geometry" />
        </mxCell>
        <mxCell id="5B_pEfnTFyZf6bQihWn--209" value="" style="whiteSpace=wrap;html=1;sketch=1;hachureGap=4;jiggle=2;curveFitting=1;fontFamily=Architects Daughter;fontSource=https%3A%2F%2Ffonts.googleapis.com%2Fcss%3Ffamily%3DArchitects%2BDaughter;" parent="1" vertex="1">
          <mxGeometry x="-132" y="3917" width="120" height="107" as="geometry" />
        </mxCell>
        <mxCell id="5B_pEfnTFyZf6bQihWn--210" value="" style="whiteSpace=wrap;html=1;sketch=1;hachureGap=4;jiggle=2;curveFitting=1;fontFamily=Architects Daughter;fontSource=https%3A%2F%2Ffonts.googleapis.com%2Fcss%3Ffamily%3DArchitects%2BDaughter;fillColor=#f0a30a;fontColor=#000000;strokeColor=#BD7000;" parent="1" vertex="1">
          <mxGeometry x="-708" y="4048" width="120" height="107" as="geometry" />
        </mxCell>
        <mxCell id="5B_pEfnTFyZf6bQihWn--211" value="" style="whiteSpace=wrap;html=1;sketch=1;hachureGap=4;jiggle=2;curveFitting=1;fontFamily=Architects Daughter;fontSource=https%3A%2F%2Ffonts.googleapis.com%2Fcss%3Ffamily%3DArchitects%2BDaughter;fillColor=#1ba1e2;fontColor=#ffffff;strokeColor=#006EAF;" parent="1" vertex="1">
          <mxGeometry x="-562" y="4048" width="120" height="107" as="geometry" />
        </mxCell>
        <mxCell id="5B_pEfnTFyZf6bQihWn--212" value="" style="whiteSpace=wrap;html=1;sketch=1;hachureGap=4;jiggle=2;curveFitting=1;fontFamily=Architects Daughter;fontSource=https%3A%2F%2Ffonts.googleapis.com%2Fcss%3Ffamily%3DArchitects%2BDaughter;" parent="1" vertex="1">
          <mxGeometry x="-412" y="4048" width="120" height="107" as="geometry" />
        </mxCell>
        <mxCell id="5B_pEfnTFyZf6bQihWn--213" value="" style="whiteSpace=wrap;html=1;sketch=1;hachureGap=4;jiggle=2;curveFitting=1;fontFamily=Architects Daughter;fontSource=https%3A%2F%2Ffonts.googleapis.com%2Fcss%3Ffamily%3DArchitects%2BDaughter;fillColor=#f0a30a;fontColor=#000000;strokeColor=#BD7000;" parent="1" vertex="1">
          <mxGeometry x="-269" y="4048" width="120" height="107" as="geometry" />
        </mxCell>
        <mxCell id="5B_pEfnTFyZf6bQihWn--214" value="" style="whiteSpace=wrap;html=1;sketch=1;hachureGap=4;jiggle=2;curveFitting=1;fontFamily=Architects Daughter;fontSource=https%3A%2F%2Ffonts.googleapis.com%2Fcss%3Ffamily%3DArchitects%2BDaughter;fillColor=#f0a30a;fontColor=#000000;strokeColor=#BD7000;" parent="1" vertex="1">
          <mxGeometry x="-132" y="4045" width="120" height="107" as="geometry" />
        </mxCell>
        <mxCell id="5B_pEfnTFyZf6bQihWn--216" value="&lt;font face=&quot;Verdana&quot;&gt;Customer&lt;br&gt;8&lt;br&gt;&lt;/font&gt;" style="whiteSpace=wrap;html=1;sketch=1;hachureGap=4;jiggle=2;curveFitting=1;fontFamily=Architects Daughter;fontSource=https%3A%2F%2Ffonts.googleapis.com%2Fcss%3Ffamily%3DArchitects%2BDaughter;fillColor=#60a917;fontColor=#ffffff;strokeColor=#2D7600;" parent="1" vertex="1">
          <mxGeometry x="280" y="3303" width="79" height="60" as="geometry" />
        </mxCell>
        <mxCell id="5B_pEfnTFyZf6bQihWn--218" value="&lt;font face=&quot;Verdana&quot;&gt;Customer&lt;br&gt;8&lt;br&gt;&lt;/font&gt;" style="whiteSpace=wrap;html=1;sketch=1;hachureGap=4;jiggle=2;curveFitting=1;fontFamily=Architects Daughter;fontSource=https%3A%2F%2Ffonts.googleapis.com%2Fcss%3Ffamily%3DArchitects%2BDaughter;fillColor=#60a917;fontColor=#ffffff;strokeColor=#2D7600;" parent="1" vertex="1">
          <mxGeometry x="462.5" y="3303" width="79" height="60" as="geometry" />
        </mxCell>
        <mxCell id="5B_pEfnTFyZf6bQihWn--219" value="&lt;font face=&quot;Verdana&quot;&gt;Customer&lt;br&gt;8&lt;br&gt;&lt;/font&gt;" style="whiteSpace=wrap;html=1;sketch=1;hachureGap=4;jiggle=2;curveFitting=1;fontFamily=Architects Daughter;fontSource=https%3A%2F%2Ffonts.googleapis.com%2Fcss%3Ffamily%3DArchitects%2BDaughter;fillColor=#60a917;fontColor=#ffffff;strokeColor=#2D7600;" parent="1" vertex="1">
          <mxGeometry x="372" y="3303" width="79" height="60" as="geometry" />
        </mxCell>
        <mxCell id="5B_pEfnTFyZf6bQihWn--220" value="&lt;font face=&quot;Verdana&quot;&gt;Customer&lt;br&gt;8&lt;br&gt;&lt;/font&gt;" style="whiteSpace=wrap;html=1;sketch=1;hachureGap=4;jiggle=2;curveFitting=1;fontFamily=Architects Daughter;fontSource=https%3A%2F%2Ffonts.googleapis.com%2Fcss%3Ffamily%3DArchitects%2BDaughter;fillColor=#60a917;fontColor=#ffffff;strokeColor=#2D7600;" parent="1" vertex="1">
          <mxGeometry x="186" y="3305" width="79" height="60" as="geometry" />
        </mxCell>
        <mxCell id="5B_pEfnTFyZf6bQihWn--222" value="G1" style="text;html=1;align=center;verticalAlign=middle;resizable=0;points=[];autosize=1;strokeColor=none;fillColor=none;fontSize=20;fontFamily=Verdana;" parent="1" vertex="1">
          <mxGeometry x="-455" y="3720" width="46" height="36" as="geometry" />
        </mxCell>
        <mxCell id="5B_pEfnTFyZf6bQihWn--223" value="" style="rounded=0;whiteSpace=wrap;html=1;sketch=1;hachureGap=4;jiggle=2;curveFitting=1;fontFamily=Verdana;" parent="1" vertex="1">
          <mxGeometry x="-729" y="4373" width="724" height="409" as="geometry" />
        </mxCell>
        <mxCell id="5B_pEfnTFyZf6bQihWn--224" value="" style="whiteSpace=wrap;html=1;sketch=1;hachureGap=4;jiggle=2;curveFitting=1;fontFamily=Architects Daughter;fontSource=https%3A%2F%2Ffonts.googleapis.com%2Fcss%3Ffamily%3DArchitects%2BDaughter;" parent="1" vertex="1">
          <mxGeometry x="-708" y="4397" width="120" height="107" as="geometry" />
        </mxCell>
        <mxCell id="5B_pEfnTFyZf6bQihWn--225" value="" style="whiteSpace=wrap;html=1;sketch=1;hachureGap=4;jiggle=2;curveFitting=1;fontFamily=Architects Daughter;fontSource=https%3A%2F%2Ffonts.googleapis.com%2Fcss%3Ffamily%3DArchitects%2BDaughter;" parent="1" vertex="1">
          <mxGeometry x="-562" y="4397" width="205" height="107" as="geometry" />
        </mxCell>
        <mxCell id="5B_pEfnTFyZf6bQihWn--227" value="" style="whiteSpace=wrap;html=1;sketch=1;hachureGap=4;jiggle=2;curveFitting=1;fontFamily=Architects Daughter;fontSource=https%3A%2F%2Ffonts.googleapis.com%2Fcss%3Ffamily%3DArchitects%2BDaughter;" parent="1" vertex="1">
          <mxGeometry x="-344.5" y="4394" width="326.5" height="107" as="geometry" />
        </mxCell>
        <mxCell id="5B_pEfnTFyZf6bQihWn--229" value="" style="whiteSpace=wrap;html=1;sketch=1;hachureGap=4;jiggle=2;curveFitting=1;fontFamily=Architects Daughter;fontSource=https%3A%2F%2Ffonts.googleapis.com%2Fcss%3Ffamily%3DArchitects%2BDaughter;" parent="1" vertex="1">
          <mxGeometry x="-708" y="4519" width="120" height="107" as="geometry" />
        </mxCell>
        <mxCell id="5B_pEfnTFyZf6bQihWn--230" value="" style="whiteSpace=wrap;html=1;sketch=1;hachureGap=4;jiggle=2;curveFitting=1;fontFamily=Architects Daughter;fontSource=https%3A%2F%2Ffonts.googleapis.com%2Fcss%3Ffamily%3DArchitects%2BDaughter;" parent="1" vertex="1">
          <mxGeometry x="-562" y="4519" width="202" height="107" as="geometry" />
        </mxCell>
        <mxCell id="5B_pEfnTFyZf6bQihWn--233" value="" style="whiteSpace=wrap;html=1;sketch=1;hachureGap=4;jiggle=2;curveFitting=1;fontFamily=Architects Daughter;fontSource=https%3A%2F%2Ffonts.googleapis.com%2Fcss%3Ffamily%3DArchitects%2BDaughter;" parent="1" vertex="1">
          <mxGeometry x="-345" y="4519" width="324" height="107" as="geometry" />
        </mxCell>
        <mxCell id="5B_pEfnTFyZf6bQihWn--234" value="" style="whiteSpace=wrap;html=1;sketch=1;hachureGap=4;jiggle=2;curveFitting=1;fontFamily=Architects Daughter;fontSource=https%3A%2F%2Ffonts.googleapis.com%2Fcss%3Ffamily%3DArchitects%2BDaughter;" parent="1" vertex="1">
          <mxGeometry x="-708" y="4647" width="120" height="107" as="geometry" />
        </mxCell>
        <mxCell id="5B_pEfnTFyZf6bQihWn--235" value="" style="whiteSpace=wrap;html=1;sketch=1;hachureGap=4;jiggle=2;curveFitting=1;fontFamily=Architects Daughter;fontSource=https%3A%2F%2Ffonts.googleapis.com%2Fcss%3Ffamily%3DArchitects%2BDaughter;" parent="1" vertex="1">
          <mxGeometry x="-562" y="4647" width="203" height="107" as="geometry" />
        </mxCell>
        <mxCell id="5B_pEfnTFyZf6bQihWn--238" value="" style="whiteSpace=wrap;html=1;sketch=1;hachureGap=4;jiggle=2;curveFitting=1;fontFamily=Architects Daughter;fontSource=https%3A%2F%2Ffonts.googleapis.com%2Fcss%3Ffamily%3DArchitects%2BDaughter;" parent="1" vertex="1">
          <mxGeometry x="-344.5" y="4647" width="323.5" height="107" as="geometry" />
        </mxCell>
        <mxCell id="5B_pEfnTFyZf6bQihWn--239" value="ZGC" style="text;html=1;align=center;verticalAlign=middle;resizable=0;points=[];autosize=1;strokeColor=none;fillColor=none;fontSize=20;fontFamily=Architects Daughter;fontSource=https%3A%2F%2Ffonts.googleapis.com%2Fcss%3Ffamily%3DArchitects%2BDaughter;" parent="1" vertex="1">
          <mxGeometry x="-427.5" y="4304" width="62" height="36" as="geometry" />
        </mxCell>
        <mxCell id="5B_pEfnTFyZf6bQihWn--240" value="" style="edgeStyle=none;orthogonalLoop=1;jettySize=auto;html=1;shape=flexArrow;rounded=1;startSize=8;endSize=8;sketch=1;hachureGap=4;jiggle=2;curveFitting=1;fontFamily=Architects Daughter;fontSource=https%3A%2F%2Ffonts.googleapis.com%2Fcss%3Ffamily%3DArchitects%2BDaughter;fontSize=16;endArrow=open;sourcePerimeterSpacing=8;targetPerimeterSpacing=8;fillColor=#60a917;strokeColor=#2D7600;" parent="1" edge="1">
          <mxGeometry width="140" relative="1" as="geometry">
            <mxPoint x="180" y="3917" as="sourcePoint" />
            <mxPoint x="182" y="4199" as="targetPoint" />
            <Array as="points" />
          </mxGeometry>
        </mxCell>
        <mxCell id="5B_pEfnTFyZf6bQihWn--241" value="" style="edgeStyle=none;orthogonalLoop=1;jettySize=auto;html=1;shape=flexArrow;rounded=1;startSize=8;endSize=8;sketch=1;hachureGap=4;jiggle=2;curveFitting=1;fontFamily=Architects Daughter;fontSource=https%3A%2F%2Ffonts.googleapis.com%2Fcss%3Ffamily%3DArchitects%2BDaughter;fontSize=16;endArrow=open;sourcePerimeterSpacing=8;targetPerimeterSpacing=8;fillColor=#60a917;strokeColor=#2D7600;" parent="1" edge="1">
          <mxGeometry width="140" relative="1" as="geometry">
            <mxPoint x="218" y="3917" as="sourcePoint" />
            <mxPoint x="220" y="4199" as="targetPoint" />
            <Array as="points" />
          </mxGeometry>
        </mxCell>
        <mxCell id="5B_pEfnTFyZf6bQihWn--242" value="" style="edgeStyle=none;orthogonalLoop=1;jettySize=auto;html=1;shape=flexArrow;rounded=1;startSize=8;endSize=8;sketch=1;hachureGap=4;jiggle=2;curveFitting=1;fontFamily=Architects Daughter;fontSource=https%3A%2F%2Ffonts.googleapis.com%2Fcss%3Ffamily%3DArchitects%2BDaughter;fontSize=16;endArrow=open;sourcePerimeterSpacing=8;targetPerimeterSpacing=8;fillColor=#60a917;strokeColor=#2D7600;" parent="1" edge="1">
          <mxGeometry width="140" relative="1" as="geometry">
            <mxPoint x="261" y="3917" as="sourcePoint" />
            <mxPoint x="263" y="4199" as="targetPoint" />
            <Array as="points" />
          </mxGeometry>
        </mxCell>
        <mxCell id="5B_pEfnTFyZf6bQihWn--243" value="" style="edgeStyle=none;orthogonalLoop=1;jettySize=auto;html=1;shape=flexArrow;rounded=1;startSize=8;endSize=8;sketch=1;hachureGap=4;jiggle=2;curveFitting=1;fontFamily=Architects Daughter;fontSource=https%3A%2F%2Ffonts.googleapis.com%2Fcss%3Ffamily%3DArchitects%2BDaughter;fontSize=16;endArrow=open;sourcePerimeterSpacing=8;targetPerimeterSpacing=8;fillColor=#60a917;strokeColor=#2D7600;" parent="1" edge="1">
          <mxGeometry width="140" relative="1" as="geometry">
            <mxPoint x="304" y="3917" as="sourcePoint" />
            <mxPoint x="306" y="4199" as="targetPoint" />
            <Array as="points" />
          </mxGeometry>
        </mxCell>
        <mxCell id="5B_pEfnTFyZf6bQihWn--244" value="" style="edgeStyle=none;orthogonalLoop=1;jettySize=auto;html=1;shape=flexArrow;rounded=1;startSize=8;endSize=8;sketch=1;hachureGap=4;jiggle=2;curveFitting=1;fontFamily=Architects Daughter;fontSource=https%3A%2F%2Ffonts.googleapis.com%2Fcss%3Ffamily%3DArchitects%2BDaughter;fontSize=16;endArrow=open;sourcePerimeterSpacing=8;targetPerimeterSpacing=8;fillColor=#1ba1e2;strokeColor=#006EAF;" parent="1" edge="1">
          <mxGeometry width="140" relative="1" as="geometry">
            <mxPoint x="345" y="3920" as="sourcePoint" />
            <mxPoint x="347" y="4061" as="targetPoint" />
            <Array as="points" />
          </mxGeometry>
        </mxCell>
        <mxCell id="5B_pEfnTFyZf6bQihWn--245" value="" style="edgeStyle=none;orthogonalLoop=1;jettySize=auto;html=1;shape=flexArrow;rounded=1;startSize=8;endSize=8;sketch=1;hachureGap=4;jiggle=2;curveFitting=1;fontFamily=Architects Daughter;fontSource=https%3A%2F%2Ffonts.googleapis.com%2Fcss%3Ffamily%3DArchitects%2BDaughter;fontSize=16;endArrow=open;sourcePerimeterSpacing=8;targetPerimeterSpacing=8;fillColor=#1ba1e2;strokeColor=#006EAF;" parent="1" edge="1">
          <mxGeometry width="140" relative="1" as="geometry">
            <mxPoint x="389" y="3920" as="sourcePoint" />
            <mxPoint x="391" y="4061" as="targetPoint" />
            <Array as="points" />
          </mxGeometry>
        </mxCell>
        <mxCell id="5B_pEfnTFyZf6bQihWn--246" value="" style="edgeStyle=none;orthogonalLoop=1;jettySize=auto;html=1;shape=flexArrow;rounded=1;startSize=8;endSize=8;sketch=1;hachureGap=4;jiggle=2;curveFitting=1;fontFamily=Architects Daughter;fontSource=https%3A%2F%2Ffonts.googleapis.com%2Fcss%3Ffamily%3DArchitects%2BDaughter;fontSize=16;endArrow=open;sourcePerimeterSpacing=8;targetPerimeterSpacing=8;fillColor=#1ba1e2;strokeColor=#006EAF;" parent="1" edge="1">
          <mxGeometry width="140" relative="1" as="geometry">
            <mxPoint x="438" y="3982" as="sourcePoint" />
            <mxPoint x="440" y="4123" as="targetPoint" />
            <Array as="points" />
          </mxGeometry>
        </mxCell>
        <mxCell id="5B_pEfnTFyZf6bQihWn--247" value="" style="edgeStyle=none;orthogonalLoop=1;jettySize=auto;html=1;shape=flexArrow;rounded=1;startSize=8;endSize=8;sketch=1;hachureGap=4;jiggle=2;curveFitting=1;fontFamily=Architects Daughter;fontSource=https%3A%2F%2Ffonts.googleapis.com%2Fcss%3Ffamily%3DArchitects%2BDaughter;fontSize=16;endArrow=open;sourcePerimeterSpacing=8;targetPerimeterSpacing=8;fillColor=#1ba1e2;strokeColor=#006EAF;" parent="1" edge="1">
          <mxGeometry width="140" relative="1" as="geometry">
            <mxPoint x="478" y="3984" as="sourcePoint" />
            <mxPoint x="480" y="4125" as="targetPoint" />
            <Array as="points" />
          </mxGeometry>
        </mxCell>
        <mxCell id="5B_pEfnTFyZf6bQihWn--248" value="" style="edgeStyle=none;orthogonalLoop=1;jettySize=auto;html=1;shape=flexArrow;rounded=1;startSize=8;endSize=8;sketch=1;hachureGap=4;jiggle=2;curveFitting=1;fontFamily=Architects Daughter;fontSource=https%3A%2F%2Ffonts.googleapis.com%2Fcss%3Ffamily%3DArchitects%2BDaughter;fontSize=16;endArrow=open;sourcePerimeterSpacing=8;targetPerimeterSpacing=8;fillColor=#1ba1e2;strokeColor=#006EAF;" parent="1" edge="1">
          <mxGeometry width="140" relative="1" as="geometry">
            <mxPoint x="528" y="4118" as="sourcePoint" />
            <mxPoint x="528" y="4200" as="targetPoint" />
            <Array as="points" />
          </mxGeometry>
        </mxCell>
        <mxCell id="5B_pEfnTFyZf6bQihWn--249" value="" style="edgeStyle=none;orthogonalLoop=1;jettySize=auto;html=1;rounded=0;sketch=1;hachureGap=4;jiggle=2;curveFitting=1;fontFamily=Architects Daughter;fontSource=https%3A%2F%2Ffonts.googleapis.com%2Fcss%3Ffamily%3DArchitects%2BDaughter;fontSize=16;startSize=14;endArrow=open;endSize=14;sourcePerimeterSpacing=8;targetPerimeterSpacing=8;" parent="1" edge="1">
          <mxGeometry width="140" relative="1" as="geometry">
            <mxPoint x="172.5" y="4205" as="sourcePoint" />
            <mxPoint x="578" y="4202" as="targetPoint" />
            <Array as="points" />
          </mxGeometry>
        </mxCell>
        <mxCell id="5B_pEfnTFyZf6bQihWn--250" value="" style="edgeStyle=none;orthogonalLoop=1;jettySize=auto;html=1;shape=flexArrow;rounded=1;startSize=8;endSize=8;sketch=1;hachureGap=4;jiggle=2;curveFitting=1;fontFamily=Architects Daughter;fontSource=https%3A%2F%2Ffonts.googleapis.com%2Fcss%3Ffamily%3DArchitects%2BDaughter;fontSize=16;endArrow=open;sourcePerimeterSpacing=8;targetPerimeterSpacing=8;fillColor=#1ba1e2;strokeColor=#006EAF;" parent="1" edge="1">
          <mxGeometry width="140" relative="1" as="geometry">
            <mxPoint x="350" y="4210" as="sourcePoint" />
            <mxPoint x="350" y="4292" as="targetPoint" />
            <Array as="points" />
          </mxGeometry>
        </mxCell>
        <mxCell id="5B_pEfnTFyZf6bQihWn--251" value="" style="edgeStyle=none;orthogonalLoop=1;jettySize=auto;html=1;shape=flexArrow;rounded=1;startSize=8;endSize=8;sketch=1;hachureGap=4;jiggle=2;curveFitting=1;fontFamily=Architects Daughter;fontSource=https%3A%2F%2Ffonts.googleapis.com%2Fcss%3Ffamily%3DArchitects%2BDaughter;fontSize=16;endArrow=open;sourcePerimeterSpacing=8;targetPerimeterSpacing=8;fillColor=#1ba1e2;strokeColor=#006EAF;" parent="1" edge="1">
          <mxGeometry width="140" relative="1" as="geometry">
            <mxPoint x="390.13" y="4211" as="sourcePoint" />
            <mxPoint x="390.13" y="4293" as="targetPoint" />
            <Array as="points" />
          </mxGeometry>
        </mxCell>
        <mxCell id="5B_pEfnTFyZf6bQihWn--252" value="" style="edgeStyle=none;orthogonalLoop=1;jettySize=auto;html=1;shape=flexArrow;rounded=1;startSize=8;endSize=8;sketch=1;hachureGap=4;jiggle=2;curveFitting=1;fontFamily=Architects Daughter;fontSource=https%3A%2F%2Ffonts.googleapis.com%2Fcss%3Ffamily%3DArchitects%2BDaughter;fontSize=16;endArrow=open;sourcePerimeterSpacing=8;targetPerimeterSpacing=8;fillColor=#1ba1e2;strokeColor=#006EAF;" parent="1" edge="1">
          <mxGeometry width="140" relative="1" as="geometry">
            <mxPoint x="433" y="4212" as="sourcePoint" />
            <mxPoint x="433" y="4294" as="targetPoint" />
            <Array as="points" />
          </mxGeometry>
        </mxCell>
        <mxCell id="5B_pEfnTFyZf6bQihWn--253" value="" style="edgeStyle=none;orthogonalLoop=1;jettySize=auto;html=1;shape=flexArrow;rounded=1;startSize=8;endSize=8;sketch=1;hachureGap=4;jiggle=2;curveFitting=1;fontFamily=Architects Daughter;fontSource=https%3A%2F%2Ffonts.googleapis.com%2Fcss%3Ffamily%3DArchitects%2BDaughter;fontSize=16;endArrow=open;sourcePerimeterSpacing=8;targetPerimeterSpacing=8;fillColor=#1ba1e2;strokeColor=#006EAF;" parent="1" edge="1">
          <mxGeometry width="140" relative="1" as="geometry">
            <mxPoint x="478" y="4213" as="sourcePoint" />
            <mxPoint x="478" y="4295" as="targetPoint" />
            <Array as="points" />
          </mxGeometry>
        </mxCell>
        <mxCell id="5B_pEfnTFyZf6bQihWn--254" value="" style="edgeStyle=none;orthogonalLoop=1;jettySize=auto;html=1;rounded=0;sketch=1;hachureGap=4;jiggle=2;curveFitting=1;fontFamily=Architects Daughter;fontSource=https%3A%2F%2Ffonts.googleapis.com%2Fcss%3Ffamily%3DArchitects%2BDaughter;fontSize=16;startSize=14;endArrow=open;endSize=14;sourcePerimeterSpacing=8;targetPerimeterSpacing=8;" parent="1" edge="1">
          <mxGeometry width="140" relative="1" as="geometry">
            <mxPoint x="175.25" y="4304" as="sourcePoint" />
            <mxPoint x="580.75" y="4301" as="targetPoint" />
            <Array as="points" />
          </mxGeometry>
        </mxCell>
        <mxCell id="5B_pEfnTFyZf6bQihWn--255" value="" style="edgeStyle=none;orthogonalLoop=1;jettySize=auto;html=1;shape=flexArrow;rounded=1;startSize=8;endSize=8;sketch=1;hachureGap=4;jiggle=2;curveFitting=1;fontFamily=Architects Daughter;fontSource=https%3A%2F%2Ffonts.googleapis.com%2Fcss%3Ffamily%3DArchitects%2BDaughter;fontSize=16;endArrow=open;sourcePerimeterSpacing=8;targetPerimeterSpacing=8;fillColor=#60a917;strokeColor=#2D7600;" parent="1" edge="1">
          <mxGeometry width="140" relative="1" as="geometry">
            <mxPoint x="187" y="4309.5" as="sourcePoint" />
            <mxPoint x="189" y="4591.5" as="targetPoint" />
            <Array as="points" />
          </mxGeometry>
        </mxCell>
        <mxCell id="5B_pEfnTFyZf6bQihWn--256" value="" style="edgeStyle=none;orthogonalLoop=1;jettySize=auto;html=1;shape=flexArrow;rounded=1;startSize=8;endSize=8;sketch=1;hachureGap=4;jiggle=2;curveFitting=1;fontFamily=Architects Daughter;fontSource=https%3A%2F%2Ffonts.googleapis.com%2Fcss%3Ffamily%3DArchitects%2BDaughter;fontSize=16;endArrow=open;sourcePerimeterSpacing=8;targetPerimeterSpacing=8;fillColor=#60a917;strokeColor=#2D7600;" parent="1" edge="1">
          <mxGeometry width="140" relative="1" as="geometry">
            <mxPoint x="225" y="4309.5" as="sourcePoint" />
            <mxPoint x="227" y="4591.5" as="targetPoint" />
            <Array as="points" />
          </mxGeometry>
        </mxCell>
        <mxCell id="5B_pEfnTFyZf6bQihWn--257" value="" style="edgeStyle=none;orthogonalLoop=1;jettySize=auto;html=1;shape=flexArrow;rounded=1;startSize=8;endSize=8;sketch=1;hachureGap=4;jiggle=2;curveFitting=1;fontFamily=Architects Daughter;fontSource=https%3A%2F%2Ffonts.googleapis.com%2Fcss%3Ffamily%3DArchitects%2BDaughter;fontSize=16;endArrow=open;sourcePerimeterSpacing=8;targetPerimeterSpacing=8;fillColor=#60a917;strokeColor=#2D7600;" parent="1" edge="1">
          <mxGeometry width="140" relative="1" as="geometry">
            <mxPoint x="268" y="4309.5" as="sourcePoint" />
            <mxPoint x="270" y="4591.5" as="targetPoint" />
            <Array as="points" />
          </mxGeometry>
        </mxCell>
        <mxCell id="5B_pEfnTFyZf6bQihWn--258" value="" style="edgeStyle=none;orthogonalLoop=1;jettySize=auto;html=1;shape=flexArrow;rounded=1;startSize=8;endSize=8;sketch=1;hachureGap=4;jiggle=2;curveFitting=1;fontFamily=Architects Daughter;fontSource=https%3A%2F%2Ffonts.googleapis.com%2Fcss%3Ffamily%3DArchitects%2BDaughter;fontSize=16;endArrow=open;sourcePerimeterSpacing=8;targetPerimeterSpacing=8;fillColor=#60a917;strokeColor=#2D7600;" parent="1" edge="1">
          <mxGeometry width="140" relative="1" as="geometry">
            <mxPoint x="311" y="4309.5" as="sourcePoint" />
            <mxPoint x="313" y="4591.5" as="targetPoint" />
            <Array as="points" />
          </mxGeometry>
        </mxCell>
        <mxCell id="5B_pEfnTFyZf6bQihWn--259" value="" style="edgeStyle=none;orthogonalLoop=1;jettySize=auto;html=1;shape=flexArrow;rounded=1;startSize=8;endSize=8;sketch=1;hachureGap=4;jiggle=2;curveFitting=1;fontFamily=Architects Daughter;fontSource=https%3A%2F%2Ffonts.googleapis.com%2Fcss%3Ffamily%3DArchitects%2BDaughter;fontSize=16;endArrow=open;sourcePerimeterSpacing=8;targetPerimeterSpacing=8;fillColor=#1ba1e2;strokeColor=#006EAF;" parent="1" edge="1">
          <mxGeometry width="140" relative="1" as="geometry">
            <mxPoint x="350" y="4310.5" as="sourcePoint" />
            <mxPoint x="352" y="4451.5" as="targetPoint" />
            <Array as="points" />
          </mxGeometry>
        </mxCell>
        <mxCell id="5B_pEfnTFyZf6bQihWn--260" value="" style="edgeStyle=none;orthogonalLoop=1;jettySize=auto;html=1;shape=flexArrow;rounded=1;startSize=8;endSize=8;sketch=1;hachureGap=4;jiggle=2;curveFitting=1;fontFamily=Architects Daughter;fontSource=https%3A%2F%2Ffonts.googleapis.com%2Fcss%3Ffamily%3DArchitects%2BDaughter;fontSize=16;endArrow=open;sourcePerimeterSpacing=8;targetPerimeterSpacing=8;fillColor=#1ba1e2;strokeColor=#006EAF;" parent="1" edge="1">
          <mxGeometry width="140" relative="1" as="geometry">
            <mxPoint x="394" y="4310.5" as="sourcePoint" />
            <mxPoint x="396" y="4451.5" as="targetPoint" />
            <Array as="points" />
          </mxGeometry>
        </mxCell>
        <mxCell id="5B_pEfnTFyZf6bQihWn--261" value="" style="edgeStyle=none;orthogonalLoop=1;jettySize=auto;html=1;shape=flexArrow;rounded=1;startSize=8;endSize=8;sketch=1;hachureGap=4;jiggle=2;curveFitting=1;fontFamily=Architects Daughter;fontSource=https%3A%2F%2Ffonts.googleapis.com%2Fcss%3Ffamily%3DArchitects%2BDaughter;fontSize=16;endArrow=open;sourcePerimeterSpacing=8;targetPerimeterSpacing=8;fillColor=#1ba1e2;strokeColor=#006EAF;" parent="1" edge="1">
          <mxGeometry width="140" relative="1" as="geometry">
            <mxPoint x="443" y="4372.5" as="sourcePoint" />
            <mxPoint x="445" y="4513.5" as="targetPoint" />
            <Array as="points" />
          </mxGeometry>
        </mxCell>
        <mxCell id="5B_pEfnTFyZf6bQihWn--262" value="" style="edgeStyle=none;orthogonalLoop=1;jettySize=auto;html=1;shape=flexArrow;rounded=1;startSize=8;endSize=8;sketch=1;hachureGap=4;jiggle=2;curveFitting=1;fontFamily=Architects Daughter;fontSource=https%3A%2F%2Ffonts.googleapis.com%2Fcss%3Ffamily%3DArchitects%2BDaughter;fontSize=16;endArrow=open;sourcePerimeterSpacing=8;targetPerimeterSpacing=8;fillColor=#1ba1e2;strokeColor=#006EAF;" parent="1" edge="1">
          <mxGeometry width="140" relative="1" as="geometry">
            <mxPoint x="483" y="4374.5" as="sourcePoint" />
            <mxPoint x="485" y="4515.5" as="targetPoint" />
            <Array as="points" />
          </mxGeometry>
        </mxCell>
        <mxCell id="5B_pEfnTFyZf6bQihWn--263" value="" style="edgeStyle=none;orthogonalLoop=1;jettySize=auto;html=1;shape=flexArrow;rounded=1;startSize=8;endSize=8;sketch=1;hachureGap=4;jiggle=2;curveFitting=1;fontFamily=Architects Daughter;fontSource=https%3A%2F%2Ffonts.googleapis.com%2Fcss%3Ffamily%3DArchitects%2BDaughter;fontSize=16;endArrow=open;sourcePerimeterSpacing=8;targetPerimeterSpacing=8;fillColor=#1ba1e2;strokeColor=#006EAF;" parent="1" edge="1">
          <mxGeometry width="140" relative="1" as="geometry">
            <mxPoint x="533" y="4508.5" as="sourcePoint" />
            <mxPoint x="533" y="4590.5" as="targetPoint" />
            <Array as="points" />
          </mxGeometry>
        </mxCell>
        <mxCell id="5B_pEfnTFyZf6bQihWn--266" value="" style="edgeStyle=none;orthogonalLoop=1;jettySize=auto;html=1;shape=flexArrow;rounded=1;startSize=8;endSize=8;sketch=1;hachureGap=4;jiggle=2;curveFitting=1;fontFamily=Architects Daughter;fontSource=https%3A%2F%2Ffonts.googleapis.com%2Fcss%3Ffamily%3DArchitects%2BDaughter;fontSize=16;endArrow=open;sourcePerimeterSpacing=8;targetPerimeterSpacing=8;" parent="1" edge="1">
          <mxGeometry width="140" relative="1" as="geometry">
            <mxPoint x="-862" y="5126" as="sourcePoint" />
            <mxPoint x="-28" y="5124" as="targetPoint" />
            <Array as="points" />
          </mxGeometry>
        </mxCell>
        <mxCell id="5B_pEfnTFyZf6bQihWn--267" value="" style="edgeStyle=none;orthogonalLoop=1;jettySize=auto;html=1;rounded=0;sketch=1;hachureGap=4;jiggle=2;curveFitting=1;fontFamily=Architects Daughter;fontSource=https%3A%2F%2Ffonts.googleapis.com%2Fcss%3Ffamily%3DArchitects%2BDaughter;fontSize=16;startSize=14;endArrow=open;endSize=14;sourcePerimeterSpacing=8;targetPerimeterSpacing=8;" parent="1" edge="1">
          <mxGeometry width="140" relative="1" as="geometry">
            <mxPoint x="-746" y="5167" as="sourcePoint" />
            <mxPoint x="-746" y="5081" as="targetPoint" />
            <Array as="points" />
          </mxGeometry>
        </mxCell>
        <mxCell id="5B_pEfnTFyZf6bQihWn--268" value="GC" style="text;html=1;align=center;verticalAlign=middle;resizable=0;points=[];autosize=1;strokeColor=none;fillColor=none;fontSize=20;fontFamily=Verdana;" parent="1" vertex="1">
          <mxGeometry x="-766" y="5031" width="47" height="36" as="geometry" />
        </mxCell>
        <mxCell id="5B_pEfnTFyZf6bQihWn--269" value="" style="edgeStyle=none;orthogonalLoop=1;jettySize=auto;html=1;rounded=0;sketch=1;hachureGap=4;jiggle=2;curveFitting=1;fontFamily=Architects Daughter;fontSource=https%3A%2F%2Ffonts.googleapis.com%2Fcss%3Ffamily%3DArchitects%2BDaughter;fontSize=16;startSize=14;endArrow=open;endSize=14;sourcePerimeterSpacing=8;targetPerimeterSpacing=8;" parent="1" edge="1">
          <mxGeometry width="140" relative="1" as="geometry">
            <mxPoint x="-704" y="5167" as="sourcePoint" />
            <mxPoint x="-704" y="5081" as="targetPoint" />
            <Array as="points" />
          </mxGeometry>
        </mxCell>
        <mxCell id="5B_pEfnTFyZf6bQihWn--270" value="HEAPDUMP1" style="text;html=1;align=center;verticalAlign=middle;resizable=0;points=[];autosize=1;strokeColor=none;fillColor=none;fontSize=20;fontFamily=Verdana;" parent="1" vertex="1">
          <mxGeometry x="-770" y="4992" width="143" height="36" as="geometry" />
        </mxCell>
        <mxCell id="5B_pEfnTFyZf6bQihWn--271" value="10_000 REQUEST" style="text;html=1;align=center;verticalAlign=middle;resizable=0;points=[];autosize=1;strokeColor=none;fillColor=none;fontSize=20;fontFamily=Verdana;" parent="1" vertex="1">
          <mxGeometry x="-622.5" y="5039" width="197" height="36" as="geometry" />
        </mxCell>
        <mxCell id="5B_pEfnTFyZf6bQihWn--272" value="" style="edgeStyle=none;orthogonalLoop=1;jettySize=auto;html=1;rounded=0;sketch=1;hachureGap=4;jiggle=2;curveFitting=1;fontFamily=Architects Daughter;fontSource=https%3A%2F%2Ffonts.googleapis.com%2Fcss%3Ffamily%3DArchitects%2BDaughter;fontSize=16;startSize=14;endArrow=open;endSize=14;sourcePerimeterSpacing=8;targetPerimeterSpacing=8;" parent="1" edge="1">
          <mxGeometry width="140" relative="1" as="geometry">
            <mxPoint x="-315" y="5167" as="sourcePoint" />
            <mxPoint x="-315" y="5081" as="targetPoint" />
            <Array as="points" />
          </mxGeometry>
        </mxCell>
        <mxCell id="5B_pEfnTFyZf6bQihWn--273" value="HEAPDUMP2" style="text;html=1;align=center;verticalAlign=middle;resizable=0;points=[];autosize=1;strokeColor=none;fillColor=none;fontSize=20;fontFamily=Verdana;" parent="1" vertex="1">
          <mxGeometry x="-381" y="4992" width="143" height="36" as="geometry" />
        </mxCell>
        <mxCell id="5B_pEfnTFyZf6bQihWn--274" value="" style="edgeStyle=none;orthogonalLoop=1;jettySize=auto;html=1;rounded=0;sketch=1;hachureGap=4;jiggle=2;curveFitting=1;fontFamily=Architects Daughter;fontSource=https%3A%2F%2Ffonts.googleapis.com%2Fcss%3Ffamily%3DArchitects%2BDaughter;fontSize=16;startSize=14;endArrow=open;endSize=14;sourcePerimeterSpacing=8;targetPerimeterSpacing=8;" parent="1" edge="1">
          <mxGeometry width="140" relative="1" as="geometry">
            <mxPoint x="-259" y="5167" as="sourcePoint" />
            <mxPoint x="-259" y="5081" as="targetPoint" />
            <Array as="points" />
          </mxGeometry>
        </mxCell>
        <mxCell id="5B_pEfnTFyZf6bQihWn--275" value="GC" style="text;html=1;align=center;verticalAlign=middle;resizable=0;points=[];autosize=1;strokeColor=none;fillColor=none;fontSize=20;fontFamily=Verdana;" parent="1" vertex="1">
          <mxGeometry x="-279" y="5031" width="47" height="36" as="geometry" />
        </mxCell>
        <mxCell id="5B_pEfnTFyZf6bQihWn--276" value="" style="edgeStyle=none;orthogonalLoop=1;jettySize=auto;html=1;rounded=0;sketch=1;hachureGap=4;jiggle=2;curveFitting=1;fontFamily=Architects Daughter;fontSource=https%3A%2F%2Ffonts.googleapis.com%2Fcss%3Ffamily%3DArchitects%2BDaughter;fontSize=16;startSize=14;endArrow=open;endSize=14;sourcePerimeterSpacing=8;targetPerimeterSpacing=8;" parent="1" edge="1">
          <mxGeometry width="140" relative="1" as="geometry">
            <mxPoint x="-172" y="5167" as="sourcePoint" />
            <mxPoint x="-172" y="5081" as="targetPoint" />
            <Array as="points" />
          </mxGeometry>
        </mxCell>
        <mxCell id="5B_pEfnTFyZf6bQihWn--277" value="HEAPDUMP3" style="text;html=1;align=center;verticalAlign=middle;resizable=0;points=[];autosize=1;strokeColor=none;fillColor=none;fontSize=20;fontFamily=Verdana;" parent="1" vertex="1">
          <mxGeometry x="-238" y="4992" width="143" height="36" as="geometry" />
        </mxCell>
        <mxCell id="5B_pEfnTFyZf6bQihWn--278" value="HEAPDUMP2 - HEAPDUMP1 = For 10_000 REQUEST what we create" style="text;html=1;align=center;verticalAlign=middle;resizable=0;points=[];autosize=1;strokeColor=none;fillColor=none;fontSize=20;fontFamily=Verdana;" parent="1" vertex="1">
          <mxGeometry x="-1094.5" y="5220" width="700" height="36" as="geometry" />
        </mxCell>
        <mxCell id="5B_pEfnTFyZf6bQihWn--279" value="HEAPDUMP3 - HEAPDUMP1 = For 10_000 REQUEST what remains" style="text;html=1;align=center;verticalAlign=middle;resizable=0;points=[];autosize=1;strokeColor=none;fillColor=none;fontSize=20;fontFamily=Verdana;" parent="1" vertex="1">
          <mxGeometry x="-1081" y="5274" width="683" height="36" as="geometry" />
        </mxCell>
        <mxCell id="5B_pEfnTFyZf6bQihWn--280" value="-Xmx4g -Xms4g -Xmn2g" style="text;html=1;align=center;verticalAlign=middle;resizable=0;points=[];autosize=1;strokeColor=none;fillColor=none;fontSize=20;fontFamily=Architects Daughter;fontSource=https%3A%2F%2Ffonts.googleapis.com%2Fcss%3Ffamily%3DArchitects%2BDaughter;" parent="1" vertex="1">
          <mxGeometry x="-632" y="4906" width="234" height="36" as="geometry" />
        </mxCell>
        <mxCell id="5B_pEfnTFyZf6bQihWn--281" value="HEAPDUMP2 - HEAPDUMP3 = For 10_000 REQUEST what remains" style="text;html=1;align=center;verticalAlign=middle;resizable=0;points=[];autosize=1;strokeColor=none;fillColor=none;fontSize=20;fontFamily=Verdana;" parent="1" vertex="1">
          <mxGeometry x="-1077.5" y="5331" width="683" height="36" as="geometry" />
        </mxCell>
        <mxCell id="5B_pEfnTFyZf6bQihWn--284" value="" style="edgeStyle=none;curved=1;rounded=0;sketch=1;hachureGap=4;jiggle=2;curveFitting=1;orthogonalLoop=1;jettySize=auto;html=1;fontFamily=Architects Daughter;fontSource=https%3A%2F%2Ffonts.googleapis.com%2Fcss%3Ffamily%3DArchitects%2BDaughter;fontSize=16;startSize=14;endArrow=open;endSize=14;sourcePerimeterSpacing=8;targetPerimeterSpacing=8;" parent="1" source="5B_pEfnTFyZf6bQihWn--282" target="5B_pEfnTFyZf6bQihWn--283" edge="1">
          <mxGeometry relative="1" as="geometry" />
        </mxCell>
        <mxCell id="5B_pEfnTFyZf6bQihWn--282" value="method" style="text;html=1;align=center;verticalAlign=middle;resizable=0;points=[];autosize=1;strokeColor=none;fillColor=none;fontSize=20;fontFamily=Architects Daughter;fontSource=https%3A%2F%2Ffonts.googleapis.com%2Fcss%3Ffamily%3DArchitects%2BDaughter;" parent="1" vertex="1">
          <mxGeometry x="-1027.5" y="5520" width="84" height="36" as="geometry" />
        </mxCell>
        <mxCell id="5B_pEfnTFyZf6bQihWn--286" value="" style="edgeStyle=none;curved=1;rounded=0;sketch=1;hachureGap=4;jiggle=2;curveFitting=1;orthogonalLoop=1;jettySize=auto;html=1;fontFamily=Architects Daughter;fontSource=https%3A%2F%2Ffonts.googleapis.com%2Fcss%3Ffamily%3DArchitects%2BDaughter;fontSize=16;startSize=14;endArrow=open;endSize=14;sourcePerimeterSpacing=8;targetPerimeterSpacing=8;" parent="1" source="5B_pEfnTFyZf6bQihWn--283" target="5B_pEfnTFyZf6bQihWn--285" edge="1">
          <mxGeometry relative="1" as="geometry" />
        </mxCell>
        <mxCell id="5B_pEfnTFyZf6bQihWn--283" value="Memory&lt;br&gt;method" style="whiteSpace=wrap;html=1;sketch=1;hachureGap=4;jiggle=2;curveFitting=1;fontFamily=Verdana;" parent="1" vertex="1">
          <mxGeometry x="-841.5" y="5508" width="120" height="60" as="geometry" />
        </mxCell>
        <mxCell id="5B_pEfnTFyZf6bQihWn--293" style="edgeStyle=none;curved=1;rounded=0;sketch=1;hachureGap=4;jiggle=2;curveFitting=1;orthogonalLoop=1;jettySize=auto;html=1;exitX=0.5;exitY=1;exitDx=0;exitDy=0;entryX=0.5;entryY=0;entryDx=0;entryDy=0;fontFamily=Architects Daughter;fontSource=https%3A%2F%2Ffonts.googleapis.com%2Fcss%3Ffamily%3DArchitects%2BDaughter;fontSize=16;startSize=14;endArrow=open;endSize=14;sourcePerimeterSpacing=8;targetPerimeterSpacing=8;" parent="1" source="5B_pEfnTFyZf6bQihWn--285" target="5B_pEfnTFyZf6bQihWn--291" edge="1">
          <mxGeometry relative="1" as="geometry" />
        </mxCell>
        <mxCell id="5B_pEfnTFyZf6bQihWn--285" value="java byte code" style="whiteSpace=wrap;html=1;sketch=1;hachureGap=4;jiggle=2;curveFitting=1;fontFamily=Verdana;" parent="1" vertex="1">
          <mxGeometry x="-601.5" y="5508" width="120" height="60" as="geometry" />
        </mxCell>
        <mxCell id="5B_pEfnTFyZf6bQihWn--289" style="edgeStyle=none;curved=1;rounded=0;sketch=1;hachureGap=4;jiggle=2;curveFitting=1;orthogonalLoop=1;jettySize=auto;html=1;exitX=0.5;exitY=0;exitDx=0;exitDy=0;entryX=0.5;entryY=1;entryDx=0;entryDy=0;fontFamily=Architects Daughter;fontSource=https%3A%2F%2Ffonts.googleapis.com%2Fcss%3Ffamily%3DArchitects%2BDaughter;fontSize=16;startSize=14;endArrow=open;endSize=14;sourcePerimeterSpacing=8;targetPerimeterSpacing=8;" parent="1" source="5B_pEfnTFyZf6bQihWn--288" target="5B_pEfnTFyZf6bQihWn--283" edge="1">
          <mxGeometry relative="1" as="geometry" />
        </mxCell>
        <mxCell id="5B_pEfnTFyZf6bQihWn--292" value="" style="edgeStyle=none;curved=1;rounded=0;sketch=1;hachureGap=4;jiggle=2;curveFitting=1;orthogonalLoop=1;jettySize=auto;html=1;fontFamily=Architects Daughter;fontSource=https%3A%2F%2Ffonts.googleapis.com%2Fcss%3Ffamily%3DArchitects%2BDaughter;fontSize=16;startSize=14;endArrow=open;endSize=14;sourcePerimeterSpacing=8;targetPerimeterSpacing=8;" parent="1" source="5B_pEfnTFyZf6bQihWn--288" target="5B_pEfnTFyZf6bQihWn--291" edge="1">
          <mxGeometry relative="1" as="geometry" />
        </mxCell>
        <mxCell id="5B_pEfnTFyZf6bQihWn--298" value="" style="edgeStyle=none;curved=1;rounded=0;sketch=1;hachureGap=4;jiggle=2;curveFitting=1;orthogonalLoop=1;jettySize=auto;html=1;fontFamily=Architects Daughter;fontSource=https%3A%2F%2Ffonts.googleapis.com%2Fcss%3Ffamily%3DArchitects%2BDaughter;fontSize=16;startSize=14;endArrow=open;endSize=14;sourcePerimeterSpacing=8;targetPerimeterSpacing=8;" parent="1" source="5B_pEfnTFyZf6bQihWn--288" target="5B_pEfnTFyZf6bQihWn--297" edge="1">
          <mxGeometry relative="1" as="geometry" />
        </mxCell>
        <mxCell id="5B_pEfnTFyZf6bQihWn--288" value="TH" style="ellipse;whiteSpace=wrap;html=1;sketch=1;hachureGap=4;jiggle=2;curveFitting=1;fontFamily=Verdana;" parent="1" vertex="1">
          <mxGeometry x="-821.5" y="5654" width="80" height="80" as="geometry" />
        </mxCell>
        <mxCell id="5B_pEfnTFyZf6bQihWn--290" value="NTH" style="ellipse;whiteSpace=wrap;html=1;sketch=1;hachureGap=4;jiggle=2;curveFitting=1;fontFamily=Architects Daughter;fontSource=https%3A%2F%2Ffonts.googleapis.com%2Fcss%3Ffamily%3DArchitects%2BDaughter;" parent="1" vertex="1">
          <mxGeometry x="-377.5" y="5845" width="80" height="80" as="geometry" />
        </mxCell>
        <mxCell id="5B_pEfnTFyZf6bQihWn--295" value="" style="edgeStyle=none;curved=1;rounded=0;sketch=1;hachureGap=4;jiggle=2;curveFitting=1;orthogonalLoop=1;jettySize=auto;html=1;fontFamily=Architects Daughter;fontSource=https%3A%2F%2Ffonts.googleapis.com%2Fcss%3Ffamily%3DArchitects%2BDaughter;fontSize=16;startSize=14;endArrow=open;endSize=14;sourcePerimeterSpacing=8;targetPerimeterSpacing=8;" parent="1" source="5B_pEfnTFyZf6bQihWn--291" target="5B_pEfnTFyZf6bQihWn--294" edge="1">
          <mxGeometry relative="1" as="geometry" />
        </mxCell>
        <mxCell id="5B_pEfnTFyZf6bQihWn--291" value="JIT" style="whiteSpace=wrap;html=1;fontFamily=Verdana;sketch=1;hachureGap=4;jiggle=2;curveFitting=1;" parent="1" vertex="1">
          <mxGeometry x="-641.5" y="5664" width="120" height="60" as="geometry" />
        </mxCell>
        <mxCell id="5B_pEfnTFyZf6bQihWn--296" style="edgeStyle=none;curved=1;rounded=0;sketch=1;hachureGap=4;jiggle=2;curveFitting=1;orthogonalLoop=1;jettySize=auto;html=1;exitX=0.5;exitY=1;exitDx=0;exitDy=0;fontFamily=Architects Daughter;fontSource=https%3A%2F%2Ffonts.googleapis.com%2Fcss%3Ffamily%3DArchitects%2BDaughter;fontSize=16;startSize=14;endArrow=open;endSize=14;sourcePerimeterSpacing=8;targetPerimeterSpacing=8;" parent="1" source="5B_pEfnTFyZf6bQihWn--294" target="5B_pEfnTFyZf6bQihWn--290" edge="1">
          <mxGeometry relative="1" as="geometry" />
        </mxCell>
        <mxCell id="5B_pEfnTFyZf6bQihWn--294" value="Machine Code" style="whiteSpace=wrap;html=1;fontFamily=Verdana;sketch=1;hachureGap=4;jiggle=2;curveFitting=1;fontSource=https%3A%2F%2Ffonts.googleapis.com%2Fcss%3Ffamily%3DArchitects%2BDaughter;" parent="1" vertex="1">
          <mxGeometry x="-401.5" y="5664" width="120" height="60" as="geometry" />
        </mxCell>
        <mxCell id="5B_pEfnTFyZf6bQihWn--300" value="" style="edgeStyle=none;curved=1;rounded=0;sketch=1;hachureGap=4;jiggle=2;curveFitting=1;orthogonalLoop=1;jettySize=auto;html=1;fontFamily=Architects Daughter;fontSource=https%3A%2F%2Ffonts.googleapis.com%2Fcss%3Ffamily%3DArchitects%2BDaughter;fontSize=16;startSize=14;endArrow=open;endSize=14;sourcePerimeterSpacing=8;targetPerimeterSpacing=8;" parent="1" source="5B_pEfnTFyZf6bQihWn--297" target="5B_pEfnTFyZf6bQihWn--299" edge="1">
          <mxGeometry relative="1" as="geometry" />
        </mxCell>
        <mxCell id="5B_pEfnTFyZf6bQihWn--297" value="JIT" style="whiteSpace=wrap;html=1;fontFamily=Verdana;sketch=1;hachureGap=4;jiggle=2;curveFitting=1;fontSource=https%3A%2F%2Ffonts.googleapis.com%2Fcss%3Ffamily%3DArchitects%2BDaughter;" parent="1" vertex="1">
          <mxGeometry x="-841.5" y="5864" width="120" height="60" as="geometry" />
        </mxCell>
        <mxCell id="5B_pEfnTFyZf6bQihWn--302" value="" style="edgeStyle=none;curved=1;rounded=0;sketch=1;hachureGap=4;jiggle=2;curveFitting=1;orthogonalLoop=1;jettySize=auto;html=1;fontFamily=Architects Daughter;fontSource=https%3A%2F%2Ffonts.googleapis.com%2Fcss%3Ffamily%3DArchitects%2BDaughter;fontSize=16;startSize=14;endArrow=open;endSize=14;sourcePerimeterSpacing=8;targetPerimeterSpacing=8;" parent="1" source="5B_pEfnTFyZf6bQihWn--299" target="5B_pEfnTFyZf6bQihWn--301" edge="1">
          <mxGeometry relative="1" as="geometry" />
        </mxCell>
        <mxCell id="5B_pEfnTFyZf6bQihWn--299" value="Machine Code" style="whiteSpace=wrap;html=1;fontFamily=Verdana;sketch=1;hachureGap=4;jiggle=2;curveFitting=1;fontSource=https%3A%2F%2Ffonts.googleapis.com%2Fcss%3Ffamily%3DArchitects%2BDaughter;" parent="1" vertex="1">
          <mxGeometry x="-1081.5" y="5864" width="120" height="60" as="geometry" />
        </mxCell>
        <mxCell id="5B_pEfnTFyZf6bQihWn--303" style="edgeStyle=none;curved=1;rounded=0;sketch=1;hachureGap=4;jiggle=2;curveFitting=1;orthogonalLoop=1;jettySize=auto;html=1;exitX=1;exitY=0.5;exitDx=0;exitDy=0;entryX=0;entryY=0.5;entryDx=0;entryDy=0;fontFamily=Architects Daughter;fontSource=https%3A%2F%2Ffonts.googleapis.com%2Fcss%3Ffamily%3DArchitects%2BDaughter;fontSize=16;startSize=14;endArrow=open;endSize=14;sourcePerimeterSpacing=8;targetPerimeterSpacing=8;" parent="1" source="5B_pEfnTFyZf6bQihWn--301" target="5B_pEfnTFyZf6bQihWn--290" edge="1">
          <mxGeometry relative="1" as="geometry" />
        </mxCell>
        <mxCell id="5B_pEfnTFyZf6bQihWn--301" value="Code Cache" style="whiteSpace=wrap;html=1;fontFamily=Verdana;sketch=1;hachureGap=4;jiggle=2;curveFitting=1;fontSource=https%3A%2F%2Ffonts.googleapis.com%2Fcss%3Ffamily%3DArchitects%2BDaughter;" parent="1" vertex="1">
          <mxGeometry x="-1081.5" y="6044" width="120" height="60" as="geometry" />
        </mxCell>
        <mxCell id="5B_pEfnTFyZf6bQihWn--304" value="&lt;font face=&quot;Verdana&quot;&gt;0-Not Complied&lt;br&gt;1-C1 simple compiled&lt;br&gt;2-C1 limited&amp;nbsp;&lt;br&gt;3-full C1&lt;br&gt;4-C2&amp;nbsp;&lt;/font&gt;" style="text;html=1;align=center;verticalAlign=middle;resizable=0;points=[];autosize=1;strokeColor=none;fillColor=none;fontSize=20;fontFamily=Architects Daughter;fontSource=https%3A%2F%2Ffonts.googleapis.com%2Fcss%3Ffamily%3DArchitects%2BDaughter;" parent="1" vertex="1">
          <mxGeometry x="-1171.5" y="5558" width="236" height="142" as="geometry" />
        </mxCell>
        <mxCell id="5B_pEfnTFyZf6bQihWn--307" value="" style="edgeStyle=none;curved=1;rounded=0;sketch=1;hachureGap=4;jiggle=2;curveFitting=1;orthogonalLoop=1;jettySize=auto;html=1;fontFamily=Architects Daughter;fontSource=https%3A%2F%2Ffonts.googleapis.com%2Fcss%3Ffamily%3DArchitects%2BDaughter;fontSize=16;startSize=14;endArrow=open;endSize=14;sourcePerimeterSpacing=8;targetPerimeterSpacing=8;" parent="1" source="5B_pEfnTFyZf6bQihWn--305" target="5B_pEfnTFyZf6bQihWn--306" edge="1">
          <mxGeometry relative="1" as="geometry" />
        </mxCell>
        <mxCell id="5B_pEfnTFyZf6bQihWn--305" value="method" style="whiteSpace=wrap;html=1;sketch=1;hachureGap=4;jiggle=2;curveFitting=1;fontFamily=Architects Daughter;fontSource=https%3A%2F%2Ffonts.googleapis.com%2Fcss%3Ffamily%3DArchitects%2BDaughter;" parent="1" vertex="1">
          <mxGeometry x="-1571" y="5688" width="120" height="60" as="geometry" />
        </mxCell>
        <mxCell id="5B_pEfnTFyZf6bQihWn--306" value="method2" style="whiteSpace=wrap;html=1;sketch=1;hachureGap=4;jiggle=2;curveFitting=1;fontFamily=Architects Daughter;fontSource=https%3A%2F%2Ffonts.googleapis.com%2Fcss%3Ffamily%3DArchitects%2BDaughter;" parent="1" vertex="1">
          <mxGeometry x="-1331" y="5688" width="120" height="60" as="geometry" />
        </mxCell>
        <mxCell id="5B_pEfnTFyZf6bQihWn--308" value="method" style="whiteSpace=wrap;html=1;sketch=1;hachureGap=4;jiggle=2;curveFitting=1;fontFamily=Architects Daughter;fontSource=https%3A%2F%2Ffonts.googleapis.com%2Fcss%3Ffamily%3DArchitects%2BDaughter;verticalAlign=top;" parent="1" vertex="1">
          <mxGeometry x="-1568" y="5823" width="189" height="161" as="geometry" />
        </mxCell>
        <mxCell id="5B_pEfnTFyZf6bQihWn--309" value="method2" style="whiteSpace=wrap;html=1;sketch=1;hachureGap=4;jiggle=2;curveFitting=1;fontFamily=Architects Daughter;fontSource=https%3A%2F%2Ffonts.googleapis.com%2Fcss%3Ffamily%3DArchitects%2BDaughter;" parent="1" vertex="1">
          <mxGeometry x="-1527" y="5896" width="120" height="60" as="geometry" />
        </mxCell>
        <mxCell id="5B_pEfnTFyZf6bQihWn--312" value="" style="edgeStyle=none;curved=1;rounded=0;sketch=1;hachureGap=4;jiggle=2;curveFitting=1;orthogonalLoop=1;jettySize=auto;html=1;fontFamily=Architects Daughter;fontSource=https%3A%2F%2Ffonts.googleapis.com%2Fcss%3Ffamily%3DArchitects%2BDaughter;fontSize=16;startSize=14;endArrow=open;endSize=14;sourcePerimeterSpacing=8;targetPerimeterSpacing=8;" parent="1" source="5B_pEfnTFyZf6bQihWn--310" target="5B_pEfnTFyZf6bQihWn--311" edge="1">
          <mxGeometry relative="1" as="geometry" />
        </mxCell>
        <mxCell id="5B_pEfnTFyZf6bQihWn--310" value="GraalVM" style="text;html=1;align=center;verticalAlign=middle;resizable=0;points=[];autosize=1;strokeColor=none;fillColor=none;fontSize=20;fontFamily=Verdana;" parent="1" vertex="1">
          <mxGeometry x="-1025.5" y="6229" width="102" height="36" as="geometry" />
        </mxCell>
        <mxCell id="5B_pEfnTFyZf6bQihWn--314" value="" style="edgeStyle=none;curved=1;rounded=0;sketch=1;hachureGap=4;jiggle=2;curveFitting=1;orthogonalLoop=1;jettySize=auto;html=1;fontFamily=Architects Daughter;fontSource=https%3A%2F%2Ffonts.googleapis.com%2Fcss%3Ffamily%3DArchitects%2BDaughter;fontSize=16;startSize=14;endArrow=open;endSize=14;sourcePerimeterSpacing=8;targetPerimeterSpacing=8;" parent="1" source="5B_pEfnTFyZf6bQihWn--311" target="5B_pEfnTFyZf6bQihWn--313" edge="1">
          <mxGeometry relative="1" as="geometry" />
        </mxCell>
        <mxCell id="5B_pEfnTFyZf6bQihWn--311" value="Machine Code" style="whiteSpace=wrap;html=1;sketch=1;hachureGap=4;jiggle=2;curveFitting=1;fontFamily=Verdana;" parent="1" vertex="1">
          <mxGeometry x="-1034.5" y="6373" width="120" height="60" as="geometry" />
        </mxCell>
        <mxCell id="5B_pEfnTFyZf6bQihWn--313" value=".jar" style="whiteSpace=wrap;html=1;sketch=1;hachureGap=4;jiggle=2;curveFitting=1;fontFamily=Verdana;fontSource=https%3A%2F%2Ffonts.googleapis.com%2Fcss%3Ffamily%3DArchitects%2BDaughter;" parent="1" vertex="1">
          <mxGeometry x="-1034.5" y="6553" width="120" height="60" as="geometry" />
        </mxCell>
        <mxCell id="5B_pEfnTFyZf6bQihWn--315" value="" style="whiteSpace=wrap;html=1;sketch=1;hachureGap=4;jiggle=2;curveFitting=1;fontFamily=Architects Daughter;fontSource=https%3A%2F%2Ffonts.googleapis.com%2Fcss%3Ffamily%3DArchitects%2BDaughter;" parent="1" vertex="1">
          <mxGeometry x="-545" y="6956" width="120" height="274" as="geometry" />
        </mxCell>
        <mxCell id="5B_pEfnTFyZf6bQihWn--317" value="" style="whiteSpace=wrap;html=1;sketch=1;hachureGap=4;jiggle=2;curveFitting=1;fontFamily=Architects Daughter;fontSource=https%3A%2F%2Ffonts.googleapis.com%2Fcss%3Ffamily%3DArchitects%2BDaughter;" parent="1" vertex="1">
          <mxGeometry x="-547.5" y="7277" width="120" height="185" as="geometry" />
        </mxCell>
        <mxCell id="5B_pEfnTFyZf6bQihWn--318" value="" style="whiteSpace=wrap;html=1;sketch=1;hachureGap=4;jiggle=2;curveFitting=1;fontFamily=Architects Daughter;fontSource=https%3A%2F%2Ffonts.googleapis.com%2Fcss%3Ffamily%3DArchitects%2BDaughter;" parent="1" vertex="1">
          <mxGeometry x="-547.5" y="7485" width="120" height="185" as="geometry" />
        </mxCell>
        <mxCell id="5B_pEfnTFyZf6bQihWn--319" value="" style="edgeStyle=none;orthogonalLoop=1;jettySize=auto;html=1;shape=flexArrow;rounded=1;startSize=8;endSize=8;sketch=1;hachureGap=4;jiggle=2;curveFitting=1;fontFamily=Architects Daughter;fontSource=https%3A%2F%2Ffonts.googleapis.com%2Fcss%3Ffamily%3DArchitects%2BDaughter;fontSize=16;endArrow=open;sourcePerimeterSpacing=8;targetPerimeterSpacing=8;" parent="1" edge="1">
          <mxGeometry width="140" relative="1" as="geometry">
            <mxPoint x="-1197" y="6985" as="sourcePoint" />
            <mxPoint x="-1001" y="6982" as="targetPoint" />
            <Array as="points" />
          </mxGeometry>
        </mxCell>
        <mxCell id="5B_pEfnTFyZf6bQihWn--320" value="READ" style="text;html=1;align=center;verticalAlign=middle;resizable=0;points=[];autosize=1;strokeColor=none;fillColor=none;fontSize=20;fontFamily=Architects Daughter;fontSource=https%3A%2F%2Ffonts.googleapis.com%2Fcss%3Ffamily%3DArchitects%2BDaughter;" parent="1" vertex="1">
          <mxGeometry x="-1175" y="6942" width="70" height="36" as="geometry" />
        </mxCell>
        <mxCell id="5B_pEfnTFyZf6bQihWn--321" value="" style="edgeStyle=none;orthogonalLoop=1;jettySize=auto;html=1;shape=flexArrow;rounded=1;startSize=8;endSize=8;sketch=1;hachureGap=4;jiggle=2;curveFitting=1;fontFamily=Architects Daughter;fontSource=https%3A%2F%2Ffonts.googleapis.com%2Fcss%3Ffamily%3DArchitects%2BDaughter;fontSize=16;endArrow=open;sourcePerimeterSpacing=8;targetPerimeterSpacing=8;" parent="1" edge="1">
          <mxGeometry width="140" relative="1" as="geometry">
            <mxPoint x="-1194" y="7043.5" as="sourcePoint" />
            <mxPoint x="-998" y="7040.5" as="targetPoint" />
            <Array as="points" />
          </mxGeometry>
        </mxCell>
        <mxCell id="5B_pEfnTFyZf6bQihWn--322" value="READ" style="text;html=1;align=center;verticalAlign=middle;resizable=0;points=[];autosize=1;strokeColor=none;fillColor=none;fontSize=20;fontFamily=Architects Daughter;fontSource=https%3A%2F%2Ffonts.googleapis.com%2Fcss%3Ffamily%3DArchitects%2BDaughter;" parent="1" vertex="1">
          <mxGeometry x="-1172" y="7004" width="70" height="36" as="geometry" />
        </mxCell>
        <mxCell id="5B_pEfnTFyZf6bQihWn--323" value="" style="edgeStyle=none;orthogonalLoop=1;jettySize=auto;html=1;shape=flexArrow;rounded=1;startSize=8;endSize=8;sketch=1;hachureGap=4;jiggle=2;curveFitting=1;fontFamily=Architects Daughter;fontSource=https%3A%2F%2Ffonts.googleapis.com%2Fcss%3Ffamily%3DArchitects%2BDaughter;fontSize=16;endArrow=open;sourcePerimeterSpacing=8;targetPerimeterSpacing=8;" parent="1" edge="1">
          <mxGeometry width="140" relative="1" as="geometry">
            <mxPoint x="-1197" y="7090" as="sourcePoint" />
            <mxPoint x="-1001" y="7087" as="targetPoint" />
            <Array as="points" />
          </mxGeometry>
        </mxCell>
        <mxCell id="5B_pEfnTFyZf6bQihWn--324" value="READ" style="text;html=1;align=center;verticalAlign=middle;resizable=0;points=[];autosize=1;strokeColor=none;fillColor=none;fontSize=20;fontFamily=Architects Daughter;fontSource=https%3A%2F%2Ffonts.googleapis.com%2Fcss%3Ffamily%3DArchitects%2BDaughter;" parent="1" vertex="1">
          <mxGeometry x="-1175" y="7047" width="70" height="36" as="geometry" />
        </mxCell>
        <mxCell id="5B_pEfnTFyZf6bQihWn--325" value="" style="edgeStyle=none;orthogonalLoop=1;jettySize=auto;html=1;shape=flexArrow;rounded=1;startSize=8;endSize=8;sketch=1;hachureGap=4;jiggle=2;curveFitting=1;fontFamily=Architects Daughter;fontSource=https%3A%2F%2Ffonts.googleapis.com%2Fcss%3Ffamily%3DArchitects%2BDaughter;fontSize=16;endArrow=open;sourcePerimeterSpacing=8;targetPerimeterSpacing=8;" parent="1" edge="1">
          <mxGeometry width="140" relative="1" as="geometry">
            <mxPoint x="-1194" y="7148.5" as="sourcePoint" />
            <mxPoint x="-998" y="7145.5" as="targetPoint" />
            <Array as="points" />
          </mxGeometry>
        </mxCell>
        <mxCell id="5B_pEfnTFyZf6bQihWn--326" value="READ" style="text;html=1;align=center;verticalAlign=middle;resizable=0;points=[];autosize=1;strokeColor=none;fillColor=none;fontSize=20;fontFamily=Architects Daughter;fontSource=https%3A%2F%2Ffonts.googleapis.com%2Fcss%3Ffamily%3DArchitects%2BDaughter;" parent="1" vertex="1">
          <mxGeometry x="-1172" y="7109" width="70" height="36" as="geometry" />
        </mxCell>
        <mxCell id="5B_pEfnTFyZf6bQihWn--327" value="" style="edgeStyle=none;orthogonalLoop=1;jettySize=auto;html=1;shape=flexArrow;rounded=1;startSize=8;endSize=8;sketch=1;hachureGap=4;jiggle=2;curveFitting=1;fontFamily=Architects Daughter;fontSource=https%3A%2F%2Ffonts.googleapis.com%2Fcss%3Ffamily%3DArchitects%2BDaughter;fontSize=16;endArrow=open;sourcePerimeterSpacing=8;targetPerimeterSpacing=8;" parent="1" edge="1">
          <mxGeometry width="140" relative="1" as="geometry">
            <mxPoint x="-1157" y="7210" as="sourcePoint" />
            <mxPoint x="-852" y="7205" as="targetPoint" />
            <Array as="points" />
          </mxGeometry>
        </mxCell>
        <mxCell id="5B_pEfnTFyZf6bQihWn--328" value="WRITE" style="text;html=1;align=center;verticalAlign=middle;resizable=0;points=[];autosize=1;strokeColor=none;fillColor=none;fontSize=20;fontFamily=Architects Daughter;fontSource=https%3A%2F%2Ffonts.googleapis.com%2Fcss%3Ffamily%3DArchitects%2BDaughter;" parent="1" vertex="1">
          <mxGeometry x="-1139" y="7167" width="78" height="36" as="geometry" />
        </mxCell>
        <mxCell id="5B_pEfnTFyZf6bQihWn--329" value="" style="edgeStyle=none;orthogonalLoop=1;jettySize=auto;html=1;shape=flexArrow;rounded=1;startSize=8;endSize=8;sketch=1;hachureGap=4;jiggle=2;curveFitting=1;fontFamily=Architects Daughter;fontSource=https%3A%2F%2Ffonts.googleapis.com%2Fcss%3Ffamily%3DArchitects%2BDaughter;fontSize=16;endArrow=open;sourcePerimeterSpacing=8;targetPerimeterSpacing=8;" parent="1" edge="1">
          <mxGeometry width="140" relative="1" as="geometry">
            <mxPoint x="-844" y="6991" as="sourcePoint" />
            <mxPoint x="-648" y="6988" as="targetPoint" />
            <Array as="points" />
          </mxGeometry>
        </mxCell>
        <mxCell id="5B_pEfnTFyZf6bQihWn--330" value="READ" style="text;html=1;align=center;verticalAlign=middle;resizable=0;points=[];autosize=1;strokeColor=none;fillColor=none;fontSize=20;fontFamily=Architects Daughter;fontSource=https%3A%2F%2Ffonts.googleapis.com%2Fcss%3Ffamily%3DArchitects%2BDaughter;" parent="1" vertex="1">
          <mxGeometry x="-822" y="6948" width="70" height="36" as="geometry" />
        </mxCell>
        <mxCell id="5B_pEfnTFyZf6bQihWn--331" value="" style="edgeStyle=none;orthogonalLoop=1;jettySize=auto;html=1;shape=flexArrow;rounded=1;startSize=8;endSize=8;sketch=1;hachureGap=4;jiggle=2;curveFitting=1;fontFamily=Architects Daughter;fontSource=https%3A%2F%2Ffonts.googleapis.com%2Fcss%3Ffamily%3DArchitects%2BDaughter;fontSize=16;endArrow=open;sourcePerimeterSpacing=8;targetPerimeterSpacing=8;" parent="1" edge="1">
          <mxGeometry width="140" relative="1" as="geometry">
            <mxPoint x="-841" y="7049.5" as="sourcePoint" />
            <mxPoint x="-645" y="7046.5" as="targetPoint" />
            <Array as="points" />
          </mxGeometry>
        </mxCell>
        <mxCell id="5B_pEfnTFyZf6bQihWn--332" value="READ" style="text;html=1;align=center;verticalAlign=middle;resizable=0;points=[];autosize=1;strokeColor=none;fillColor=none;fontSize=20;fontFamily=Architects Daughter;fontSource=https%3A%2F%2Ffonts.googleapis.com%2Fcss%3Ffamily%3DArchitects%2BDaughter;" parent="1" vertex="1">
          <mxGeometry x="-819" y="7010" width="70" height="36" as="geometry" />
        </mxCell>
        <mxCell id="5B_pEfnTFyZf6bQihWn--333" value="" style="edgeStyle=none;orthogonalLoop=1;jettySize=auto;html=1;shape=flexArrow;rounded=1;startSize=8;endSize=8;sketch=1;hachureGap=4;jiggle=2;curveFitting=1;fontFamily=Architects Daughter;fontSource=https%3A%2F%2Ffonts.googleapis.com%2Fcss%3Ffamily%3DArchitects%2BDaughter;fontSize=16;endArrow=open;sourcePerimeterSpacing=8;targetPerimeterSpacing=8;" parent="1" edge="1">
          <mxGeometry width="140" relative="1" as="geometry">
            <mxPoint x="-844" y="7096" as="sourcePoint" />
            <mxPoint x="-648" y="7093" as="targetPoint" />
            <Array as="points" />
          </mxGeometry>
        </mxCell>
        <mxCell id="5B_pEfnTFyZf6bQihWn--334" value="READ" style="text;html=1;align=center;verticalAlign=middle;resizable=0;points=[];autosize=1;strokeColor=none;fillColor=none;fontSize=20;fontFamily=Architects Daughter;fontSource=https%3A%2F%2Ffonts.googleapis.com%2Fcss%3Ffamily%3DArchitects%2BDaughter;" parent="1" vertex="1">
          <mxGeometry x="-822" y="7053" width="70" height="36" as="geometry" />
        </mxCell>
        <mxCell id="5B_pEfnTFyZf6bQihWn--335" value="" style="edgeStyle=none;orthogonalLoop=1;jettySize=auto;html=1;shape=flexArrow;rounded=1;startSize=8;endSize=8;sketch=1;hachureGap=4;jiggle=2;curveFitting=1;fontFamily=Architects Daughter;fontSource=https%3A%2F%2Ffonts.googleapis.com%2Fcss%3Ffamily%3DArchitects%2BDaughter;fontSize=16;endArrow=open;sourcePerimeterSpacing=8;targetPerimeterSpacing=8;" parent="1" edge="1">
          <mxGeometry width="140" relative="1" as="geometry">
            <mxPoint x="-841" y="7154.5" as="sourcePoint" />
            <mxPoint x="-645" y="7151.5" as="targetPoint" />
            <Array as="points" />
          </mxGeometry>
        </mxCell>
        <mxCell id="5B_pEfnTFyZf6bQihWn--336" value="READ" style="text;html=1;align=center;verticalAlign=middle;resizable=0;points=[];autosize=1;strokeColor=none;fillColor=none;fontSize=20;fontFamily=Architects Daughter;fontSource=https%3A%2F%2Ffonts.googleapis.com%2Fcss%3Ffamily%3DArchitects%2BDaughter;" parent="1" vertex="1">
          <mxGeometry x="-819" y="7115" width="70" height="36" as="geometry" />
        </mxCell>
        <mxCell id="5B_pEfnTFyZf6bQihWn--353" value="" style="edgeStyle=none;orthogonalLoop=1;jettySize=auto;html=1;shape=flexArrow;rounded=1;startSize=8;endSize=8;sketch=1;hachureGap=4;jiggle=2;curveFitting=1;fontFamily=Architects Daughter;fontSource=https%3A%2F%2Ffonts.googleapis.com%2Fcss%3Ffamily%3DArchitects%2BDaughter;fontSize=16;endArrow=open;sourcePerimeterSpacing=8;targetPerimeterSpacing=8;" parent="1" edge="1">
          <mxGeometry width="140" relative="1" as="geometry">
            <mxPoint x="-1098" y="7288" as="sourcePoint" />
            <mxPoint x="-902" y="7285" as="targetPoint" />
            <Array as="points" />
          </mxGeometry>
        </mxCell>
        <mxCell id="5B_pEfnTFyZf6bQihWn--354" value="READ" style="text;html=1;align=center;verticalAlign=middle;resizable=0;points=[];autosize=1;strokeColor=none;fillColor=none;fontSize=20;fontFamily=Architects Daughter;fontSource=https%3A%2F%2Ffonts.googleapis.com%2Fcss%3Ffamily%3DArchitects%2BDaughter;" parent="1" vertex="1">
          <mxGeometry x="-1076" y="7245" width="70" height="36" as="geometry" />
        </mxCell>
        <mxCell id="5B_pEfnTFyZf6bQihWn--355" value="" style="edgeStyle=none;orthogonalLoop=1;jettySize=auto;html=1;shape=flexArrow;rounded=1;startSize=8;endSize=8;sketch=1;hachureGap=4;jiggle=2;curveFitting=1;fontFamily=Architects Daughter;fontSource=https%3A%2F%2Ffonts.googleapis.com%2Fcss%3Ffamily%3DArchitects%2BDaughter;fontSize=16;endArrow=open;sourcePerimeterSpacing=8;targetPerimeterSpacing=8;" parent="1" edge="1">
          <mxGeometry width="140" relative="1" as="geometry">
            <mxPoint x="-1095" y="7346.5" as="sourcePoint" />
            <mxPoint x="-899" y="7343.5" as="targetPoint" />
            <Array as="points" />
          </mxGeometry>
        </mxCell>
        <mxCell id="5B_pEfnTFyZf6bQihWn--356" value="READ" style="text;html=1;align=center;verticalAlign=middle;resizable=0;points=[];autosize=1;strokeColor=none;fillColor=none;fontSize=20;fontFamily=Architects Daughter;fontSource=https%3A%2F%2Ffonts.googleapis.com%2Fcss%3Ffamily%3DArchitects%2BDaughter;" parent="1" vertex="1">
          <mxGeometry x="-1073" y="7307" width="70" height="36" as="geometry" />
        </mxCell>
        <mxCell id="5B_pEfnTFyZf6bQihWn--357" value="" style="edgeStyle=none;orthogonalLoop=1;jettySize=auto;html=1;shape=flexArrow;rounded=1;startSize=8;endSize=8;sketch=1;hachureGap=4;jiggle=2;curveFitting=1;fontFamily=Architects Daughter;fontSource=https%3A%2F%2Ffonts.googleapis.com%2Fcss%3Ffamily%3DArchitects%2BDaughter;fontSize=16;endArrow=open;sourcePerimeterSpacing=8;targetPerimeterSpacing=8;" parent="1" edge="1">
          <mxGeometry width="140" relative="1" as="geometry">
            <mxPoint x="-1098" y="7393" as="sourcePoint" />
            <mxPoint x="-902" y="7390" as="targetPoint" />
            <Array as="points" />
          </mxGeometry>
        </mxCell>
        <mxCell id="5B_pEfnTFyZf6bQihWn--358" value="READ" style="text;html=1;align=center;verticalAlign=middle;resizable=0;points=[];autosize=1;strokeColor=none;fillColor=none;fontSize=20;fontFamily=Architects Daughter;fontSource=https%3A%2F%2Ffonts.googleapis.com%2Fcss%3Ffamily%3DArchitects%2BDaughter;" parent="1" vertex="1">
          <mxGeometry x="-1076" y="7350" width="70" height="36" as="geometry" />
        </mxCell>
        <mxCell id="5B_pEfnTFyZf6bQihWn--359" value="" style="edgeStyle=none;orthogonalLoop=1;jettySize=auto;html=1;shape=flexArrow;rounded=1;startSize=8;endSize=8;sketch=1;hachureGap=4;jiggle=2;curveFitting=1;fontFamily=Architects Daughter;fontSource=https%3A%2F%2Ffonts.googleapis.com%2Fcss%3Ffamily%3DArchitects%2BDaughter;fontSize=16;endArrow=open;sourcePerimeterSpacing=8;targetPerimeterSpacing=8;" parent="1" edge="1">
          <mxGeometry width="140" relative="1" as="geometry">
            <mxPoint x="-1095" y="7451.5" as="sourcePoint" />
            <mxPoint x="-899" y="7448.5" as="targetPoint" />
            <Array as="points" />
          </mxGeometry>
        </mxCell>
        <mxCell id="5B_pEfnTFyZf6bQihWn--360" value="READ" style="text;html=1;align=center;verticalAlign=middle;resizable=0;points=[];autosize=1;strokeColor=none;fillColor=none;fontSize=20;fontFamily=Architects Daughter;fontSource=https%3A%2F%2Ffonts.googleapis.com%2Fcss%3Ffamily%3DArchitects%2BDaughter;" parent="1" vertex="1">
          <mxGeometry x="-1073" y="7412" width="70" height="36" as="geometry" />
        </mxCell>
        <mxCell id="5B_pEfnTFyZf6bQihWn--371" style="edgeStyle=none;curved=1;rounded=0;sketch=1;hachureGap=4;jiggle=2;curveFitting=1;orthogonalLoop=1;jettySize=auto;html=1;exitX=1;exitY=0;exitDx=0;exitDy=0;fontFamily=Architects Daughter;fontSource=https%3A%2F%2Ffonts.googleapis.com%2Fcss%3Ffamily%3DArchitects%2BDaughter;fontSize=16;startSize=14;endArrow=open;endSize=14;sourcePerimeterSpacing=8;targetPerimeterSpacing=8;" parent="1" source="5B_pEfnTFyZf6bQihWn--361" target="5B_pEfnTFyZf6bQihWn--367" edge="1">
          <mxGeometry relative="1" as="geometry" />
        </mxCell>
        <mxCell id="5B_pEfnTFyZf6bQihWn--372" style="edgeStyle=none;curved=1;rounded=0;sketch=1;hachureGap=4;jiggle=2;curveFitting=1;orthogonalLoop=1;jettySize=auto;html=1;exitX=1;exitY=0;exitDx=0;exitDy=0;fontFamily=Architects Daughter;fontSource=https%3A%2F%2Ffonts.googleapis.com%2Fcss%3Ffamily%3DArchitects%2BDaughter;fontSize=16;startSize=14;endArrow=open;endSize=14;sourcePerimeterSpacing=8;targetPerimeterSpacing=8;" parent="1" source="5B_pEfnTFyZf6bQihWn--361" target="5B_pEfnTFyZf6bQihWn--368" edge="1">
          <mxGeometry relative="1" as="geometry" />
        </mxCell>
        <mxCell id="5B_pEfnTFyZf6bQihWn--373" style="edgeStyle=none;curved=1;rounded=0;sketch=1;hachureGap=4;jiggle=2;curveFitting=1;orthogonalLoop=1;jettySize=auto;html=1;exitX=1;exitY=0;exitDx=0;exitDy=0;fontFamily=Architects Daughter;fontSource=https%3A%2F%2Ffonts.googleapis.com%2Fcss%3Ffamily%3DArchitects%2BDaughter;fontSize=16;startSize=14;endArrow=open;endSize=14;sourcePerimeterSpacing=8;targetPerimeterSpacing=8;" parent="1" source="5B_pEfnTFyZf6bQihWn--361" target="5B_pEfnTFyZf6bQihWn--369" edge="1">
          <mxGeometry relative="1" as="geometry" />
        </mxCell>
        <mxCell id="5B_pEfnTFyZf6bQihWn--374" style="edgeStyle=none;curved=1;rounded=0;sketch=1;hachureGap=4;jiggle=2;curveFitting=1;orthogonalLoop=1;jettySize=auto;html=1;exitX=1;exitY=0;exitDx=0;exitDy=0;entryX=0;entryY=0;entryDx=0;entryDy=0;fontFamily=Architects Daughter;fontSource=https%3A%2F%2Ffonts.googleapis.com%2Fcss%3Ffamily%3DArchitects%2BDaughter;fontSize=16;startSize=14;endArrow=open;endSize=14;sourcePerimeterSpacing=8;targetPerimeterSpacing=8;" parent="1" source="5B_pEfnTFyZf6bQihWn--361" target="5B_pEfnTFyZf6bQihWn--370" edge="1">
          <mxGeometry relative="1" as="geometry" />
        </mxCell>
        <mxCell id="5B_pEfnTFyZf6bQihWn--361" value="" style="rounded=0;whiteSpace=wrap;html=1;sketch=1;hachureGap=4;jiggle=2;curveFitting=1;fontFamily=Architects Daughter;fontSource=https%3A%2F%2Ffonts.googleapis.com%2Fcss%3Ffamily%3DArchitects%2BDaughter;" parent="1" vertex="1">
          <mxGeometry x="-889" y="7949" width="68" height="296" as="geometry" />
        </mxCell>
        <mxCell id="5B_pEfnTFyZf6bQihWn--364" style="edgeStyle=none;curved=1;rounded=0;sketch=1;hachureGap=4;jiggle=2;curveFitting=1;orthogonalLoop=1;jettySize=auto;html=1;exitX=1;exitY=0.5;exitDx=0;exitDy=0;entryX=0;entryY=0;entryDx=0;entryDy=0;fontFamily=Architects Daughter;fontSource=https%3A%2F%2Ffonts.googleapis.com%2Fcss%3Ffamily%3DArchitects%2BDaughter;fontSize=16;startSize=14;endArrow=open;endSize=14;sourcePerimeterSpacing=8;targetPerimeterSpacing=8;" parent="1" source="5B_pEfnTFyZf6bQihWn--362" target="5B_pEfnTFyZf6bQihWn--361" edge="1">
          <mxGeometry relative="1" as="geometry" />
        </mxCell>
        <mxCell id="5B_pEfnTFyZf6bQihWn--362" value="TH1" style="ellipse;whiteSpace=wrap;html=1;sketch=1;hachureGap=4;jiggle=2;curveFitting=1;fontFamily=Architects Daughter;fontSource=https%3A%2F%2Ffonts.googleapis.com%2Fcss%3Ffamily%3DArchitects%2BDaughter;" parent="1" vertex="1">
          <mxGeometry x="-1144" y="7918" width="80" height="80" as="geometry" />
        </mxCell>
        <mxCell id="5B_pEfnTFyZf6bQihWn--365" style="edgeStyle=none;curved=1;rounded=0;sketch=1;hachureGap=4;jiggle=2;curveFitting=1;orthogonalLoop=1;jettySize=auto;html=1;exitX=1;exitY=0.5;exitDx=0;exitDy=0;fontFamily=Architects Daughter;fontSource=https%3A%2F%2Ffonts.googleapis.com%2Fcss%3Ffamily%3DArchitects%2BDaughter;fontSize=16;startSize=14;endArrow=open;endSize=14;sourcePerimeterSpacing=8;targetPerimeterSpacing=8;" parent="1" source="5B_pEfnTFyZf6bQihWn--363" edge="1">
          <mxGeometry relative="1" as="geometry">
            <mxPoint x="-885.4670622452445" y="7946.278118631115" as="targetPoint" />
          </mxGeometry>
        </mxCell>
        <mxCell id="5B_pEfnTFyZf6bQihWn--363" value="TH1" style="ellipse;whiteSpace=wrap;html=1;sketch=1;hachureGap=4;jiggle=2;curveFitting=1;fontFamily=Architects Daughter;fontSource=https%3A%2F%2Ffonts.googleapis.com%2Fcss%3Ffamily%3DArchitects%2BDaughter;" parent="1" vertex="1">
          <mxGeometry x="-1139" y="8035" width="80" height="80" as="geometry" />
        </mxCell>
        <mxCell id="5B_pEfnTFyZf6bQihWn--367" value="TH1" style="ellipse;whiteSpace=wrap;html=1;sketch=1;hachureGap=4;jiggle=2;curveFitting=1;fontFamily=Architects Daughter;fontSource=https%3A%2F%2Ffonts.googleapis.com%2Fcss%3Ffamily%3DArchitects%2BDaughter;" parent="1" vertex="1">
          <mxGeometry x="-658" y="7935" width="80" height="80" as="geometry" />
        </mxCell>
        <mxCell id="5B_pEfnTFyZf6bQihWn--368" value="TH1" style="ellipse;whiteSpace=wrap;html=1;sketch=1;hachureGap=4;jiggle=2;curveFitting=1;fontFamily=Architects Daughter;fontSource=https%3A%2F%2Ffonts.googleapis.com%2Fcss%3Ffamily%3DArchitects%2BDaughter;" parent="1" vertex="1">
          <mxGeometry x="-651" y="8031" width="80" height="80" as="geometry" />
        </mxCell>
        <mxCell id="5B_pEfnTFyZf6bQihWn--369" value="TH1" style="ellipse;whiteSpace=wrap;html=1;sketch=1;hachureGap=4;jiggle=2;curveFitting=1;fontFamily=Architects Daughter;fontSource=https%3A%2F%2Ffonts.googleapis.com%2Fcss%3Ffamily%3DArchitects%2BDaughter;" parent="1" vertex="1">
          <mxGeometry x="-654" y="8129" width="80" height="80" as="geometry" />
        </mxCell>
        <mxCell id="5B_pEfnTFyZf6bQihWn--370" value="TH1" style="ellipse;whiteSpace=wrap;html=1;sketch=1;hachureGap=4;jiggle=2;curveFitting=1;fontFamily=Architects Daughter;fontSource=https%3A%2F%2Ffonts.googleapis.com%2Fcss%3Ffamily%3DArchitects%2BDaughter;" parent="1" vertex="1">
          <mxGeometry x="-654" y="8222" width="80" height="80" as="geometry" />
        </mxCell>
        <mxCell id="5B_pEfnTFyZf6bQihWn--375" value="D" style="whiteSpace=wrap;html=1;sketch=1;hachureGap=4;jiggle=2;curveFitting=1;fontFamily=Architects Daughter;fontSource=https%3A%2F%2Ffonts.googleapis.com%2Fcss%3Ffamily%3DArchitects%2BDaughter;" parent="1" vertex="1">
          <mxGeometry x="-814" y="7856" width="48" height="41" as="geometry" />
        </mxCell>
        <mxCell id="5B_pEfnTFyZf6bQihWn--376" value="QUEUE" style="text;html=1;align=center;verticalAlign=middle;resizable=0;points=[];autosize=1;strokeColor=none;fillColor=none;fontSize=20;fontFamily=Architects Daughter;fontSource=https%3A%2F%2Ffonts.googleapis.com%2Fcss%3Ffamily%3DArchitects%2BDaughter;" parent="1" vertex="1">
          <mxGeometry x="-911.5" y="7747" width="78" height="36" as="geometry" />
        </mxCell>
        <mxCell id="5B_pEfnTFyZf6bQihWn--377" value="APP" style="rounded=0;whiteSpace=wrap;html=1;sketch=1;hachureGap=4;jiggle=2;curveFitting=1;fontFamily=Architects Daughter;fontSource=https%3A%2F%2Ffonts.googleapis.com%2Fcss%3Ffamily%3DArchitects%2BDaughter;" parent="1" vertex="1">
          <mxGeometry x="-1194.5" y="8506" width="160" height="80" as="geometry" />
        </mxCell>
        <mxCell id="5B_pEfnTFyZf6bQihWn--378" value="APP" style="rounded=0;whiteSpace=wrap;html=1;sketch=1;hachureGap=4;jiggle=2;curveFitting=1;fontFamily=Architects Daughter;fontSource=https%3A%2F%2Ffonts.googleapis.com%2Fcss%3Ffamily%3DArchitects%2BDaughter;" parent="1" vertex="1">
          <mxGeometry x="-1194.5" y="8648" width="160" height="80" as="geometry" />
        </mxCell>
        <mxCell id="5B_pEfnTFyZf6bQihWn--381" value="KAFKA CLUSTER" style="rounded=0;whiteSpace=wrap;html=1;sketch=1;hachureGap=4;jiggle=2;curveFitting=1;fontFamily=Architects Daughter;fontSource=https%3A%2F%2Ffonts.googleapis.com%2Fcss%3Ffamily%3DArchitects%2BDaughter;verticalAlign=top;" parent="1" vertex="1">
          <mxGeometry x="-961" y="8444" width="202" height="347" as="geometry" />
        </mxCell>
        <mxCell id="5B_pEfnTFyZf6bQihWn--382" value="SERVER" style="whiteSpace=wrap;html=1;sketch=1;hachureGap=4;jiggle=2;curveFitting=1;fontFamily=Architects Daughter;fontSource=https%3A%2F%2Ffonts.googleapis.com%2Fcss%3Ffamily%3DArchitects%2BDaughter;" parent="1" vertex="1">
          <mxGeometry x="-688" y="8428" width="120" height="60" as="geometry" />
        </mxCell>
        <mxCell id="5B_pEfnTFyZf6bQihWn--383" value="SERVER" style="whiteSpace=wrap;html=1;sketch=1;hachureGap=4;jiggle=2;curveFitting=1;fontFamily=Architects Daughter;fontSource=https%3A%2F%2Ffonts.googleapis.com%2Fcss%3Ffamily%3DArchitects%2BDaughter;" parent="1" vertex="1">
          <mxGeometry x="-682" y="8506" width="120" height="60" as="geometry" />
        </mxCell>
        <mxCell id="5B_pEfnTFyZf6bQihWn--384" value="SERVER" style="whiteSpace=wrap;html=1;sketch=1;hachureGap=4;jiggle=2;curveFitting=1;fontFamily=Architects Daughter;fontSource=https%3A%2F%2Ffonts.googleapis.com%2Fcss%3Ffamily%3DArchitects%2BDaughter;" parent="1" vertex="1">
          <mxGeometry x="-671" y="8580" width="120" height="60" as="geometry" />
        </mxCell>
        <mxCell id="5B_pEfnTFyZf6bQihWn--385" value="SERVER" style="whiteSpace=wrap;html=1;sketch=1;hachureGap=4;jiggle=2;curveFitting=1;fontFamily=Architects Daughter;fontSource=https%3A%2F%2Ffonts.googleapis.com%2Fcss%3Ffamily%3DArchitects%2BDaughter;" parent="1" vertex="1">
          <mxGeometry x="-666" y="8655" width="120" height="60" as="geometry" />
        </mxCell>
        <mxCell id="5B_pEfnTFyZf6bQihWn--386" value="SERVER" style="whiteSpace=wrap;html=1;sketch=1;hachureGap=4;jiggle=2;curveFitting=1;fontFamily=Architects Daughter;fontSource=https%3A%2F%2Ffonts.googleapis.com%2Fcss%3Ffamily%3DArchitects%2BDaughter;" parent="1" vertex="1">
          <mxGeometry x="-667.5" y="8735" width="120" height="60" as="geometry" />
        </mxCell>
        <mxCell id="5B_pEfnTFyZf6bQihWn--380" value="KAFKA" style="rounded=0;whiteSpace=wrap;html=1;sketch=1;hachureGap=4;jiggle=2;curveFitting=1;fontFamily=Architects Daughter;fontSource=https%3A%2F%2Ffonts.googleapis.com%2Fcss%3Ffamily%3DArchitects%2BDaughter;" parent="1" vertex="1">
          <mxGeometry x="-940" y="8481" width="160" height="80" as="geometry" />
        </mxCell>
        <mxCell id="5B_pEfnTFyZf6bQihWn--387" value="KAFKA" style="rounded=0;whiteSpace=wrap;html=1;sketch=1;hachureGap=4;jiggle=2;curveFitting=1;fontFamily=Architects Daughter;fontSource=https%3A%2F%2Ffonts.googleapis.com%2Fcss%3Ffamily%3DArchitects%2BDaughter;" parent="1" vertex="1">
          <mxGeometry x="-940" y="8582" width="160" height="80" as="geometry" />
        </mxCell>
        <mxCell id="5B_pEfnTFyZf6bQihWn--388" value="KAFKA" style="rounded=0;whiteSpace=wrap;html=1;sketch=1;hachureGap=4;jiggle=2;curveFitting=1;fontFamily=Architects Daughter;fontSource=https%3A%2F%2Ffonts.googleapis.com%2Fcss%3Ffamily%3DArchitects%2BDaughter;" parent="1" vertex="1">
          <mxGeometry x="-940" y="8683" width="160" height="80" as="geometry" />
        </mxCell>
        <mxCell id="ERBlmVheBcgW23YvOZkG-1" value="" style="edgeStyle=none;orthogonalLoop=1;jettySize=auto;html=1;shape=flexArrow;rounded=1;startSize=8;endSize=8;sketch=1;hachureGap=4;jiggle=2;curveFitting=1;fontFamily=Architects Daughter;fontSource=https%3A%2F%2Ffonts.googleapis.com%2Fcss%3Ffamily%3DArchitects%2BDaughter;fontSize=16;endArrow=open;sourcePerimeterSpacing=8;targetPerimeterSpacing=8;" edge="1" parent="1">
          <mxGeometry width="140" relative="1" as="geometry">
            <mxPoint x="-892" y="9174" as="sourcePoint" />
            <mxPoint x="-888" y="9433" as="targetPoint" />
            <Array as="points" />
          </mxGeometry>
        </mxCell>
        <mxCell id="ERBlmVheBcgW23YvOZkG-2" value="" style="edgeStyle=none;orthogonalLoop=1;jettySize=auto;html=1;shape=flexArrow;rounded=1;startSize=8;endSize=8;sketch=1;hachureGap=4;jiggle=2;curveFitting=1;fontFamily=Architects Daughter;fontSource=https%3A%2F%2Ffonts.googleapis.com%2Fcss%3Ffamily%3DArchitects%2BDaughter;fontSize=16;endArrow=open;sourcePerimeterSpacing=8;targetPerimeterSpacing=8;" edge="1" parent="1">
          <mxGeometry width="140" relative="1" as="geometry">
            <mxPoint x="-814" y="9175" as="sourcePoint" />
            <mxPoint x="-810" y="9434" as="targetPoint" />
            <Array as="points" />
          </mxGeometry>
        </mxCell>
        <mxCell id="ERBlmVheBcgW23YvOZkG-3" value="" style="edgeStyle=none;orthogonalLoop=1;jettySize=auto;html=1;shape=flexArrow;rounded=1;startSize=8;endSize=8;sketch=1;hachureGap=4;jiggle=2;curveFitting=1;fontFamily=Architects Daughter;fontSource=https%3A%2F%2Ffonts.googleapis.com%2Fcss%3Ffamily%3DArchitects%2BDaughter;fontSize=16;endArrow=open;sourcePerimeterSpacing=8;targetPerimeterSpacing=8;" edge="1" parent="1">
          <mxGeometry width="140" relative="1" as="geometry">
            <mxPoint x="-716" y="9176" as="sourcePoint" />
            <mxPoint x="-712" y="9435" as="targetPoint" />
            <Array as="points" />
          </mxGeometry>
        </mxCell>
        <mxCell id="ERBlmVheBcgW23YvOZkG-4" value="" style="edgeStyle=none;orthogonalLoop=1;jettySize=auto;html=1;shape=flexArrow;rounded=1;startSize=8;endSize=8;sketch=1;hachureGap=4;jiggle=2;curveFitting=1;fontFamily=Architects Daughter;fontSource=https%3A%2F%2Ffonts.googleapis.com%2Fcss%3Ffamily%3DArchitects%2BDaughter;fontSize=16;endArrow=open;sourcePerimeterSpacing=8;targetPerimeterSpacing=8;" edge="1" parent="1">
          <mxGeometry width="140" relative="1" as="geometry">
            <mxPoint x="-639" y="9174" as="sourcePoint" />
            <mxPoint x="-635" y="9433" as="targetPoint" />
            <Array as="points" />
          </mxGeometry>
        </mxCell>
        <mxCell id="ERBlmVheBcgW23YvOZkG-5" value="TH1" style="ellipse;whiteSpace=wrap;html=1;sketch=1;hachureGap=4;jiggle=2;curveFitting=1;fontFamily=Verdana;" vertex="1" parent="1">
          <mxGeometry x="-945" y="9072" width="80" height="80" as="geometry" />
        </mxCell>
        <mxCell id="ERBlmVheBcgW23YvOZkG-6" value="TH1" style="ellipse;whiteSpace=wrap;html=1;sketch=1;hachureGap=4;jiggle=2;curveFitting=1;fontFamily=Verdana;" vertex="1" parent="1">
          <mxGeometry x="-857" y="9072" width="80" height="80" as="geometry" />
        </mxCell>
        <mxCell id="ERBlmVheBcgW23YvOZkG-7" value="TH1" style="ellipse;whiteSpace=wrap;html=1;sketch=1;hachureGap=4;jiggle=2;curveFitting=1;fontFamily=Verdana;" vertex="1" parent="1">
          <mxGeometry x="-768" y="9072" width="80" height="80" as="geometry" />
        </mxCell>
        <mxCell id="ERBlmVheBcgW23YvOZkG-8" value="TH1" style="ellipse;whiteSpace=wrap;html=1;sketch=1;hachureGap=4;jiggle=2;curveFitting=1;fontFamily=Verdana;" vertex="1" parent="1">
          <mxGeometry x="-672" y="9072" width="80" height="80" as="geometry" />
        </mxCell>
        <mxCell id="ERBlmVheBcgW23YvOZkG-9" value="" style="edgeStyle=none;orthogonalLoop=1;jettySize=auto;html=1;shape=flexArrow;rounded=1;startSize=8;endSize=8;sketch=1;hachureGap=4;jiggle=2;curveFitting=1;fontFamily=Architects Daughter;fontSource=https%3A%2F%2Ffonts.googleapis.com%2Fcss%3Ffamily%3DArchitects%2BDaughter;fontSize=16;endArrow=open;sourcePerimeterSpacing=8;targetPerimeterSpacing=8;" edge="1" parent="1">
          <mxGeometry width="140" relative="1" as="geometry">
            <mxPoint x="-464" y="9160" as="sourcePoint" />
            <mxPoint x="-464" y="9215" as="targetPoint" />
            <Array as="points" />
          </mxGeometry>
        </mxCell>
        <mxCell id="ERBlmVheBcgW23YvOZkG-10" value="" style="edgeStyle=none;orthogonalLoop=1;jettySize=auto;html=1;shape=flexArrow;rounded=1;startSize=8;endSize=8;sketch=1;hachureGap=4;jiggle=2;curveFitting=1;fontFamily=Architects Daughter;fontSource=https%3A%2F%2Ffonts.googleapis.com%2Fcss%3Ffamily%3DArchitects%2BDaughter;fontSize=16;endArrow=open;sourcePerimeterSpacing=8;targetPerimeterSpacing=8;" edge="1" parent="1">
          <mxGeometry width="140" relative="1" as="geometry">
            <mxPoint x="-351" y="9430" as="sourcePoint" />
            <mxPoint x="-342" y="9691" as="targetPoint" />
            <Array as="points" />
          </mxGeometry>
        </mxCell>
        <mxCell id="ERBlmVheBcgW23YvOZkG-13" value="TH1" style="ellipse;whiteSpace=wrap;html=1;sketch=1;hachureGap=4;jiggle=2;curveFitting=1;fontFamily=Verdana;" vertex="1" parent="1">
          <mxGeometry x="-505.5" y="9076" width="80" height="80" as="geometry" />
        </mxCell>
        <mxCell id="ERBlmVheBcgW23YvOZkG-14" value="TH2" style="ellipse;whiteSpace=wrap;html=1;sketch=1;hachureGap=4;jiggle=2;curveFitting=1;fontFamily=Verdana;" vertex="1" parent="1">
          <mxGeometry x="-407" y="9076" width="80" height="80" as="geometry" />
        </mxCell>
        <mxCell id="ERBlmVheBcgW23YvOZkG-15" value="TH3" style="ellipse;whiteSpace=wrap;html=1;sketch=1;hachureGap=4;jiggle=2;curveFitting=1;fontFamily=Verdana;" vertex="1" parent="1">
          <mxGeometry x="-294" y="9076" width="80" height="80" as="geometry" />
        </mxCell>
        <mxCell id="ERBlmVheBcgW23YvOZkG-16" value="TH4" style="ellipse;whiteSpace=wrap;html=1;sketch=1;hachureGap=4;jiggle=2;curveFitting=1;fontFamily=Verdana;" vertex="1" parent="1">
          <mxGeometry x="-198" y="9076" width="80" height="80" as="geometry" />
        </mxCell>
        <mxCell id="ERBlmVheBcgW23YvOZkG-20" value="" style="edgeStyle=none;orthogonalLoop=1;jettySize=auto;html=1;shape=flexArrow;rounded=1;startSize=8;endSize=8;sketch=1;hachureGap=4;jiggle=2;curveFitting=1;fontFamily=Architects Daughter;fontSource=https%3A%2F%2Ffonts.googleapis.com%2Fcss%3Ffamily%3DArchitects%2BDaughter;fontSize=16;endArrow=open;sourcePerimeterSpacing=8;targetPerimeterSpacing=8;entryX=0.134;entryY=0.952;entryDx=0;entryDy=0;entryPerimeter=0;" edge="1" parent="1" target="ERBlmVheBcgW23YvOZkG-17">
          <mxGeometry width="140" relative="1" as="geometry">
            <mxPoint x="-464" y="9218" as="sourcePoint" />
            <mxPoint x="-464" y="9273" as="targetPoint" />
            <Array as="points" />
          </mxGeometry>
        </mxCell>
        <mxCell id="ERBlmVheBcgW23YvOZkG-21" value="" style="edgeStyle=none;orthogonalLoop=1;jettySize=auto;html=1;shape=flexArrow;rounded=1;startSize=8;endSize=8;sketch=1;hachureGap=4;jiggle=2;curveFitting=1;fontFamily=Architects Daughter;fontSource=https%3A%2F%2Ffonts.googleapis.com%2Fcss%3Ffamily%3DArchitects%2BDaughter;fontSize=16;endArrow=open;sourcePerimeterSpacing=8;targetPerimeterSpacing=8;" edge="1" parent="1">
          <mxGeometry width="140" relative="1" as="geometry">
            <mxPoint x="-367.37" y="9160" as="sourcePoint" />
            <mxPoint x="-367.37" y="9215" as="targetPoint" />
            <Array as="points" />
          </mxGeometry>
        </mxCell>
        <mxCell id="ERBlmVheBcgW23YvOZkG-22" value="" style="edgeStyle=none;orthogonalLoop=1;jettySize=auto;html=1;shape=flexArrow;rounded=1;startSize=8;endSize=8;sketch=1;hachureGap=4;jiggle=2;curveFitting=1;fontFamily=Architects Daughter;fontSource=https%3A%2F%2Ffonts.googleapis.com%2Fcss%3Ffamily%3DArchitects%2BDaughter;fontSize=16;endArrow=open;sourcePerimeterSpacing=8;targetPerimeterSpacing=8;entryX=0.134;entryY=0.952;entryDx=0;entryDy=0;entryPerimeter=0;" edge="1" parent="1">
          <mxGeometry width="140" relative="1" as="geometry">
            <mxPoint x="-355" y="9327" as="sourcePoint" />
            <mxPoint x="-352" y="9426" as="targetPoint" />
            <Array as="points" />
          </mxGeometry>
        </mxCell>
        <mxCell id="ERBlmVheBcgW23YvOZkG-23" value="" style="edgeStyle=none;orthogonalLoop=1;jettySize=auto;html=1;shape=flexArrow;rounded=1;startSize=8;endSize=8;sketch=1;hachureGap=4;jiggle=2;curveFitting=1;fontFamily=Architects Daughter;fontSource=https%3A%2F%2Ffonts.googleapis.com%2Fcss%3Ffamily%3DArchitects%2BDaughter;fontSize=16;endArrow=open;sourcePerimeterSpacing=8;targetPerimeterSpacing=8;" edge="1" parent="1">
          <mxGeometry width="140" relative="1" as="geometry">
            <mxPoint x="-461" y="9329" as="sourcePoint" />
            <mxPoint x="-452" y="9590" as="targetPoint" />
            <Array as="points" />
          </mxGeometry>
        </mxCell>
        <mxCell id="ERBlmVheBcgW23YvOZkG-24" value="" style="edgeStyle=none;orthogonalLoop=1;jettySize=auto;html=1;shape=flexArrow;rounded=1;startSize=8;endSize=8;sketch=1;hachureGap=4;jiggle=2;curveFitting=1;fontFamily=Architects Daughter;fontSource=https%3A%2F%2Ffonts.googleapis.com%2Fcss%3Ffamily%3DArchitects%2BDaughter;fontSize=16;endArrow=open;sourcePerimeterSpacing=8;targetPerimeterSpacing=8;" edge="1" parent="1">
          <mxGeometry width="140" relative="1" as="geometry">
            <mxPoint x="-254.37" y="9163" as="sourcePoint" />
            <mxPoint x="-254.37" y="9218" as="targetPoint" />
            <Array as="points" />
          </mxGeometry>
        </mxCell>
        <mxCell id="ERBlmVheBcgW23YvOZkG-25" value="" style="edgeStyle=none;orthogonalLoop=1;jettySize=auto;html=1;shape=flexArrow;rounded=1;startSize=8;endSize=8;sketch=1;hachureGap=4;jiggle=2;curveFitting=1;fontFamily=Architects Daughter;fontSource=https%3A%2F%2Ffonts.googleapis.com%2Fcss%3Ffamily%3DArchitects%2BDaughter;fontSize=16;endArrow=open;sourcePerimeterSpacing=8;targetPerimeterSpacing=8;entryX=0.134;entryY=0.952;entryDx=0;entryDy=0;entryPerimeter=0;" edge="1" parent="1">
          <mxGeometry width="140" relative="1" as="geometry">
            <mxPoint x="-242" y="9433" as="sourcePoint" />
            <mxPoint x="-239" y="9532" as="targetPoint" />
            <Array as="points" />
          </mxGeometry>
        </mxCell>
        <mxCell id="ERBlmVheBcgW23YvOZkG-26" value="" style="edgeStyle=none;orthogonalLoop=1;jettySize=auto;html=1;shape=flexArrow;rounded=1;startSize=8;endSize=8;sketch=1;hachureGap=4;jiggle=2;curveFitting=1;fontFamily=Architects Daughter;fontSource=https%3A%2F%2Ffonts.googleapis.com%2Fcss%3Ffamily%3DArchitects%2BDaughter;fontSize=16;endArrow=open;sourcePerimeterSpacing=8;targetPerimeterSpacing=8;" edge="1" parent="1">
          <mxGeometry width="140" relative="1" as="geometry">
            <mxPoint x="-238" y="9533" as="sourcePoint" />
            <mxPoint x="-229" y="9794" as="targetPoint" />
            <Array as="points" />
          </mxGeometry>
        </mxCell>
        <mxCell id="ERBlmVheBcgW23YvOZkG-27" value="" style="edgeStyle=none;orthogonalLoop=1;jettySize=auto;html=1;shape=flexArrow;rounded=1;startSize=8;endSize=8;sketch=1;hachureGap=4;jiggle=2;curveFitting=1;fontFamily=Architects Daughter;fontSource=https%3A%2F%2Ffonts.googleapis.com%2Fcss%3Ffamily%3DArchitects%2BDaughter;fontSize=16;endArrow=open;sourcePerimeterSpacing=8;targetPerimeterSpacing=8;" edge="1" parent="1">
          <mxGeometry width="140" relative="1" as="geometry">
            <mxPoint x="-149.74" y="9163" as="sourcePoint" />
            <mxPoint x="-149.74" y="9218" as="targetPoint" />
            <Array as="points" />
          </mxGeometry>
        </mxCell>
        <mxCell id="ERBlmVheBcgW23YvOZkG-29" value="" style="edgeStyle=none;orthogonalLoop=1;jettySize=auto;html=1;shape=flexArrow;rounded=1;startSize=8;endSize=8;sketch=1;hachureGap=4;jiggle=2;curveFitting=1;fontFamily=Architects Daughter;fontSource=https%3A%2F%2Ffonts.googleapis.com%2Fcss%3Ffamily%3DArchitects%2BDaughter;fontSize=16;endArrow=open;sourcePerimeterSpacing=8;targetPerimeterSpacing=8;entryX=0.134;entryY=0.952;entryDx=0;entryDy=0;entryPerimeter=0;" edge="1" parent="1">
          <mxGeometry width="140" relative="1" as="geometry">
            <mxPoint x="-132.5" y="9538" as="sourcePoint" />
            <mxPoint x="-129.5" y="9637" as="targetPoint" />
            <Array as="points" />
          </mxGeometry>
        </mxCell>
        <mxCell id="ERBlmVheBcgW23YvOZkG-30" value="" style="edgeStyle=none;orthogonalLoop=1;jettySize=auto;html=1;shape=flexArrow;rounded=1;startSize=8;endSize=8;sketch=1;hachureGap=4;jiggle=2;curveFitting=1;fontFamily=Architects Daughter;fontSource=https%3A%2F%2Ffonts.googleapis.com%2Fcss%3Ffamily%3DArchitects%2BDaughter;fontSize=16;endArrow=open;sourcePerimeterSpacing=8;targetPerimeterSpacing=8;" edge="1" parent="1">
          <mxGeometry width="140" relative="1" as="geometry">
            <mxPoint x="-129.5" y="9638" as="sourcePoint" />
            <mxPoint x="-120.5" y="9899" as="targetPoint" />
            <Array as="points" />
          </mxGeometry>
        </mxCell>
        <mxCell id="ERBlmVheBcgW23YvOZkG-31" value="TH5" style="ellipse;whiteSpace=wrap;html=1;sketch=1;hachureGap=4;jiggle=2;curveFitting=1;fontFamily=Verdana;" vertex="1" parent="1">
          <mxGeometry x="-94" y="9078" width="80" height="80" as="geometry" />
        </mxCell>
        <mxCell id="ERBlmVheBcgW23YvOZkG-32" value="" style="edgeStyle=none;orthogonalLoop=1;jettySize=auto;html=1;shape=flexArrow;rounded=1;startSize=8;endSize=8;sketch=1;hachureGap=4;jiggle=2;curveFitting=1;fontFamily=Architects Daughter;fontSource=https%3A%2F%2Ffonts.googleapis.com%2Fcss%3Ffamily%3DArchitects%2BDaughter;fontSize=16;endArrow=open;sourcePerimeterSpacing=8;targetPerimeterSpacing=8;" edge="1" parent="1">
          <mxGeometry width="140" relative="1" as="geometry">
            <mxPoint x="-45.74000000000001" y="9165" as="sourcePoint" />
            <mxPoint x="-45.74000000000001" y="9220" as="targetPoint" />
            <Array as="points" />
          </mxGeometry>
        </mxCell>
        <mxCell id="ERBlmVheBcgW23YvOZkG-33" value="TH6" style="ellipse;whiteSpace=wrap;html=1;sketch=1;hachureGap=4;jiggle=2;curveFitting=1;fontFamily=Verdana;" vertex="1" parent="1">
          <mxGeometry x="8" y="9078" width="80" height="80" as="geometry" />
        </mxCell>
        <mxCell id="ERBlmVheBcgW23YvOZkG-34" value="" style="edgeStyle=none;orthogonalLoop=1;jettySize=auto;html=1;shape=flexArrow;rounded=1;startSize=8;endSize=8;sketch=1;hachureGap=4;jiggle=2;curveFitting=1;fontFamily=Architects Daughter;fontSource=https%3A%2F%2Ffonts.googleapis.com%2Fcss%3Ffamily%3DArchitects%2BDaughter;fontSize=16;endArrow=open;sourcePerimeterSpacing=8;targetPerimeterSpacing=8;" edge="1" parent="1">
          <mxGeometry width="140" relative="1" as="geometry">
            <mxPoint x="52.56999999999999" y="9163" as="sourcePoint" />
            <mxPoint x="52.56999999999999" y="9218" as="targetPoint" />
            <Array as="points" />
          </mxGeometry>
        </mxCell>
        <mxCell id="ERBlmVheBcgW23YvOZkG-35" value="TH7" style="ellipse;whiteSpace=wrap;html=1;sketch=1;hachureGap=4;jiggle=2;curveFitting=1;fontFamily=Verdana;" vertex="1" parent="1">
          <mxGeometry x="103" y="9083" width="80" height="80" as="geometry" />
        </mxCell>
        <mxCell id="ERBlmVheBcgW23YvOZkG-36" value="" style="edgeStyle=none;orthogonalLoop=1;jettySize=auto;html=1;shape=flexArrow;rounded=1;startSize=8;endSize=8;sketch=1;hachureGap=4;jiggle=2;curveFitting=1;fontFamily=Architects Daughter;fontSource=https%3A%2F%2Ffonts.googleapis.com%2Fcss%3Ffamily%3DArchitects%2BDaughter;fontSize=16;endArrow=open;sourcePerimeterSpacing=8;targetPerimeterSpacing=8;" edge="1" parent="1">
          <mxGeometry width="140" relative="1" as="geometry">
            <mxPoint x="147.57" y="9168" as="sourcePoint" />
            <mxPoint x="147.57" y="9223" as="targetPoint" />
            <Array as="points" />
          </mxGeometry>
        </mxCell>
        <mxCell id="ERBlmVheBcgW23YvOZkG-37" value="TH7" style="ellipse;whiteSpace=wrap;html=1;sketch=1;hachureGap=4;jiggle=2;curveFitting=1;fontFamily=Verdana;" vertex="1" parent="1">
          <mxGeometry x="208" y="9076" width="80" height="80" as="geometry" />
        </mxCell>
        <mxCell id="ERBlmVheBcgW23YvOZkG-38" value="" style="edgeStyle=none;orthogonalLoop=1;jettySize=auto;html=1;shape=flexArrow;rounded=1;startSize=8;endSize=8;sketch=1;hachureGap=4;jiggle=2;curveFitting=1;fontFamily=Architects Daughter;fontSource=https%3A%2F%2Ffonts.googleapis.com%2Fcss%3Ffamily%3DArchitects%2BDaughter;fontSize=16;endArrow=open;sourcePerimeterSpacing=8;targetPerimeterSpacing=8;" edge="1" parent="1">
          <mxGeometry width="140" relative="1" as="geometry">
            <mxPoint x="252.57" y="9161" as="sourcePoint" />
            <mxPoint x="252.57" y="9216" as="targetPoint" />
            <Array as="points" />
          </mxGeometry>
        </mxCell>
        <mxCell id="ERBlmVheBcgW23YvOZkG-39" value="" style="edgeStyle=none;orthogonalLoop=1;jettySize=auto;html=1;shape=flexArrow;rounded=1;startSize=8;endSize=8;sketch=1;hachureGap=4;jiggle=2;curveFitting=1;fontFamily=Architects Daughter;fontSource=https%3A%2F%2Ffonts.googleapis.com%2Fcss%3Ffamily%3DArchitects%2BDaughter;fontSize=16;endArrow=open;sourcePerimeterSpacing=8;targetPerimeterSpacing=8;" edge="1" parent="1">
          <mxGeometry width="140" relative="1" as="geometry">
            <mxPoint x="52" y="9221" as="sourcePoint" />
            <mxPoint x="61" y="9482" as="targetPoint" />
            <Array as="points" />
          </mxGeometry>
        </mxCell>
        <mxCell id="ERBlmVheBcgW23YvOZkG-40" value="" style="edgeStyle=none;orthogonalLoop=1;jettySize=auto;html=1;shape=flexArrow;rounded=1;startSize=8;endSize=8;sketch=1;hachureGap=4;jiggle=2;curveFitting=1;fontFamily=Architects Daughter;fontSource=https%3A%2F%2Ffonts.googleapis.com%2Fcss%3Ffamily%3DArchitects%2BDaughter;fontSize=16;endArrow=open;sourcePerimeterSpacing=8;targetPerimeterSpacing=8;" edge="1" parent="1">
          <mxGeometry width="140" relative="1" as="geometry">
            <mxPoint x="147.5" y="9322" as="sourcePoint" />
            <mxPoint x="156.5" y="9583" as="targetPoint" />
            <Array as="points" />
          </mxGeometry>
        </mxCell>
        <mxCell id="ERBlmVheBcgW23YvOZkG-41" value="" style="whiteSpace=wrap;html=1;sketch=1;hachureGap=4;jiggle=2;curveFitting=1;fontFamily=Architects Daughter;fontSource=https%3A%2F%2Ffonts.googleapis.com%2Fcss%3Ffamily%3DArchitects%2BDaughter;" vertex="1" parent="1">
          <mxGeometry x="-489" y="9992" width="449" height="502" as="geometry" />
        </mxCell>
        <mxCell id="ERBlmVheBcgW23YvOZkG-42" value="Concurrent Block" style="text;html=1;align=center;verticalAlign=middle;resizable=0;points=[];autosize=1;strokeColor=none;fillColor=none;fontSize=20;fontFamily=Architects Daughter;fontSource=https%3A%2F%2Ffonts.googleapis.com%2Fcss%3Ffamily%3DArchitects%2BDaughter;" vertex="1" parent="1">
          <mxGeometry x="-376" y="9950" width="189" height="36" as="geometry" />
        </mxCell>
        <mxCell id="ERBlmVheBcgW23YvOZkG-44" value="" style="whiteSpace=wrap;html=1;sketch=1;hachureGap=4;jiggle=2;curveFitting=1;fontFamily=Architects Daughter;fontSource=https%3A%2F%2Ffonts.googleapis.com%2Fcss%3Ffamily%3DArchitects%2BDaughter;" vertex="1" parent="1">
          <mxGeometry x="-479" y="10168" width="429" height="172" as="geometry" />
        </mxCell>
        <mxCell id="ERBlmVheBcgW23YvOZkG-45" value="Normal Block" style="text;html=1;align=center;verticalAlign=middle;resizable=0;points=[];autosize=1;strokeColor=none;fillColor=none;fontSize=20;fontFamily=Architects Daughter;fontSource=https%3A%2F%2Ffonts.googleapis.com%2Fcss%3Ffamily%3DArchitects%2BDaughter;" vertex="1" parent="1">
          <mxGeometry x="-341.5" y="10153" width="143" height="36" as="geometry" />
        </mxCell>
        <mxCell id="ERBlmVheBcgW23YvOZkG-46" value="" style="whiteSpace=wrap;html=1;sketch=1;hachureGap=4;jiggle=2;curveFitting=1;fontFamily=Architects Daughter;fontSource=https%3A%2F%2Ffonts.googleapis.com%2Fcss%3Ffamily%3DArchitects%2BDaughter;" vertex="1" parent="1">
          <mxGeometry x="6" y="9992" width="429" height="172" as="geometry" />
        </mxCell>
        <mxCell id="ERBlmVheBcgW23YvOZkG-47" value="Concurrent Block" style="text;html=1;align=center;verticalAlign=middle;resizable=0;points=[];autosize=1;strokeColor=none;fillColor=none;fontSize=20;fontFamily=Architects Daughter;fontSource=https%3A%2F%2Ffonts.googleapis.com%2Fcss%3Ffamily%3DArchitects%2BDaughter;" vertex="1" parent="1">
          <mxGeometry x="137" y="9956" width="189" height="36" as="geometry" />
        </mxCell>
        <mxCell id="ERBlmVheBcgW23YvOZkG-48" value="" style="whiteSpace=wrap;html=1;sketch=1;hachureGap=4;jiggle=2;curveFitting=1;fontFamily=Architects Daughter;fontSource=https%3A%2F%2Ffonts.googleapis.com%2Fcss%3Ffamily%3DArchitects%2BDaughter;" vertex="1" parent="1">
          <mxGeometry x="8" y="10172" width="429" height="145" as="geometry" />
        </mxCell>
        <mxCell id="ERBlmVheBcgW23YvOZkG-49" value="Normal Block" style="text;html=1;align=center;verticalAlign=middle;resizable=0;points=[];autosize=1;strokeColor=none;fillColor=none;fontSize=20;fontFamily=Architects Daughter;fontSource=https%3A%2F%2Ffonts.googleapis.com%2Fcss%3Ffamily%3DArchitects%2BDaughter;" vertex="1" parent="1">
          <mxGeometry x="128.5" y="10157" width="143" height="36" as="geometry" />
        </mxCell>
        <mxCell id="ERBlmVheBcgW23YvOZkG-50" value="" style="whiteSpace=wrap;html=1;sketch=1;hachureGap=4;jiggle=2;curveFitting=1;fontFamily=Architects Daughter;fontSource=https%3A%2F%2Ffonts.googleapis.com%2Fcss%3Ffamily%3DArchitects%2BDaughter;" vertex="1" parent="1">
          <mxGeometry x="8" y="10326" width="429" height="172" as="geometry" />
        </mxCell>
        <mxCell id="ERBlmVheBcgW23YvOZkG-51" value="Concurrent Block" style="text;html=1;align=center;verticalAlign=middle;resizable=0;points=[];autosize=1;strokeColor=none;fillColor=none;fontSize=20;fontFamily=Architects Daughter;fontSource=https%3A%2F%2Ffonts.googleapis.com%2Fcss%3Ffamily%3DArchitects%2BDaughter;" vertex="1" parent="1">
          <mxGeometry x="131" y="10312" width="189" height="36" as="geometry" />
        </mxCell>
        <mxCell id="ERBlmVheBcgW23YvOZkG-52" value="READ" style="rounded=0;whiteSpace=wrap;html=1;sketch=1;hachureGap=4;jiggle=2;curveFitting=1;fontFamily=Architects Daughter;fontSource=https%3A%2F%2Ffonts.googleapis.com%2Fcss%3Ffamily%3DArchitects%2BDaughter;" vertex="1" parent="1">
          <mxGeometry x="-430.5" y="10779" width="294" height="80" as="geometry" />
        </mxCell>
        <mxCell id="ERBlmVheBcgW23YvOZkG-53" value="WRITE" style="rounded=0;whiteSpace=wrap;html=1;sketch=1;hachureGap=4;jiggle=2;curveFitting=1;fontFamily=Architects Daughter;fontSource=https%3A%2F%2Ffonts.googleapis.com%2Fcss%3Ffamily%3DArchitects%2BDaughter;" vertex="1" parent="1">
          <mxGeometry x="-430.5" y="10692" width="294" height="80" as="geometry" />
        </mxCell>
        <mxCell id="ERBlmVheBcgW23YvOZkG-54" value="READ" style="rounded=0;whiteSpace=wrap;html=1;sketch=1;hachureGap=4;jiggle=2;curveFitting=1;fontFamily=Architects Daughter;fontSource=https%3A%2F%2Ffonts.googleapis.com%2Fcss%3Ffamily%3DArchitects%2BDaughter;" vertex="1" parent="1">
          <mxGeometry x="-130" y="10864" width="294" height="80" as="geometry" />
        </mxCell>
        <mxCell id="ERBlmVheBcgW23YvOZkG-56" value="READ" style="rounded=0;whiteSpace=wrap;html=1;sketch=1;hachureGap=4;jiggle=2;curveFitting=1;fontFamily=Architects Daughter;fontSource=https%3A%2F%2Ffonts.googleapis.com%2Fcss%3Ffamily%3DArchitects%2BDaughter;" vertex="1" parent="1">
          <mxGeometry x="188" y="10944" width="294" height="80" as="geometry" />
        </mxCell>
        <mxCell id="ERBlmVheBcgW23YvOZkG-57" value="READ" style="rounded=0;whiteSpace=wrap;html=1;sketch=1;hachureGap=4;jiggle=2;curveFitting=1;fontFamily=Architects Daughter;fontSource=https%3A%2F%2Ffonts.googleapis.com%2Fcss%3Ffamily%3DArchitects%2BDaughter;" vertex="1" parent="1">
          <mxGeometry x="-464.5" y="11139" width="294" height="80" as="geometry" />
        </mxCell>
        <mxCell id="ERBlmVheBcgW23YvOZkG-58" value="WRITE" style="rounded=0;whiteSpace=wrap;html=1;sketch=1;hachureGap=4;jiggle=2;curveFitting=1;fontFamily=Architects Daughter;fontSource=https%3A%2F%2Ffonts.googleapis.com%2Fcss%3Ffamily%3DArchitects%2BDaughter;" vertex="1" parent="1">
          <mxGeometry x="-464.5" y="11052" width="294" height="80" as="geometry" />
        </mxCell>
        <mxCell id="ERBlmVheBcgW23YvOZkG-59" value="READ" style="rounded=0;whiteSpace=wrap;html=1;sketch=1;hachureGap=4;jiggle=2;curveFitting=1;fontFamily=Architects Daughter;fontSource=https%3A%2F%2Ffonts.googleapis.com%2Fcss%3Ffamily%3DArchitects%2BDaughter;" vertex="1" parent="1">
          <mxGeometry x="-163" y="11139" width="294" height="80" as="geometry" />
        </mxCell>
        <mxCell id="ERBlmVheBcgW23YvOZkG-60" value="READ" style="rounded=0;whiteSpace=wrap;html=1;sketch=1;hachureGap=4;jiggle=2;curveFitting=1;fontFamily=Architects Daughter;fontSource=https%3A%2F%2Ffonts.googleapis.com%2Fcss%3Ffamily%3DArchitects%2BDaughter;" vertex="1" parent="1">
          <mxGeometry x="138" y="11139" width="294" height="80" as="geometry" />
        </mxCell>
        <mxCell id="ERBlmVheBcgW23YvOZkG-61" value="" style="whiteSpace=wrap;html=1;sketch=1;hachureGap=4;jiggle=2;curveFitting=1;fontFamily=Architects Daughter;fontSource=https%3A%2F%2Ffonts.googleapis.com%2Fcss%3Ffamily%3DArchitects%2BDaughter;" vertex="1" parent="1">
          <mxGeometry x="-381.5" y="11377" width="307.5" height="259" as="geometry" />
        </mxCell>
        <mxCell id="ERBlmVheBcgW23YvOZkG-62" value="Counter" style="text;html=1;align=center;verticalAlign=middle;resizable=0;points=[];autosize=1;strokeColor=none;fillColor=none;fontSize=20;fontFamily=Architects Daughter;fontSource=https%3A%2F%2Ffonts.googleapis.com%2Fcss%3Ffamily%3DArchitects%2BDaughter;" vertex="1" parent="1">
          <mxGeometry x="-284.5" y="11316" width="94" height="36" as="geometry" />
        </mxCell>
        <mxCell id="ERBlmVheBcgW23YvOZkG-63" value="" style="whiteSpace=wrap;html=1;sketch=1;hachureGap=4;jiggle=2;curveFitting=1;fontFamily=Architects Daughter;fontSource=https%3A%2F%2Ffonts.googleapis.com%2Fcss%3Ffamily%3DArchitects%2BDaughter;" vertex="1" parent="1">
          <mxGeometry x="-371.5" y="11387" width="134.5" height="101" as="geometry" />
        </mxCell>
        <mxCell id="ERBlmVheBcgW23YvOZkG-64" value="" style="whiteSpace=wrap;html=1;sketch=1;hachureGap=4;jiggle=2;curveFitting=1;fontFamily=Architects Daughter;fontSource=https%3A%2F%2Ffonts.googleapis.com%2Fcss%3Ffamily%3DArchitects%2BDaughter;" vertex="1" parent="1">
          <mxGeometry x="-228.25" y="11387" width="141.25" height="101" as="geometry" />
        </mxCell>
        <mxCell id="ERBlmVheBcgW23YvOZkG-65" value="" style="whiteSpace=wrap;html=1;sketch=1;hachureGap=4;jiggle=2;curveFitting=1;fontFamily=Architects Daughter;fontSource=https%3A%2F%2Ffonts.googleapis.com%2Fcss%3Ffamily%3DArchitects%2BDaughter;" vertex="1" parent="1">
          <mxGeometry x="-361.5" y="11397" width="56.5" height="41" as="geometry" />
        </mxCell>
        <mxCell id="ERBlmVheBcgW23YvOZkG-66" value="" style="whiteSpace=wrap;html=1;sketch=1;hachureGap=4;jiggle=2;curveFitting=1;fontFamily=Architects Daughter;fontSource=https%3A%2F%2Ffonts.googleapis.com%2Fcss%3Ffamily%3DArchitects%2BDaughter;" vertex="1" parent="1">
          <mxGeometry x="-298.5" y="11397" width="56.5" height="41" as="geometry" />
        </mxCell>
        <mxCell id="ERBlmVheBcgW23YvOZkG-67" value="" style="whiteSpace=wrap;html=1;sketch=1;hachureGap=4;jiggle=2;curveFitting=1;fontFamily=Architects Daughter;fontSource=https%3A%2F%2Ffonts.googleapis.com%2Fcss%3Ffamily%3DArchitects%2BDaughter;" vertex="1" parent="1">
          <mxGeometry x="-214.5" y="11399" width="56.5" height="41" as="geometry" />
        </mxCell>
        <mxCell id="ERBlmVheBcgW23YvOZkG-68" value="" style="whiteSpace=wrap;html=1;sketch=1;hachureGap=4;jiggle=2;curveFitting=1;fontFamily=Architects Daughter;fontSource=https%3A%2F%2Ffonts.googleapis.com%2Fcss%3Ffamily%3DArchitects%2BDaughter;" vertex="1" parent="1">
          <mxGeometry x="-151.5" y="11399" width="56.5" height="41" as="geometry" />
        </mxCell>
        <mxCell id="ERBlmVheBcgW23YvOZkG-69" value="company1.rest.add" style="text;html=1;align=center;verticalAlign=middle;resizable=0;points=[];autosize=1;strokeColor=none;fillColor=none;fontSize=20;fontFamily=Verdana;" vertex="1" parent="1">
          <mxGeometry x="-116" y="11324" width="212" height="36" as="geometry" />
        </mxCell>
        <mxCell id="ERBlmVheBcgW23YvOZkG-70" value="" style="whiteSpace=wrap;html=1;sketch=1;hachureGap=4;jiggle=2;curveFitting=1;fontFamily=Architects Daughter;fontSource=https%3A%2F%2Ffonts.googleapis.com%2Fcss%3Ffamily%3DArchitects%2BDaughter;" vertex="1" parent="1">
          <mxGeometry x="-355" y="11404" width="15.5" height="15" as="geometry" />
        </mxCell>
        <mxCell id="ERBlmVheBcgW23YvOZkG-71" value="" style="whiteSpace=wrap;html=1;sketch=1;hachureGap=4;jiggle=2;curveFitting=1;fontFamily=Architects Daughter;fontSource=https%3A%2F%2Ffonts.googleapis.com%2Fcss%3Ffamily%3DArchitects%2BDaughter;" vertex="1" parent="1">
          <mxGeometry x="-294.5" y="11404" width="15.5" height="15" as="geometry" />
        </mxCell>
        <mxCell id="ERBlmVheBcgW23YvOZkG-72" value="APP" style="whiteSpace=wrap;html=1;sketch=1;hachureGap=4;jiggle=2;curveFitting=1;fontFamily=Architects Daughter;fontSource=https%3A%2F%2Ffonts.googleapis.com%2Fcss%3Ffamily%3DArchitects%2BDaughter;" vertex="1" parent="1">
          <mxGeometry x="-562" y="12044" width="391" height="281" as="geometry" />
        </mxCell>
        <mxCell id="ERBlmVheBcgW23YvOZkG-74" value="DB" style="shape=cylinder3;whiteSpace=wrap;html=1;boundedLbl=1;backgroundOutline=1;size=15;sketch=1;hachureGap=4;jiggle=2;curveFitting=1;fontFamily=Architects Daughter;fontSource=https%3A%2F%2Ffonts.googleapis.com%2Fcss%3Ffamily%3DArchitects%2BDaughter;" vertex="1" parent="1">
          <mxGeometry x="67" y="12234" width="193" height="199" as="geometry" />
        </mxCell>
        <mxCell id="ERBlmVheBcgW23YvOZkG-75" value="CACHE" style="whiteSpace=wrap;html=1;sketch=1;hachureGap=4;jiggle=2;curveFitting=1;fontFamily=Architects Daughter;fontSource=https%3A%2F%2Ffonts.googleapis.com%2Fcss%3Ffamily%3DArchitects%2BDaughter;" vertex="1" parent="1">
          <mxGeometry x="175" y="11871" width="165" height="156" as="geometry" />
        </mxCell>
        <mxCell id="ERBlmVheBcgW23YvOZkG-77" value="APP" style="whiteSpace=wrap;html=1;sketch=1;hachureGap=4;jiggle=2;curveFitting=1;fontFamily=Architects Daughter;fontSource=https%3A%2F%2Ffonts.googleapis.com%2Fcss%3Ffamily%3DArchitects%2BDaughter;" vertex="1" parent="1">
          <mxGeometry x="-568" y="12374" width="307" height="163" as="geometry" />
        </mxCell>
        <mxCell id="ERBlmVheBcgW23YvOZkG-78" value="&lt;font face=&quot;Verdana&quot;&gt;CPU - %12&lt;/font&gt;" style="text;html=1;align=center;verticalAlign=middle;resizable=0;points=[];autosize=1;strokeColor=none;fillColor=none;fontSize=20;fontFamily=Architects Daughter;fontSource=https%3A%2F%2Ffonts.googleapis.com%2Fcss%3Ffamily%3DArchitects%2BDaughter;" vertex="1" parent="1">
          <mxGeometry x="-368.75" y="12844" width="129" height="38" as="geometry" />
        </mxCell>
        <mxCell id="ERBlmVheBcgW23YvOZkG-79" value="CORE1 - 100%" style="text;html=1;align=center;verticalAlign=middle;resizable=0;points=[];autosize=1;strokeColor=none;fillColor=none;fontSize=20;fontFamily=Verdana;" vertex="1" parent="1">
          <mxGeometry x="-120" y="12844" width="170" height="36" as="geometry" />
        </mxCell>
        <mxCell id="ERBlmVheBcgW23YvOZkG-80" value="CORE2 - 100%" style="text;html=1;align=center;verticalAlign=middle;resizable=0;points=[];autosize=1;strokeColor=none;fillColor=none;fontSize=20;fontFamily=Verdana;" vertex="1" parent="1">
          <mxGeometry x="80.5" y="12844" width="170" height="36" as="geometry" />
        </mxCell>
        <mxCell id="ERBlmVheBcgW23YvOZkG-81" value="" style="edgeStyle=none;orthogonalLoop=1;jettySize=auto;html=1;shape=flexArrow;rounded=1;startSize=8;endSize=8;sketch=1;hachureGap=4;jiggle=2;curveFitting=1;fontFamily=Architects Daughter;fontSource=https%3A%2F%2Ffonts.googleapis.com%2Fcss%3Ffamily%3DArchitects%2BDaughter;fontSize=16;endArrow=open;sourcePerimeterSpacing=8;targetPerimeterSpacing=8;" edge="1" parent="1">
          <mxGeometry width="140" relative="1" as="geometry">
            <mxPoint x="-334" y="13332" as="sourcePoint" />
            <mxPoint x="327" y="13327" as="targetPoint" />
            <Array as="points" />
          </mxGeometry>
        </mxCell>
        <mxCell id="ERBlmVheBcgW23YvOZkG-82" value="" style="edgeStyle=none;orthogonalLoop=1;jettySize=auto;html=1;shape=flexArrow;rounded=1;startSize=8;endSize=8;sketch=1;hachureGap=4;jiggle=2;curveFitting=1;fontFamily=Architects Daughter;fontSource=https%3A%2F%2Ffonts.googleapis.com%2Fcss%3Ffamily%3DArchitects%2BDaughter;fontSize=16;endArrow=open;sourcePerimeterSpacing=8;targetPerimeterSpacing=8;" edge="1" parent="1">
          <mxGeometry width="140" relative="1" as="geometry">
            <mxPoint x="-328.05" y="13328" as="sourcePoint" />
            <mxPoint x="-328.05" y="12943" as="targetPoint" />
            <Array as="points" />
          </mxGeometry>
        </mxCell>
        <mxCell id="ERBlmVheBcgW23YvOZkG-83" value="" style="edgeStyle=none;orthogonalLoop=1;jettySize=auto;html=1;rounded=0;sketch=1;hachureGap=4;jiggle=2;curveFitting=1;fontFamily=Architects Daughter;fontSource=https%3A%2F%2Ffonts.googleapis.com%2Fcss%3Ffamily%3DArchitects%2BDaughter;fontSize=16;startSize=14;endArrow=open;endSize=14;sourcePerimeterSpacing=8;targetPerimeterSpacing=8;" edge="1" parent="1">
          <mxGeometry width="140" relative="1" as="geometry">
            <mxPoint x="-394.5" y="13106" as="sourcePoint" />
            <mxPoint x="287" y="13098" as="targetPoint" />
            <Array as="points" />
          </mxGeometry>
        </mxCell>
        <mxCell id="ERBlmVheBcgW23YvOZkG-84" value="%70" style="text;html=1;align=center;verticalAlign=middle;resizable=0;points=[];autosize=1;strokeColor=none;fillColor=none;fontSize=20;fontFamily=Architects Daughter;fontSource=https%3A%2F%2Ffonts.googleapis.com%2Fcss%3Ffamily%3DArchitects%2BDaughter;" vertex="1" parent="1">
          <mxGeometry x="-455" y="13097" width="53" height="36" as="geometry" />
        </mxCell>
        <mxCell id="ERBlmVheBcgW23YvOZkG-85" value="" style="edgeStyle=none;orthogonalLoop=1;jettySize=auto;html=1;rounded=0;sketch=1;hachureGap=4;jiggle=2;curveFitting=1;fontFamily=Architects Daughter;fontSource=https%3A%2F%2Ffonts.googleapis.com%2Fcss%3Ffamily%3DArchitects%2BDaughter;fontSize=16;startSize=14;endArrow=open;endSize=14;sourcePerimeterSpacing=8;targetPerimeterSpacing=8;" edge="1" parent="1">
          <mxGeometry width="140" relative="1" as="geometry">
            <mxPoint x="-394.5" y="13047" as="sourcePoint" />
            <mxPoint x="285" y="13037" as="targetPoint" />
            <Array as="points" />
          </mxGeometry>
        </mxCell>
        <mxCell id="ERBlmVheBcgW23YvOZkG-86" value="%80" style="text;html=1;align=center;verticalAlign=middle;resizable=0;points=[];autosize=1;strokeColor=none;fillColor=none;fontSize=20;fontFamily=Architects Daughter;fontSource=https%3A%2F%2Ffonts.googleapis.com%2Fcss%3Ffamily%3DArchitects%2BDaughter;" vertex="1" parent="1">
          <mxGeometry x="-451" y="13036" width="54" height="36" as="geometry" />
        </mxCell>
        <mxCell id="ERBlmVheBcgW23YvOZkG-87" value="200TPS" style="text;html=1;align=center;verticalAlign=middle;resizable=0;points=[];autosize=1;strokeColor=none;fillColor=none;fontSize=20;fontFamily=Architects Daughter;fontSource=https%3A%2F%2Ffonts.googleapis.com%2Fcss%3Ffamily%3DArchitects%2BDaughter;" vertex="1" parent="1">
          <mxGeometry x="-445" y="13272" width="93" height="36" as="geometry" />
        </mxCell>
        <mxCell id="ERBlmVheBcgW23YvOZkG-88" value="" style="endArrow=none;html=1;rounded=0;sketch=1;hachureGap=4;jiggle=2;curveFitting=1;fontFamily=Architects Daughter;fontSource=https%3A%2F%2Ffonts.googleapis.com%2Fcss%3Ffamily%3DArchitects%2BDaughter;fontSize=16;startSize=14;endSize=14;sourcePerimeterSpacing=8;targetPerimeterSpacing=8;" edge="1" parent="1">
          <mxGeometry width="50" height="50" relative="1" as="geometry">
            <mxPoint x="-322" y="13325" as="sourcePoint" />
            <mxPoint x="-285" y="13289" as="targetPoint" />
          </mxGeometry>
        </mxCell>
        <mxCell id="ERBlmVheBcgW23YvOZkG-89" value="" style="endArrow=none;html=1;rounded=0;sketch=1;hachureGap=4;jiggle=2;curveFitting=1;fontFamily=Architects Daughter;fontSource=https%3A%2F%2Ffonts.googleapis.com%2Fcss%3Ffamily%3DArchitects%2BDaughter;fontSize=16;startSize=14;endSize=14;sourcePerimeterSpacing=8;targetPerimeterSpacing=8;" edge="1" parent="1">
          <mxGeometry width="50" height="50" relative="1" as="geometry">
            <mxPoint x="-284.5" y="13290" as="sourcePoint" />
            <mxPoint x="-203" y="13279" as="targetPoint" />
          </mxGeometry>
        </mxCell>
        <mxCell id="ERBlmVheBcgW23YvOZkG-90" value="" style="endArrow=none;html=1;rounded=0;sketch=1;hachureGap=4;jiggle=2;curveFitting=1;fontFamily=Architects Daughter;fontSource=https%3A%2F%2Ffonts.googleapis.com%2Fcss%3Ffamily%3DArchitects%2BDaughter;fontSize=16;startSize=14;endSize=14;sourcePerimeterSpacing=8;targetPerimeterSpacing=8;" edge="1" parent="1">
          <mxGeometry width="50" height="50" relative="1" as="geometry">
            <mxPoint x="-203.75" y="13279" as="sourcePoint" />
            <mxPoint x="-118" y="13274" as="targetPoint" />
          </mxGeometry>
        </mxCell>
        <mxCell id="ERBlmVheBcgW23YvOZkG-91" value="1000TPS" style="text;html=1;align=center;verticalAlign=middle;resizable=0;points=[];autosize=1;strokeColor=none;fillColor=none;fontSize=20;fontFamily=Architects Daughter;fontSource=https%3A%2F%2Ffonts.googleapis.com%2Fcss%3Ffamily%3DArchitects%2BDaughter;" vertex="1" parent="1">
          <mxGeometry x="-440" y="13182" width="96" height="36" as="geometry" />
        </mxCell>
        <mxCell id="ERBlmVheBcgW23YvOZkG-93" value="" style="endArrow=none;html=1;rounded=0;sketch=1;hachureGap=4;jiggle=2;curveFitting=1;fontFamily=Architects Daughter;fontSource=https%3A%2F%2Ffonts.googleapis.com%2Fcss%3Ffamily%3DArchitects%2BDaughter;fontSize=16;startSize=14;endSize=14;sourcePerimeterSpacing=8;targetPerimeterSpacing=8;" edge="1" parent="1">
          <mxGeometry width="50" height="50" relative="1" as="geometry">
            <mxPoint x="-118" y="13274" as="sourcePoint" />
            <mxPoint x="-64" y="13190" as="targetPoint" />
          </mxGeometry>
        </mxCell>
        <mxCell id="ERBlmVheBcgW23YvOZkG-94" value="" style="endArrow=none;html=1;rounded=0;sketch=1;hachureGap=4;jiggle=2;curveFitting=1;fontFamily=Architects Daughter;fontSource=https%3A%2F%2Ffonts.googleapis.com%2Fcss%3Ffamily%3DArchitects%2BDaughter;fontSize=16;startSize=14;endSize=14;sourcePerimeterSpacing=8;targetPerimeterSpacing=8;" edge="1" parent="1">
          <mxGeometry width="50" height="50" relative="1" as="geometry">
            <mxPoint x="-63.5" y="13189" as="sourcePoint" />
            <mxPoint x="18" y="13178" as="targetPoint" />
          </mxGeometry>
        </mxCell>
        <mxCell id="ERBlmVheBcgW23YvOZkG-95" value="" style="endArrow=none;html=1;rounded=0;sketch=1;hachureGap=4;jiggle=2;curveFitting=1;fontFamily=Architects Daughter;fontSource=https%3A%2F%2Ffonts.googleapis.com%2Fcss%3Ffamily%3DArchitects%2BDaughter;fontSize=16;startSize=14;endSize=14;sourcePerimeterSpacing=8;targetPerimeterSpacing=8;" edge="1" parent="1">
          <mxGeometry width="50" height="50" relative="1" as="geometry">
            <mxPoint x="20" y="13178" as="sourcePoint" />
            <mxPoint x="110" y="13178" as="targetPoint" />
          </mxGeometry>
        </mxCell>
        <mxCell id="ERBlmVheBcgW23YvOZkG-96" value="2000TPS" style="text;html=1;align=center;verticalAlign=middle;resizable=0;points=[];autosize=1;strokeColor=none;fillColor=none;fontSize=20;fontFamily=Architects Daughter;fontSource=https%3A%2F%2Ffonts.googleapis.com%2Fcss%3Ffamily%3DArchitects%2BDaughter;" vertex="1" parent="1">
          <mxGeometry x="-450.5" y="13061" width="105" height="36" as="geometry" />
        </mxCell>
        <mxCell id="ERBlmVheBcgW23YvOZkG-97" value="" style="endArrow=none;html=1;rounded=0;sketch=1;hachureGap=4;jiggle=2;curveFitting=1;fontFamily=Architects Daughter;fontSource=https%3A%2F%2Ffonts.googleapis.com%2Fcss%3Ffamily%3DArchitects%2BDaughter;fontSize=16;startSize=14;endSize=14;sourcePerimeterSpacing=8;targetPerimeterSpacing=8;" edge="1" parent="1">
          <mxGeometry width="50" height="50" relative="1" as="geometry">
            <mxPoint x="110" y="13181" as="sourcePoint" />
            <mxPoint x="175" y="13068" as="targetPoint" />
          </mxGeometry>
        </mxCell>
        <mxCell id="ERBlmVheBcgW23YvOZkG-98" value="" style="endArrow=none;html=1;rounded=0;sketch=1;hachureGap=4;jiggle=2;curveFitting=1;fontFamily=Architects Daughter;fontSource=https%3A%2F%2Ffonts.googleapis.com%2Fcss%3Ffamily%3DArchitects%2BDaughter;fontSize=16;startSize=14;endSize=14;sourcePerimeterSpacing=8;targetPerimeterSpacing=8;" edge="1" parent="1">
          <mxGeometry width="50" height="50" relative="1" as="geometry">
            <mxPoint x="177.5" y="13068" as="sourcePoint" />
            <mxPoint x="207" y="13068" as="targetPoint" />
          </mxGeometry>
        </mxCell>
        <mxCell id="ERBlmVheBcgW23YvOZkG-99" value="" style="endArrow=none;html=1;rounded=0;sketch=1;hachureGap=4;jiggle=2;curveFitting=1;fontFamily=Architects Daughter;fontSource=https%3A%2F%2Ffonts.googleapis.com%2Fcss%3Ffamily%3DArchitects%2BDaughter;fontSize=16;startSize=14;endSize=14;sourcePerimeterSpacing=8;targetPerimeterSpacing=8;" edge="1" parent="1">
          <mxGeometry width="50" height="50" relative="1" as="geometry">
            <mxPoint x="267" y="13068" as="sourcePoint" />
            <mxPoint x="364" y="13104" as="targetPoint" />
          </mxGeometry>
        </mxCell>
        <mxCell id="ERBlmVheBcgW23YvOZkG-100" value="" style="endArrow=none;html=1;rounded=0;sketch=1;hachureGap=4;jiggle=2;curveFitting=1;fontFamily=Architects Daughter;fontSource=https%3A%2F%2Ffonts.googleapis.com%2Fcss%3Ffamily%3DArchitects%2BDaughter;fontSize=16;startSize=14;endSize=14;sourcePerimeterSpacing=8;targetPerimeterSpacing=8;" edge="1" parent="1">
          <mxGeometry width="50" height="50" relative="1" as="geometry">
            <mxPoint x="227" y="12980" as="sourcePoint" />
            <mxPoint x="209" y="13066" as="targetPoint" />
          </mxGeometry>
        </mxCell>
        <mxCell id="ERBlmVheBcgW23YvOZkG-101" value="" style="endArrow=none;html=1;rounded=0;sketch=1;hachureGap=4;jiggle=2;curveFitting=1;fontFamily=Architects Daughter;fontSource=https%3A%2F%2Ffonts.googleapis.com%2Fcss%3Ffamily%3DArchitects%2BDaughter;fontSize=16;startSize=14;endSize=14;sourcePerimeterSpacing=8;targetPerimeterSpacing=8;" edge="1" parent="1">
          <mxGeometry width="50" height="50" relative="1" as="geometry">
            <mxPoint x="225" y="12978" as="sourcePoint" />
            <mxPoint x="229" y="13064" as="targetPoint" />
          </mxGeometry>
        </mxCell>
        <mxCell id="ERBlmVheBcgW23YvOZkG-102" value="" style="endArrow=none;html=1;rounded=0;sketch=1;hachureGap=4;jiggle=2;curveFitting=1;fontFamily=Architects Daughter;fontSource=https%3A%2F%2Ffonts.googleapis.com%2Fcss%3Ffamily%3DArchitects%2BDaughter;fontSize=16;startSize=14;endSize=14;sourcePerimeterSpacing=8;targetPerimeterSpacing=8;" edge="1" parent="1">
          <mxGeometry width="50" height="50" relative="1" as="geometry">
            <mxPoint x="232" y="13063" as="sourcePoint" />
            <mxPoint x="266" y="13068" as="targetPoint" />
          </mxGeometry>
        </mxCell>
      </root>
    </mxGraphModel>
  </diagram>
</mxfile>
